<?xml version="1.0" encoding="utf-8"?>
<!-- Generator: Adobe Illustrator 18.0.0, SVG Export Plug-In . SVG Version: 6.00 Build 0)  -->
<!DOCTYPE svg PUBLIC "-//W3C//DTD SVG 1.1//EN" "http://www.w3.org/Graphics/SVG/1.1/DTD/svg11.dtd">
<svg version="1.1" id="Layer_1" xmlns="http://www.w3.org/2000/svg" xmlns:xlink="http://www.w3.org/1999/xlink" x="0px" y="0px"
	 viewBox="0 0 243.1 197.5" enable-background="new 0 0 243.1 197.5" xml:space="preserve">
<g>
	<path fill="#50AADF" d="M226.2,77.1c0-31.1-26.3-58.8-58.8-58.8c-18.4,0-34.8,8.4-45.6,21.7c-4.6-2-9.6-3.1-14.9-3.1
		c-16.9,0-31.1,11.2-35.7,26.5c-0.7,0.3-1.4,0.6-2.1,0.9c-2.3-0.7-4.7-1.1-7.2-1.1c-13.2,0-23.9,9.2-23.9,23.9
		c0,14.7,32.6,27.3,83.3,27.3C170.6,114.3,226.2,108.2,226.2,77.1z"/>
	<path fill="#DD5252" d="M57.3,126.9v50.9c0,8.5,27.1,15.3,60.6,15.3c33.5,0,60.6-6.9,60.6-15.3v-50.9H57.3z"/>
	<path fill="#50AADF" d="M178.5,126.9c0,8.5-27.1,15.3-60.6,15.3c-33.5,0-60.6-6.9-60.6-15.3c0-8.5,27.1-15.3,60.6-15.3
		C151.4,111.5,178.5,118.4,178.5,126.9z"/>
	<path fill="#DD5252" d="M57.3,114.2v2.5c0,8.5,27.1,15.3,60.6,15.3c33.5,0,60.6-6.9,60.6-15.3v-2.5H57.3z"/>
	<ellipse fill="#50AADF" cx="117.9" cy="114.3" rx="60.6" ry="15.3"/>
	<path fill="#DD5252" d="M57.3,103.7v2.5c0,8.5,27.1,15.3,60.6,15.3c33.5,0,60.6-6.9,60.6-15.3v-2.5H57.3z"/>
	<ellipse fill="#50AADF" cx="117.9" cy="103.9" rx="60.6" ry="15.3"/>
	<path fill="#DD5252" d="M164.9,84.9c-11.1-3.4-28-5.6-47-5.6c-18.9,0-35.9,2.2-47,5.6H57.3v9.7c0,8.5,27.1,15.3,60.6,15.3
		c33.5,0,60.6-6.9,60.6-15.3v-9.7H164.9z"/>
	<ellipse fill="#DD5252" cx="117.9" cy="84.9" rx="60.6" ry="15.3"/>
	<circle fill="#50AADF" cx="57" cy="20" r="8.5"/>
	<circle fill="#50AADF" cx="229.1" cy="140.9" r="14.1"/>
	<circle fill="#50AADF" cx="33.4" cy="189.4" r="5.4"/>
	<circle fill="#50AADF" cx="10.8" cy="105.3" r="10.8"/>
	<circle fill="#50AADF" cx="9.5" cy="38" r="6.5"/>
	<circle fill="#50AADF" cx="37.4" cy="57.6" r="4.1"/>
	<circle fill="#50AADF" cx="122.3" cy="7.7" r="7.8"/>
	<circle fill="#50AADF" cx="192.4" cy="119.9" r="5.4"/>
	<circle fill="#50AADF" cx="200" cy="188.5" r="9"/>
	<circle fill="#50AADF" cx="239.1" cy="96.1" r="4.1"/>
	<polyline fill="#50AADF" points="15.5,121.7 30.5,179.6 31.5,179.4 16.5,121.5 	"/>
	<polyline fill="#50AADF" points="7.5,47.8 9,90.3 10,90.2 8.5,47.7 	"/>
	<polyline fill="#50AADF" points="32.9,63.8 18.3,91.8 19.2,92.2 33.8,64.2 	"/>
	<polyline fill="#50AADF" points="18.9,33.5 46.2,23.2 45.8,22.3 18.6,32.5 	"/>
	<polyline fill="#50AADF" points="42,51.7 51,30.4 50,30.1 41,51.3 	"/>
	<polyline fill="#50AADF" points="15.7,44.9 30.7,53.9 31.3,53.1 16.3,44.1 	"/>
	<polyline fill="#50AADF" points="69.4,18.8 110.9,10.2 110.6,9.3 69.1,17.8 	"/>
	<polyline fill="#50AADF" points="42,185.5 53.4,160.2 52.5,159.8 41,185.1 	"/>
	<polyline fill="#50AADF" points="63.4,31.7 72.7,48 73.6,47.5 64.3,31.3 	"/>
	<polyline fill="#50AADF" points="117.4,18 108.7,32.7 109.6,33.3 118.3,18.6 	"/>
	<polyline fill="#50AADF" points="200.4,174.2 192.9,130.5 191.9,130.7 199.4,174.3 	"/>
	<polyline fill="#50AADF" points="209.4,177.2 220.2,155.2 219.3,154.8 208.6,176.8 	"/>
	<polyline fill="#50AADF" points="235.5,123.2 238,103.9 237,103.8 234.5,123.1 	"/>
	<polyline fill="#50AADF" points="199.7,115 232.5,100.7 232,99.8 199.3,114.1 	"/>
	<polyline fill="#50AADF" points="199.3,125.8 214.2,132.6 214.6,131.7 199.7,124.9 	"/>
	<polyline fill="#50AADF" points="232.5,89.3 227.5,86.1 227,86.9 232,90.2 	"/>
	<polyline fill="#50AADF" points="187.1,189.8 172.8,188 172.7,189 186.9,190.7 	"/>
	<polyline fill="#50AADF" points="130.8,15.9 142.3,21.7 142.7,20.8 131.2,15.1 	"/>
</g>
</svg>
