<?xml version="1.0" encoding="utf-8"?>
<!-- Generator: Adobe Illustrator 18.0.0, SVG Export Plug-In . SVG Version: 6.00 Build 0)  -->
<!DOCTYPE svg PUBLIC "-//W3C//DTD SVG 1.1//EN" "http://www.w3.org/Graphics/SVG/1.1/DTD/svg11.dtd">
<svg version="1.1" id="Layer_1" xmlns="http://www.w3.org/2000/svg" xmlns:xlink="http://www.w3.org/1999/xlink" x="0px" y="0px"
	 viewBox="0 0 206.1 147" enable-background="new 0 0 206.1 147" xml:space="preserve">
<path fill="#50AADF" d="M110,1.4V0H1.4C1,0,0.7,0.2,0.4,0.4C0.2,0.7,0,1,0,1.4v144.2c0,0.4,0.2,0.7,0.4,1c0.3,0.3,0.6,0.4,1,0.4H110
	c0.4,0,0.7-0.2,1-0.4c0.3-0.3,0.4-0.6,0.4-1V1.4c0-0.4-0.2-0.7-0.4-1c-0.3-0.3-0.6-0.4-1-0.4V1.4h-1.4v142.8H2.8V2.8H110V1.4h-1.4
	H110z"/>
<rect x="14.7" y="16.8" fill="#50AADF" width="80.3" height="18.4"/>
<rect x="14.7" y="91.9" fill="#50AADF" width="80.3" height="42"/>
<rect x="14.7" y="43.5" fill="#50AADF" width="41" height="40.5"/>
<rect x="64.1" y="43.5" fill="#50AADF" width="31" height="40.5"/>
<path fill="#DD5252" d="M191.5,92.7h-64c-3.1,0-5.7,2.5-5.7,5.7v39.8c0,3.1,2.5,5.7,5.7,5.7h64c3.1,0,5.7-2.5,5.7-5.7V98.4
	C197.2,95.3,194.7,92.7,191.5,92.7z M159.5,134h-27.9c-1.5,0-2.7-1.2-2.7-2.7c0-1.5,1.2-2.7,2.7-2.7h27.9c1.5,0,2.7,1.2,2.7,2.7
	C162.2,132.8,161,134,159.5,134z M188.1,121.6h-56.5c-1.5,0-2.7-1.2-2.7-2.7c0-1.5,1.2-2.7,2.7-2.7h56.5c1.5,0,2.7,1.2,2.7,2.7
	C190.8,120.4,189.6,121.6,188.1,121.6z M188.1,109.3h-56.5c-1.5,0-2.7-1.2-2.7-2.7c0-1.5,1.2-2.7,2.7-2.7h56.5
	c1.5,0,2.7,1.2,2.7,2.7C190.8,108,189.6,109.3,188.1,109.3z"/>
<polygon fill="#DD5252" points="123.9,106.3 84.8,102.4 123.9,128.4 "/>
<polygon fill="#DD5252" points="122.4,10.4 84.8,26 124.2,39.1 "/>
<path fill="#DD5252" d="M200.4,2.1h-73.1c-3.1,0-5.7,2.5-5.7,5.7v35.4c0,3.1,2.5,5.7,5.7,5.7h73.1c3.1,0,5.7-2.5,5.7-5.7V7.8
	C206.1,4.7,203.5,2.1,200.4,2.1z M190.5,31.7h-53.9c-3.7,0-6.7-3-6.7-6.7c0-3.7,3-6.7,6.7-6.7h53.9c3.7,0,6.7,3,6.7,6.7
	C197.2,28.7,194.2,31.7,190.5,31.7z"/>
</svg>
