<?xml version="1.0" encoding="utf-8"?>
<!-- Generator: Adobe Illustrator 18.0.0, SVG Export Plug-In . SVG Version: 6.00 Build 0)  -->
<!DOCTYPE svg PUBLIC "-//W3C//DTD SVG 1.1//EN" "http://www.w3.org/Graphics/SVG/1.1/DTD/svg11.dtd">
<svg version="1.1" id="Layer_1" xmlns="http://www.w3.org/2000/svg" xmlns:xlink="http://www.w3.org/1999/xlink" x="0px" y="0px"
	 viewBox="0 0 513.2 222" enable-background="new 0 0 513.2 222" xml:space="preserve">
<g>
	<path fill="#DD5252" d="M100.3,88.3c0,0.6-0.5,1-1,1H60.6c-0.6,0-1-0.5-1-1V27.6c0-0.6,0.5-1,1-1h38.7c0.6,0,1,0.5,1,1V88.3z"/>
	<path fill="#545E66" d="M194.6,88.3c0,0.6-0.5,1-1,1h-38.7c-0.6,0-1-0.5-1-1V27.6c0-0.6,0.5-1,1-1h38.7c0.6,0,1,0.5,1,1V88.3z"/>
	<path fill="#545E66" d="M147.4,66.8c0,0.6-0.5,1-1,1h-38.7c-0.6,0-1-0.5-1-1V27.6c0-0.6,0.5-1,1-1h38.7c0.6,0,1,0.5,1,1V66.8z"/>
	<path fill="#434C51" d="M80.7,26.6l-0.2,0L80.7,26.6L80.7,26.6l-0.2,0L80.7,26.6L80.7,26.6c0-0.5,0.1-5,3-10.1
		c1.4-2.5,3.6-5.2,6.8-7.5c3.2-2.4,7.4-4.4,13.1-5.7c3.1-0.7,6-1,8.5-1c4.2,0,7.7,0.8,10.6,2C127,6,130,8.7,132,10.9
		c1,1.1,1.7,2.1,2.1,2.8c0.2,0.4,0.4,0.6,0.5,0.8c0.1,0.1,0.1,0.2,0.1,0.2l0,0.1l0,0l0,0l0.3-0.1l-0.3,0.1l0,0l0.3-0.1l-0.3,0.1
		c0.2,0.4,0.6,0.5,1,0.4c0.4-0.2,0.5-0.6,0.4-1c0-0.1-1.6-3.4-5.5-6.8c-1.9-1.7-4.4-3.4-7.4-4.6c-3.1-1.3-6.8-2.1-11.1-2.1
		c-2.7,0-5.7,0.3-8.9,1.1c-5.9,1.3-10.3,3.5-13.7,6c-5.1,3.7-7.7,8.2-9,11.9c-1.3,3.7-1.4,6.5-1.4,6.9c0,0,0,0.1,0,0.1
		c0,0.4,0.4,0.8,0.8,0.8C80.3,27.4,80.7,27,80.7,26.6z"/>
	<path fill="#434C51" d="M176,26.6C176,26.6,176,26.6,176,26.6c0-0.6-0.1-5.5-3.2-10.8c-1.5-2.7-3.8-5.5-7.2-8
		c-3.4-2.5-7.8-4.6-13.7-6c-3.2-0.7-6.2-1.1-8.9-1.1c-4.4,0-8.1,0.8-11.1,2.1c-4.6,1.9-7.8,4.7-9.9,7.1c-2.1,2.4-3,4.3-3,4.3
		c-0.2,0.4,0,0.8,0.4,1c0.4,0.2,0.8,0,1-0.4l-0.1-0.1l0.1,0.1l0,0l-0.1-0.1l0.1,0.1c0,0,1.6-3.2,5.2-6.4c1.8-1.6,4.1-3.1,7-4.3
		c2.9-1.2,6.4-2,10.5-2c2.6,0,5.4,0.3,8.5,1c5.7,1.3,9.9,3.3,13.1,5.7c4.8,3.5,7.2,7.7,8.4,11.2c1.2,3.4,1.3,6.1,1.3,6.4v0v0l0.1,0
		l-0.1,0v0l0.1,0l-0.1,0c0,0.4,0.3,0.8,0.7,0.8C175.6,27.4,175.9,27,176,26.6z"/>
	<path fill="#434C51" d="M121.6,25.6c0,0.6-0.5,1-1,1h-1.8c-0.6,0-1-0.5-1-1V15.2c0-0.6,0.5-1,1-1h1.8c0.6,0,1,0.5,1,1V25.6z"/>
	<path fill="#434C51" d="M137.4,25.6c0,0.6-0.5,1-1,1h-1.8c-0.6,0-1-0.5-1-1V15.2c0-0.6,0.5-1,1-1h1.8c0.6,0,1,0.5,1,1V25.6z"/>
	<g>
		<g>
			<path fill="#FBFDF8" d="M82.8,220.4c-17.3,0-24.7-17.6-34-39.8c-2.5-5.9-5-12-8-18.2c-8.3-17.7-13.4-24.4-17.6-29.7
				c-4.1-5.4-7.4-9.6-11.9-21.9c-22.2-60.2-0.2-74.1,7-76.9c3-1.2,6.1-1.8,9.1-1.8c18.7,0,32.4,22,39,32.6l0.8,1.3
				c4.2,6.7,5.8,15.8,7.4,25.5c1.1,6.7,2.3,13.5,4.4,20.4c3.4,11.2,13.6,27.8,21.1,40c3.9,6.4,7.4,12,8.9,15.3
				c0.3,0.6,0.6,1.2,0.9,1.8c3.4,7,9.7,20.2,5,32c-2.8,7.1-9.1,12.7-18.8,16.6C91.2,219.4,86.9,220.4,82.8,220.4
				C82.8,220.4,82.8,220.4,82.8,220.4z"/>
			<path fill="#6B6B6B" d="M27.6,33.4c18.7,0,32.6,23.7,38.6,33.2C73,77.5,72.5,95,77.7,112.2c5.2,17.2,25.6,46,30,55.4
				c4.3,9.4,19.4,35.9-12.1,48.5c-4.8,1.9-9,2.8-12.8,2.8c-20.7,0-26.7-27.4-40.7-57.2c-16.5-35.1-20.4-27-29.4-51.5
				C-7.3,55.7,9,39,19,35.1C21.9,34,24.8,33.4,27.6,33.4 M27.6,30.6c-3.2,0-6.4,0.6-9.6,1.9c-7.6,2.9-30.5,17.3-7.9,78.7
				c4.6,12.5,7.9,16.8,12.1,22.2c4.1,5.3,9.1,11.9,17.4,29.5c2.9,6.2,5.5,12.3,7.9,18.2c4.7,11.2,8.8,21,14,28.2
				c6.1,8.5,12.8,12.5,21.4,12.5c4.2,0,8.7-1,13.8-3c10.1-4,16.7-9.9,19.6-17.4c4.8-12.4-1.6-25.9-5.1-33.1
				c-0.3-0.7-0.6-1.3-0.9-1.8c-1.5-3.3-4.8-8.7-8.9-15.4c-7.4-12.1-17.6-28.6-20.9-39.6c-2.1-6.8-3.2-13.6-4.3-20.2
				c-1.6-9.8-3.2-19-7.6-26l-0.8-1.3C61,53.1,47,30.6,27.6,30.6L27.6,30.6z"/>
		</g>
		<path fill="#21627C" d="M9.8,71.4c0,0-3.3,2.2-0.8,12.9c2.5,10.7,38.2,81.4,38.2,81.4s4.2,19.4,6.4,23.3
			c2.2,3.9,16.5,22.5,18.9,23.8c2.4,1.3,21.2,6.8,30.6-3.9c9.5-10.8,7.7-30.4,5.8-35.5c-2-5.2-13.8-23-15.4-26.2
			c-1.6-3.2-28-51.9-28.5-55.2c-0.5-3.3-10.6-33-11.1-34.1c-0.5-1.1-1.5-3.3-9-5.2C37.2,50.9,9.8,71.4,9.8,71.4z"/>
		<path fill="#62B2D1" d="M55.8,65.1l-2.5-8.3L24.8,64L8,76.2L37.3,131l15,31.6c0,0,27.7-3.4,31.6-18.9
			c3.9-15.6-28.3-58.3-28.3-58.3"/>
		<path fill="#3F92BC" d="M77.7,112.2c-1.8-5.8-2.9-11.7-3.9-17.3c-2.7-13.2-20.6-38.1-20.6-38.1s-11.8,10.6-2.7,38.8
			c9,28.2,29.3,48.1,29.3,48.1s7.2,4.5,14,11.9c15.5,17.4,24.6,46.5-1.3,56.3c-25.9,9.9-34.2-19.2-36.7-32.9
			c-2.5-13.7,0.6-25.2,0.6-25.2s-0.7-4.3-8.4-23.7C34.5,94.1,23.5,82.2,23.5,82.2c-8.8-7.6-15.5-6-15.5-6s0.4,15.2,10,36.1
			c3.6,7.8,8.1,17.9,12.3,27.4c3.2,4.8,7,11.4,11.9,22c16.5,35.1,21.9,67,53.4,54.4c31.6-12.6,16.5-39.1,12.1-48.5
			C103.4,158.2,83,129.4,77.7,112.2z"/>
		<path fill="#FFFFFF" d="M38.1,66.3c-1.1,0.5-2.4,1-3.9,1.6l-1.9,0.8c-10.3,4.4-20.6,6-23.6,6.4c-0.6-4.8-3-28.1,11.5-34.4
			C35,34.5,49.5,53.1,52.1,56.7C47.4,61.9,45.4,63.2,38.1,66.3L38.1,66.3z"/>
		<path fill="#3F92BC" d="M20.6,41.6L20.6,41.6c13.4-5.7,26.9,10.4,30.3,15c-4.3,4.6-6.3,5.9-13.2,8.9c-1.1,0.5-2.4,1-3.9,1.6
			L32,67.9c-9.4,4-18.7,5.7-22.4,6.2C8.8,68,7.4,47.3,20.6,41.6 M19.9,40C2.9,47.3,8,76.2,8,76.2s12.2-1.3,24.7-6.6
			c2.3-0.9,4.2-1.7,5.8-2.5c7.4-3.2,9.5-4.6,14.8-10.4C53.3,56.7,37,32.7,19.9,40L19.9,40z"/>
		<path fill="#FBFDF8" d="M23,90.3c0.7,1.5,0,3.3-1.6,3.9c-1.5,0.7-3.3,0-3.9-1.6c-0.6-1.5,0-3.3,1.6-3.9
			C20.6,88.1,22.3,88.8,23,90.3z"/>
		<path fill="#FBFDF8" d="M30.1,103.7c0.6,1.5,0,3.3-1.6,3.9c-1.5,0.6-3.3,0-3.9-1.6c-0.6-1.5,0-3.3,1.6-3.9
			C27.7,101.5,29.5,102.2,30.1,103.7z"/>
		<path fill="#FBFDF8" d="M37.4,116.3c0.6,1.5,0,3.3-1.6,3.9c-1.5,0.6-3.3,0-3.9-1.6c-0.6-1.5,0-3.3,1.6-3.9
			C35,114.1,36.8,114.8,37.4,116.3z"/>
		<path fill="#FBFDF8" d="M43.4,130.3c0.7,1.5,0,3.3-1.6,3.9c-1.5,0.7-3.3,0-3.9-1.6c-0.6-1.5,0-3.3,1.6-3.9
			C41.1,128.1,42.8,128.8,43.4,130.3z"/>
		<path fill="#FBFDF8" d="M58.3,76.8c0.6,1.5,0,3.3-1.6,3.9c-1.5,0.6-3.3,0-3.9-1.6c-0.6-1.5,0-3.3,1.6-3.9
			C55.9,74.6,57.7,75.3,58.3,76.8z"/>
		<path fill="#FBFDF8" d="M63.8,92.4c0.6,1.5,0,3.3-1.6,3.9c-1.5,0.6-3.3,0-3.9-1.6c-0.6-1.5,0-3.3,1.6-3.9
			C61.4,90.2,63.2,90.9,63.8,92.4z"/>
		<path fill="#FBFDF8" d="M67.3,105.3c0.6,1.5,0,3.3-1.6,3.9c-1.5,0.6-3.3,0-3.9-1.6c-0.6-1.5,0-3.3,1.6-3.9
			C65,103,66.7,103.7,67.3,105.3z"/>
		<path fill="#FBFDF8" d="M74.9,118.1c0.6,1.5,0,3.3-1.6,3.9c-1.5,0.6-3.3,0-3.9-1.6c-0.6-1.5,0-3.3,1.6-3.9
			C72.5,115.9,74.2,116.6,74.9,118.1z"/>
		<path fill="#FBFDF8" d="M80.6,131.3c0.6,1.5,0,3.3-1.6,3.9c-1.5,0.6-3.3,0-3.9-1.6c-0.6-1.5,0-3.3,1.6-3.9
			C78.2,129.1,79.9,129.8,80.6,131.3z"/>
		<path fill="#FBFDF8" d="M50.5,146.7c0.6,1.5,0,3.3-1.6,3.9c-1.5,0.6-3.3,0-3.9-1.6c-0.6-1.5,0-3.3,1.6-3.9
			C48.1,144.5,49.9,145.2,50.5,146.7z"/>
		<path fill="#DD5252" d="M20.3,91.4l0.5,1.4L49.2,82l-22.8,21.8c-0.4,0.4-0.6,1.1-0.4,1.6c0.2,0.6,0.7,0.9,1.3,1l33.9,1.4
			l-21.6,22.7c-0.4,0.4-0.5,1.1-0.3,1.6c0.2,0.5,0.8,0.9,1.4,0.9l30.8,0.8l-18,8.5l19.8-22.1c0.4-0.4,0.5-1,0.3-1.6
			c-0.2-0.5-0.7-0.9-1.3-0.9l-33.8-1.6l23.7-21.4c0.5-0.4,0.6-1,0.4-1.6c-0.2-0.6-0.7-1-1.3-1l-40.9-2.2L20.3,91.4l0.5,1.4
			L20.3,91.4L20.2,93l37.2,2l-23.7,21.4c-0.4,0.4-0.6,1.1-0.4,1.6c0.2,0.6,0.7,1,1.3,1l34.3,1.6l-22.7,25.3
			c-0.5,0.5-0.5,1.3-0.1,1.9c0.4,0.6,1.2,0.8,1.8,0.5l30.5-14.4c0.6-0.3,1-1,0.8-1.7c-0.1-0.7-0.7-1.2-1.4-1.2l-33.7-0.9l21.6-22.6
			c0.4-0.4,0.5-1.1,0.3-1.6c-0.2-0.5-0.7-0.9-1.3-0.9L31,103.5L56.6,79c0.5-0.5,0.6-1.3,0.2-1.9c-0.4-0.6-1.1-0.9-1.8-0.6L19.7,90
			c-0.7,0.3-1.1,0.9-1,1.6c0.1,0.7,0.7,1.2,1.4,1.3L20.3,91.4z"/>
		<path fill="#DD5252" d="M63.1,142l1.5,0.3l0,0c0.1-0.5,1.9-10.1,5.2-20.2c1.7-5,3.8-10.2,6.2-14.4c1.2-2.1,2.5-3.9,3.9-5.4
			c1.4-1.5,2.8-2.5,4.2-3.1c0.8-0.3,1.5-0.5,2.3-0.6c0.8-0.1,1.6,0,2.4,0.2c1.2,0.3,2.1,0.7,2.7,1.3c0.7,0.5,1.1,1.1,1.4,1.9
			c0.4,1,0.6,2.2,0.4,3.6c-0.1,1.3-0.5,2.7-1,4.2c-1,2.7-2.6,5.7-4.6,8.7c-3,4.5-7.1,9.1-11.4,13.1c-4.3,3.9-8.9,7.1-13,8.9
			c-0.3,0.1-0.6,0.2-0.8,0.3L63.1,142l1.5,0.3L63.1,142l0.5,1.4c0.3-0.1,0.6-0.3,0.9-0.4c4-1.7,8.1-4.5,12.1-7.9
			c6-5.1,11.5-11.5,15.2-17.7c1.9-3.1,3.2-6.1,4-9c0.4-1.4,0.6-2.8,0.6-4.1c0-1.3-0.2-2.6-0.7-3.7c-0.5-1.2-1.3-2.2-2.3-3
			c-1-0.8-2.3-1.4-3.9-1.8c-1.2-0.3-2.3-0.4-3.4-0.3c-1.1,0.1-2.2,0.4-3.2,0.8c-2,0.8-3.7,2.2-5.3,3.9c-2.8,3-5.1,7.1-7.1,11.5
			c-3,6.7-5.2,14.1-6.7,20c-1.5,5.8-2.2,10-2.2,10c-0.1,0.5,0.1,1.1,0.5,1.4c0.4,0.3,1,0.4,1.5,0.2L63.1,142z"/>
		<path fill="#DD5252" d="M7.9,127.6l-1.5-0.2c-0.4,2.9,0,5.4,0.9,7.6c1,2.4,2.8,4.3,5,5.8c1.9,1.3,4.1,2.3,6.5,3
			c4.2,1.3,9.1,1.9,14.1,2.1c7.4,0.3,15-0.3,20.8-1c5.8-0.7,9.7-1.5,9.7-1.5c0.6-0.1,1.1-0.6,1.2-1.2c0.1-0.6-0.2-1.2-0.7-1.6
			c0,0-10-6.1-21.5-11.6c-5.8-2.7-11.9-5.3-17.5-6.9c-2.8-0.8-5.4-1.3-7.8-1.5c-1.2-0.1-2.3-0.1-3.4,0c-1.1,0.1-2.1,0.4-3,0.8
			c-1.1,0.5-2.1,1.2-2.9,2.2c-0.7,1-1.2,2.2-1.4,3.6L7.9,127.6l1.5,0.2c0.1-1,0.4-1.7,0.8-2.2c0.4-0.5,0.9-0.9,1.7-1.3
			c0.6-0.3,1.3-0.4,2.2-0.5c1.6-0.2,3.6,0,5.8,0.4c3.9,0.7,8.6,2.3,13.3,4.2c7.1,2.9,14.4,6.7,20,9.7c2.8,1.5,5.1,2.8,6.7,3.8
			c0.8,0.5,1.5,0.9,1.9,1.1c0.2,0.1,0.4,0.2,0.5,0.3c0.1,0,0.1,0.1,0.1,0.1l0,0l0.8-1.3l-0.3-1.5l0,0c-0.7,0.1-12.4,2.4-24.8,2.5
			c-6.2,0.1-12.5-0.4-17.6-1.8c-2.5-0.7-4.8-1.7-6.5-2.9c-1.8-1.2-3-2.7-3.8-4.5c-0.7-1.7-1-3.6-0.7-6.1L7.9,127.6z"/>
		<path fill="#DD5252" d="M107.9,127.2L107.9,127.2c-0.4,0.3-7.6,4.9-16.7,8.8c-4.5,2-9.6,3.7-14.4,4.7c-2.4,0.5-4.8,0.8-7,0.8
			c-2.2,0-4.3-0.3-6.2-0.9c-1.7-0.5-3.4-0.7-5.1-0.5c-1.7,0.2-3.4,0.7-5.1,1.4c-3.9,1.7-7.7,4.6-11.2,8c-5.3,5.1-10,11.4-13.4,16.4
			c-3.4,5-5.5,8.7-5.5,8.8c-0.4,0.7-0.2,1.6,0.6,2.1c0.7,0.4,1.6,0.2,2.1-0.6l0,0c0.2-0.4,4-6.9,9.4-14.1c2.7-3.6,5.9-7.3,9.2-10.5
			c3.3-3.2,6.8-5.9,10.2-7.3c1.4-0.6,2.8-1,4.2-1.2c1.4-0.1,2.6,0,3.9,0.4c2.2,0.7,4.6,1,7.1,1c3.7,0,7.6-0.7,11.4-1.7
			c3.8-1,7.6-2.5,11.2-4c9.7-4.2,17.2-9.1,17.2-9.1c0.7-0.5,0.9-1.4,0.4-2.1C109.6,126.9,108.6,126.7,107.9,127.2z"/>
	</g>
</g>
<g>
	<path fill="#50A9DE" d="M127,126c-17.4,0-18-18.2-18-24.1h0c0-0.1,0-0.2,0-0.3c0-0.1,0-0.3,0-0.4h0c0-6,0.7-24.1,18-24.1
		c17.3,0,18.1,18.7,18.1,24.1h0c0,0.1,0,0.2,0,0.4c0,0.1,0,0.3,0,0.3h0C145.1,107.3,144.3,126,127,126z"/>
	<polygon fill="#FFFFFF" points="116,92.8 133,109.8 129.2,113.7 129.2,89.7 133,93.5 116,110.5 118.5,113 137.9,93.5 125.7,81.3 
		125.7,122.1 137.9,109.8 118.4,90.3 	"/>
</g>
<path fill="#545E66" d="M513.2,146.6c0,6.1-5,11.1-11.1,11.1H338.4c-6.1,0-11.1-5-11.1-11.1V43.7c0-6.1,5-11.1,11.1-11.1h163.8
	c6.1,0,11.1,5,11.1,11.1V146.6z"/>
<path fill="#697177" d="M510,95.2c0,2.8-2.3,5-5,5c-2.8,0-5.1-2.3-5.1-5c0-2.8,2.3-5,5.1-5C507.7,90.1,510,92.4,510,95.2z"/>
<rect x="335.4" y="41.1" fill="#3F92BC" width="161.2" height="108.1"/>
<rect x="335.4" y="41.1" fill="#3D8DAD" width="80.6" height="108.1"/>
<polygon opacity="0.6" fill="#55ACCE" points="447.2,149.2 496.6,149.2 496.6,41.1 386.7,41.1 "/>
<g>
	<path fill="#55ACCE" d="M220.8,40.4l-1,2.9c10.9,3.9,19.8,11.3,25.8,20.5C252.9,75,256,89,253,103.1c-3,14.1-11.4,25.7-22.6,33.1
		c-2.6,1.7-5.4,3.2-8.3,4.4c0.4,1,0.8,1.9,1.2,2.9c16.2-6.9,28.8-21.2,32.6-39.7C261.8,76.4,246.3,49.6,220.8,40.4z"/>
	<path fill="#55ACCE" d="M245.6,101.6c4.6-22-7.9-43.7-28.4-51.2l-1,2.9c8.6,3.1,15.7,9,20.5,16.3c5.8,8.9,8.3,20,5.9,31.3
		c-2.4,11.3-9,20.5-18,26.3c-2.1,1.4-4.3,2.5-6.5,3.5c0.4,1,0.8,1.9,1.2,2.9C232.3,128.1,242.5,116.5,245.6,101.6z"/>
	<path fill="#55ACCE" d="M234.9,99.3c3.5-16.6-5.9-32.9-21.4-38.6l-1.1,2.9c6.3,2.3,11.5,6.6,15,12c4.3,6.6,6.1,14.8,4.4,23.1
		c-1.7,8.3-6.7,15.1-13.2,19.4c-1.5,1-3.1,1.8-4.8,2.5c0.4,0.9,0.8,1.9,1.2,2.9C224.8,119.3,232.5,110.6,234.9,99.3z"/>
</g>
<path fill="#DD5252" d="M359.5,79.6l-14.3,14.3c-0.7,0.7-0.7,1.9,0,2.6l14.3,14.3c0.7,0.7,1.9,0.7,2.6,0l0.3-0.3
	c0.7-0.7,0.7-1.9,0-2.7l-12.6-12.6l12.6-12.6c0.7-0.7,0.7-1.9,0-2.6l-0.3-0.3C361.4,78.9,360.2,78.9,359.5,79.6z"/>
<path fill="#FFFFFF" d="M473.5,79.6l14.3,14.3c0.7,0.7,0.7,1.9,0,2.6l-14.3,14.3c-0.7,0.7-1.9,0.7-2.6,0l-0.3-0.3
	c-0.7-0.7-0.7-1.9,0-2.7l12.6-12.6l-12.6-12.6c-0.7-0.7-0.7-1.9,0-2.6l0.3-0.3C471.6,78.9,472.8,78.9,473.5,79.6z"/>
<g>
	<path fill="#55ACCE" d="M300.9,80.3l12.6,12.6c0.6,0.6,0.6,1.7,0,2.3l-12.6,12.6c-0.6,0.6-1.7,0.6-2.3,0l-0.3-0.3
		c-0.6-0.6-0.6-1.7,0-2.3L309.4,94l-11.2-11.2c-0.6-0.6-0.6-1.7,0-2.3l0.3-0.3C299.2,79.6,300.2,79.6,300.9,80.3z"/>
	<path fill="#55ACCE" d="M267.7,93.8c0,0.9,0.7,1.6,1.6,1.6h41.7c0.9,0,1.6-0.7,1.6-1.6l0,0c0-0.9-0.7-1.6-1.6-1.6h-41.7
		C268.5,92.1,267.7,92.9,267.7,93.8L267.7,93.8z"/>
</g>
</svg>
