<?xml version="1.0" encoding="utf-8"?>
<!-- Generator: Adobe Illustrator 18.0.0, SVG Export Plug-In . SVG Version: 6.00 Build 0)  -->
<!DOCTYPE svg PUBLIC "-//W3C//DTD SVG 1.1//EN" "http://www.w3.org/Graphics/SVG/1.1/DTD/svg11.dtd">
<svg version="1.1" xmlns="http://www.w3.org/2000/svg" xmlns:xlink="http://www.w3.org/1999/xlink" x="0px" y="0px"
	 viewBox="0 0 321.5 228.9" enable-background="new 0 0 321.5 228.9" xml:space="preserve">
<g id="Layer_1">
	<g>
		<g>
			<path fill="#3B4F61" d="M1.2,162.6c0-7.2,1.7-13.1,5-17.5c3.3-4.4,7.7-6.7,13.2-6.7c6,0,10.6,3,13.8,8.9l-4.4,2.3
				c-1-1.9-2.3-3.4-3.9-4.5s-3.4-1.6-5.4-1.6c-3.7,0-6.7,1.8-9,5.3S7,156.9,7,162.6c0,5.7,1.1,10.3,3.4,13.9c2.3,3.5,5.3,5.3,9,5.3
				c1.8,0,3.5-0.4,5.1-1.1c1.5-0.8,2.8-1.7,3.7-2.8v-10.9H17V162h16.4v17.9c-3.7,4.6-8.3,6.9-14,6.9c-3.6,0-6.8-1-9.5-3
				c-2.7-2-4.9-4.9-6.4-8.5C2,171.5,1.2,167.3,1.2,162.6z"/>
			<path fill="#3B4F61" d="M40.2,168.9c0-3.2,0.5-6.2,1.5-8.8c1-2.6,2.6-4.8,4.7-6.4s4.6-2.5,7.5-2.5c2.9,0,5.4,0.8,7.6,2.5
				c2.1,1.6,3.7,3.8,4.7,6.4c1,2.6,1.5,5.6,1.5,8.8c0,3.3-0.5,6.2-1.5,8.9c-1,2.6-2.6,4.8-4.7,6.5c-2.1,1.7-4.7,2.5-7.6,2.5
				c-2.9,0-5.4-0.8-7.5-2.5s-3.7-3.8-4.7-6.5C40.7,175.1,40.2,172.2,40.2,168.9z M45.5,168.9c0,2.4,0.3,4.6,0.9,6.5
				c0.6,2,1.5,3.6,2.8,4.9c1.3,1.3,2.9,1.9,4.7,1.9c1.4,0,2.7-0.4,3.8-1.1c1.1-0.7,2-1.7,2.7-3c0.7-1.3,1.2-2.7,1.5-4.2
				s0.5-3.2,0.5-5c0-1.8-0.2-3.4-0.5-5c-0.3-1.5-0.8-3-1.5-4.2c-0.7-1.3-1.6-2.2-2.7-3c-1.1-0.7-2.4-1.1-3.8-1.1
				c-1.4,0-2.7,0.4-3.8,1.1c-1.1,0.7-2,1.7-2.6,3c-0.7,1.3-1.2,2.7-1.5,4.2C45.6,165.5,45.5,167.2,45.5,168.9z"/>
			<path fill="#3B4F61" d="M73.6,168.9c0-3.2,0.5-6.2,1.5-8.8c1-2.6,2.6-4.8,4.7-6.4s4.6-2.5,7.5-2.5c2.9,0,5.4,0.8,7.6,2.5
				c2.1,1.6,3.7,3.8,4.7,6.4c1,2.6,1.5,5.6,1.5,8.8c0,3.3-0.5,6.2-1.5,8.9c-1,2.6-2.6,4.8-4.7,6.5c-2.1,1.7-4.7,2.5-7.6,2.5
				c-2.9,0-5.4-0.8-7.5-2.5s-3.7-3.8-4.7-6.5C74.1,175.1,73.6,172.2,73.6,168.9z M78.8,168.9c0,2.4,0.3,4.6,0.9,6.5
				c0.6,2,1.5,3.6,2.8,4.9c1.3,1.3,2.9,1.9,4.7,1.9c1.4,0,2.7-0.4,3.8-1.1c1.1-0.7,2-1.7,2.7-3c0.7-1.3,1.2-2.7,1.5-4.2
				s0.5-3.2,0.5-5c0-1.8-0.2-3.4-0.5-5c-0.3-1.5-0.8-3-1.5-4.2c-0.7-1.3-1.6-2.2-2.7-3c-1.1-0.7-2.4-1.1-3.8-1.1
				c-1.4,0-2.7,0.4-3.8,1.1c-1.1,0.7-2,1.7-2.6,3c-0.7,1.3-1.2,2.7-1.5,4.2C79,165.5,78.8,167.2,78.8,168.9z"/>
			<path fill="#3B4F61" d="M106.9,169c0-5.3,1.1-9.6,3.2-12.9c2.2-3.3,5.1-4.9,8.9-4.9c1.8,0,3.4,0.5,5,1.5c1.6,1,2.9,2.4,3.9,4.3
				v-17.8h5v46.7h-5v-4.8c-1,1.7-2.3,3.1-3.9,4.1c-1.6,1-3.3,1.5-5,1.5c-3.7,0-6.7-1.6-8.9-4.8C108,178.7,106.9,174.4,106.9,169z
				 M112.2,169c0,2.5,0.3,4.7,0.9,6.7c0.6,1.9,1.5,3.5,2.7,4.8c1.2,1.2,2.8,1.8,4.5,1.8c1.6,0,3.1-0.5,4.5-1.6
				c1.4-1.1,2.5-2.4,3.1-3.9v-15.6c-0.7-1.5-1.7-2.8-3.1-3.9s-2.9-1.6-4.5-1.6c-2.6,0-4.7,1.2-6,3.7
				C112.9,161.9,112.2,165.1,112.2,169z"/>
			<path fill="#3B4F61" d="M142.5,185.9v-46.7h14.3c3.8,0,6.9,1.3,9.2,3.8c2.4,2.5,3.6,5.9,3.6,10.1c0,3.9-0.9,6.9-2.7,9.2
				c-1.8,2.2-4,3.6-6.6,4.1l9.8,19.5h-6.3l-9-18.7h-6.7v18.7H142.5z M148.1,162.3h8.1c2.4,0,4.2-0.8,5.6-2.5
				c1.4-1.7,2.1-3.9,2.1-6.6c0-2.7-0.7-4.9-2.1-6.6c-1.4-1.7-3.3-2.5-5.6-2.5h-8.1V162.3z"/>
			<path fill="#3B4F61" d="M174.4,168.9c0-3.3,0.5-6.3,1.6-8.9c1.1-2.7,2.7-4.8,4.8-6.4c2.1-1.6,4.6-2.4,7.3-2.4
				c2.9,0,5.3,0.8,7.4,2.4c2,1.6,3.6,3.7,4.5,6.4c1,2.6,1.5,5.7,1.5,9v1.6h-21.9c0.1,3.5,1,6.4,2.7,8.6c1.7,2.2,4,3.3,7,3.3
				c1.5,0,2.9-0.4,4.4-1.1c1.4-0.7,2.7-1.7,3.7-3.1l2.7,2.9c-2.9,3.6-6.6,5.4-11.1,5.4c-4.5,0-8-1.7-10.6-5
				C175.7,178.5,174.4,174.2,174.4,168.9z M179.7,166.9h16.9c0-1.4-0.2-2.7-0.5-4c-0.3-1.3-0.8-2.5-1.4-3.7s-1.5-2.1-2.6-2.8
				c-1.1-0.7-2.4-1-3.9-1c-1.4,0-2.7,0.4-3.8,1.1c-1.1,0.7-2,1.7-2.6,2.8c-0.6,1.2-1.1,2.4-1.5,3.7S179.7,165.6,179.7,166.9z"/>
			<path fill="#3B4F61" d="M210,183.6c-2-2.1-2.9-4.8-2.9-8.2s1-6.1,2.9-8.1s4.3-3,7.2-3c1.8,0,3.5,0.4,5.1,1.1
				c1.6,0.7,2.8,1.8,3.9,3.3v-5.9c0-2.3-0.6-4.1-1.8-5.3s-2.9-1.9-5.1-1.9c-3.2,0-6,1.4-8.4,4.1l-2.2-3.6c3.1-3.3,6.9-4.9,11.4-4.9
				c3.5,0,6.2,0.9,8.2,2.7c2,1.8,3,4.6,3,8.3v23.7h-5v-3.7c-1.1,1.5-2.4,2.6-3.9,3.4c-1.6,0.8-3.2,1.1-5,1.1
				C214.4,186.7,212,185.7,210,183.6z M213.9,170.1c-1.2,1.4-1.8,3.2-1.8,5.3c0,2.2,0.6,3.9,1.8,5.4c1.2,1.4,2.9,2.1,4.9,2.1
				c1.5,0,2.9-0.4,4.2-1.1c1.3-0.7,2.3-1.8,3.1-3.1v-6.4c-0.8-1.4-1.8-2.4-3.1-3.2c-1.3-0.7-2.7-1.1-4.2-1.1
				C216.7,168,215.1,168.7,213.9,170.1z"/>
			<path fill="#3B4F61" d="M238.7,169c0-5.3,1.1-9.6,3.2-12.9c2.2-3.3,5.1-4.9,8.9-4.9c1.8,0,3.4,0.5,5,1.5c1.6,1,2.9,2.4,3.9,4.3
				v-17.8h5v46.7h-5v-4.8c-1,1.7-2.3,3.1-3.9,4.1c-1.6,1-3.3,1.5-5,1.5c-3.7,0-6.7-1.6-8.9-4.8C239.8,178.7,238.7,174.4,238.7,169z
				 M243.9,169c0,2.5,0.3,4.7,0.9,6.7c0.6,1.9,1.5,3.5,2.7,4.8c1.2,1.2,2.8,1.8,4.5,1.8c1.6,0,3.1-0.5,4.5-1.6
				c1.4-1.1,2.5-2.4,3.1-3.9v-15.6c-0.7-1.5-1.7-2.8-3.1-3.9s-2.9-1.6-4.5-1.6c-2.6,0-4.7,1.2-6,3.7
				C244.6,161.9,243.9,165.1,243.9,169z"/>
			<path fill="#3B4F61" d="M272.3,168.9c0-3.3,0.5-6.3,1.6-8.9c1.1-2.7,2.7-4.8,4.8-6.4c2.1-1.6,4.6-2.4,7.3-2.4
				c2.9,0,5.3,0.8,7.4,2.4c2,1.6,3.6,3.7,4.5,6.4c1,2.6,1.5,5.7,1.5,9v1.6h-21.9c0.1,3.5,1,6.4,2.7,8.6c1.7,2.2,4,3.3,7,3.3
				c1.5,0,2.9-0.4,4.4-1.1c1.4-0.7,2.7-1.7,3.7-3.1l2.7,2.9c-2.9,3.6-6.6,5.4-11.1,5.4c-4.5,0-8-1.7-10.6-5
				C273.6,178.5,272.3,174.2,272.3,168.9z M277.5,166.9h16.9c0-1.4-0.2-2.7-0.5-4c-0.3-1.3-0.8-2.5-1.4-3.7s-1.5-2.1-2.6-2.8
				c-1.1-0.7-2.4-1-3.9-1c-1.4,0-2.7,0.4-3.8,1.1c-1.1,0.7-2,1.7-2.6,2.8c-0.6,1.2-1.1,2.4-1.5,3.7S277.6,165.6,277.5,166.9z"/>
			<path fill="#3B4F61" d="M306.7,185.9v-33.8h5v5.5c1.1-1.9,2.5-3.4,4.2-4.5c1.6-1.1,3.4-1.7,5.4-1.7v5.3c-0.5-0.1-1.1-0.2-1.7-0.2
				c-1.5,0-3,0.6-4.5,1.7c-1.5,1.1-2.7,2.4-3.4,3.9v23.9H306.7z"/>
		</g>
	</g>
	<g>
		<g>
			<path fill="#3B4F61" d="M62.8,209.4v-2.9h3v-2.7c0-1.9,0.5-3.5,1.5-4.6c1-1.1,2.4-1.7,4.1-1.7c1.6,0,3,0.5,4,1.5l-1.3,2.4
				c-0.6-0.7-1.4-1-2.2-1c-0.9,0-1.6,0.3-2.1,0.9c-0.5,0.6-0.7,1.5-0.7,2.6v2.8H73v2.9h-3.8v19.5h-3.3v-19.5H62.8z"/>
			<path fill="#3B4F61" d="M75.7,217.7c0-2.1,0.3-4.1,1-5.8c0.7-1.8,1.7-3.2,3.1-4.3c1.4-1.1,3.1-1.6,5-1.6c1.9,0,3.6,0.5,5,1.6
				s2.5,2.5,3.1,4.3c0.7,1.7,1,3.7,1,5.9s-0.3,4.1-1,5.9c-0.7,1.8-1.7,3.2-3.1,4.3s-3.1,1.7-5,1.7c-1.9,0-3.6-0.6-5-1.7
				s-2.4-2.5-3.1-4.3C76,221.8,75.7,219.9,75.7,217.7z M79.2,217.7c0,1.6,0.2,3,0.6,4.3c0.4,1.3,1,2.4,1.9,3.2
				c0.9,0.9,1.9,1.3,3.1,1.3c1,0,1.8-0.2,2.5-0.7c0.7-0.5,1.3-1.2,1.8-2c0.4-0.8,0.8-1.8,1-2.8s0.3-2.1,0.3-3.3
				c0-1.2-0.1-2.3-0.3-3.3c-0.2-1-0.6-2-1-2.8c-0.4-0.8-1-1.5-1.8-2c-0.7-0.5-1.6-0.7-2.5-0.7c-0.9,0-1.8,0.2-2.5,0.7
				s-1.3,1.1-1.8,2c-0.4,0.8-0.8,1.8-1,2.8C79.3,215.4,79.2,216.5,79.2,217.7z"/>
			<path fill="#3B4F61" d="M98.9,228.9v-22.4h3.3v3.6c0.8-1.3,1.7-2.2,2.8-3c1.1-0.7,2.3-1.1,3.6-1.1v3.5c-0.4-0.1-0.7-0.1-1.1-0.1
				c-1,0-2,0.4-3,1.1c-1,0.7-1.8,1.6-2.2,2.6v15.9H98.9z"/>
			<path fill="#3B4F61" d="M120.7,225.6l2.1-2.8c0.8,1,1.9,1.8,3.1,2.5c1.3,0.6,2.6,0.9,4,0.9c1.8,0,3.3-0.5,4.2-1.4
				c1-1,1.5-2.2,1.5-3.6c0-0.8-0.2-1.5-0.5-2.2s-0.8-1.2-1.3-1.7s-1.2-0.9-1.9-1.3c-0.7-0.4-1.4-0.8-2.2-1.1
				c-0.8-0.4-1.6-0.7-2.3-1.1c-0.8-0.4-1.5-0.8-2.2-1.3c-0.7-0.5-1.3-1.1-1.8-1.7c-0.5-0.6-1-1.3-1.3-2.2c-0.3-0.9-0.5-1.8-0.5-2.9
				c0-2.4,0.8-4.3,2.5-5.9s3.8-2.3,6.3-2.3c3.4,0,6.1,1.1,8.2,3.3l-1.9,2.8c-1.6-1.8-3.8-2.7-6.4-2.7c-1.4,0-2.6,0.4-3.6,1.3
				s-1.4,2-1.4,3.3c0,0.9,0.3,1.7,0.8,2.3c0.5,0.7,1.2,1.3,2,1.8s1.7,1,2.7,1.4s2,1,3,1.5c1,0.6,1.9,1.2,2.7,1.9s1.5,1.6,2,2.7
				s0.8,2.4,0.8,3.8c0,1.2-0.2,2.3-0.6,3.3c-0.4,1-1,1.9-1.7,2.7c-0.7,0.8-1.7,1.4-2.9,1.9s-2.6,0.7-4.2,0.7
				C126,229.5,122.9,228.2,120.7,225.6z"/>
			<path fill="#3B4F61" d="M144.4,228.9v-31h15.9v3.2h-12.2v10.3H160v3.2h-11.9v11h12.2v3.2H144.4z"/>
			<path fill="#3B4F61" d="M164.7,213.5c0-3.1,0.5-5.9,1.5-8.3c1-2.4,2.4-4.3,4.2-5.7c1.8-1.4,4-2.1,6.4-2.1c3.9,0,6.9,2,9,6.1
				l-3.1,1.4c-0.7-1.3-1.5-2.3-2.5-3c-1-0.7-2.2-1.1-3.5-1.1c-1.6,0-3.1,0.5-4.3,1.6c-1.3,1.1-2.2,2.6-2.9,4.5c-0.7,1.9-1,4.1-1,6.5
				c0,2.4,0.3,4.6,1,6.5s1.6,3.4,2.9,4.5c1.3,1.1,2.7,1.6,4.3,1.6c1.4,0,2.6-0.4,3.6-1.2c1-0.8,1.8-1.9,2.4-3.3l3.1,1.4
				c-0.5,0.9-1,1.8-1.5,2.5c-0.5,0.7-1.2,1.4-1.9,2c-0.7,0.6-1.6,1.1-2.5,1.5c-1,0.3-2,0.5-3.2,0.5c-2.4,0-4.5-0.7-6.4-2.1
				c-1.8-1.4-3.2-3.3-4.2-5.7C165.2,219.3,164.7,216.6,164.7,213.5z"/>
			<path fill="#3B4F61" d="M188.5,201.2V198h18.3v3.2h-7.3v27.7h-3.7v-27.7H188.5z"/>
			<path fill="#3B4F61" d="M210,219.8c-0.5-1.9-0.8-4-0.8-6.3c0-2.2,0.3-4.3,0.8-6.3s1.3-3.6,2.2-5.1s2.2-2.6,3.7-3.4
				c1.5-0.8,3.2-1.2,5-1.2c1.8,0,3.5,0.4,5,1.2s2.7,2,3.7,3.4c1,1.4,1.7,3.1,2.3,5.1s0.8,4,0.8,6.3c0,2.2-0.3,4.3-0.8,6.3
				s-1.3,3.6-2.3,5.1c-1,1.4-2.2,2.6-3.7,3.4c-1.5,0.8-3.2,1.2-5,1.2c-1.8,0-3.5-0.4-5-1.2c-1.5-0.8-2.7-2-3.7-3.4
				S210.6,221.7,210,219.8z M213.1,213.5c0,2.4,0.3,4.5,0.9,6.4c0.6,1.9,1.5,3.4,2.7,4.6c1.2,1.1,2.6,1.7,4.3,1.7
				c1.7,0,3.1-0.6,4.3-1.7c1.2-1.1,2.1-2.7,2.7-4.6c0.6-1.9,0.9-4,0.9-6.4c0-2.4-0.3-4.6-0.9-6.4c-0.6-1.9-1.5-3.4-2.7-4.5
				c-1.2-1.1-2.7-1.7-4.3-1.7c-1.6,0-3.1,0.6-4.3,1.7c-1.2,1.1-2.1,2.6-2.7,4.5S213.1,211.1,213.1,213.5z"/>
			<path fill="#3B4F61" d="M238.1,228.9v-31h9.5c2.5,0,4.6,0.8,6.1,2.5c1.6,1.7,2.4,3.9,2.4,6.7c0,2.6-0.6,4.6-1.8,6.1
				c-1.2,1.5-2.7,2.4-4.4,2.7l6.5,12.9h-4.2l-5.9-12.4h-4.5v12.4H238.1z M241.8,213.3h5.3c1.6,0,2.8-0.6,3.7-1.7
				c0.9-1.1,1.4-2.6,1.4-4.4s-0.5-3.3-1.4-4.4s-2.2-1.7-3.7-1.7h-5.3V213.3z"/>
		</g>
	</g>
</g>
<g id="Layer_3">
	<g>
		<path fill="#51AADE" d="M226.3,98.7c0,4.7-3.8,8.5-8.5,8.5h-115c-4.7,0-8.5-3.8-8.5-8.5V25.4c0-4.7,3.8-8.5,8.5-8.5h115
			c4.7,0,8.5,3.8,8.5,8.5V98.7z"/>
		<path fill="#FFFFFF" d="M160.3,30.9c-26,0.4-52.9,22.7-52.9,31c0,8.4,27.4,31.3,52.9,31.3c25.5,0,52.9-22.9,52.9-31.3
			C213.2,53.6,186.3,31.3,160.3,30.9z"/>
		<path fill="#51AADE" d="M218.2,14.1c-1.2-3.1-4.3-5.4-7.9-5.4h-42.1c0,0-1.8,0-3.1,0S163,8.1,163,6.6c0-1.2,0-3.2,0-3.2
			c0-1.9-1.5-3.4-3.4-3.4h-39.7c-1.9,0-3.4,1.5-3.4,3.4c0,0,0,1.8,0,3.1s-0.6,2.2-2.1,2.2c-1.5,0-4.2,0-4.2,0
			c-3.6,0-6.7,2.2-7.9,5.4H218.2z"/>
		<path fill="#51AADE" d="M160.3,41.3c-11.5,0-20.8,9.3-20.8,20.8c0,11.5,9.3,20.8,20.8,20.8c11.5,0,20.8-9.3,20.8-20.8
			C181,50.6,171.7,41.3,160.3,41.3z M160.3,70.4c-4.6,0-8.4-3.7-8.4-8.4c0-4.6,3.7-8.4,8.4-8.4s8.4,3.7,8.4,8.4
			C168.6,66.7,164.9,70.4,160.3,70.4z"/>
		<g>
			<path fill="#FFFFFF" d="M224.9,98.7V75.8h-10.5c-11,0-19.8,8.9-19.8,19.8v10.1h23.2C221.7,105.8,224.9,102.6,224.9,98.7z"/>
		</g>
		<path fill="#51AADE" d="M216.2,89h-0.9v-3.2c0-1.4-0.6-2.7-1.5-3.6c-0.4-0.5-0.9-0.8-1.5-1.1c-0.6-0.3-1.1-0.4-1.8-0.4
			c-0.6,0-1.2,0.1-1.8,0.4c-0.8,0.4-1.6,1-2.1,1.8c-0.5,0.8-0.9,1.8-0.9,2.9V89h-0.8c-0.5,0-0.8,0.4-0.8,0.8v9.6
			c0,0.5,0.4,0.8,0.8,0.8h11.1c0.5,0,0.8-0.4,0.8-0.8v-9.6C217.1,89.4,216.7,89,216.2,89z M211.3,94.7V96c0,0.3-0.3,0.6-0.6,0.6
			c-0.3,0-0.6-0.3-0.6-0.6v-1.3c-0.5-0.2-0.8-0.7-0.8-1.3c0-0.8,0.6-1.4,1.4-1.4c0.8,0,1.4,0.6,1.4,1.4
			C212.1,94,211.7,94.4,211.3,94.7z M207.6,89v-3.2c0-1,0.4-1.8,1-2.4c0.3-0.3,0.6-0.5,1-0.7c0.4-0.2,0.7-0.2,1.1-0.2
			c0.3,0,0.7,0.1,1.1,0.2c0.5,0.2,1,0.7,1.4,1.2c0.4,0.5,0.6,1.2,0.6,1.9V89H207.6z"/>
	</g>
</g>
</svg>
