<?xml version="1.0" encoding="utf-8"?>
<!-- Generator: Adobe Illustrator 18.0.0, SVG Export Plug-In . SVG Version: 6.00 Build 0)  -->
<!DOCTYPE svg PUBLIC "-//W3C//DTD SVG 1.1//EN" "http://www.w3.org/Graphics/SVG/1.1/DTD/svg11.dtd">
<svg version="1.1" xmlns="http://www.w3.org/2000/svg" xmlns:xlink="http://www.w3.org/1999/xlink" x="0px" y="0px"
	 viewBox="0 0 321.5 231.2" enable-background="new 0 0 321.5 231.2" xml:space="preserve">
<g id="Layer_1">
	<g>
		<path fill="#D8262E" d="M0.8,164.8c0-7.2,1.7-13.1,5-17.5c3.3-4.4,7.7-6.7,13.2-6.7c6,0,10.6,3,13.8,8.9l-4.4,2.3
			c-1-1.9-2.3-3.4-3.9-4.5s-3.4-1.6-5.4-1.6c-3.7,0-6.7,1.8-9,5.3s-3.4,8.1-3.4,13.8c0,5.7,1.1,10.3,3.4,13.9c2.3,3.5,5.3,5.3,9,5.3
			c1.8,0,3.5-0.4,5.1-1.1c1.5-0.8,2.8-1.7,3.7-2.8v-10.9H16.6v-4.9H33v17.9c-3.7,4.6-8.3,6.9-14,6.9c-3.6,0-6.8-1-9.5-3
			c-2.7-2-4.9-4.9-6.4-8.5C1.6,173.8,0.8,169.6,0.8,164.8z"/>
		<path fill="#D8262E" d="M39.8,171.2c0-3.2,0.5-6.2,1.5-8.8c1-2.6,2.6-4.8,4.7-6.4s4.6-2.5,7.5-2.5c2.9,0,5.4,0.8,7.6,2.5
			c2.1,1.6,3.7,3.8,4.7,6.4c1,2.6,1.5,5.6,1.5,8.8c0,3.3-0.5,6.2-1.5,8.9c-1,2.6-2.6,4.8-4.7,6.5c-2.1,1.7-4.7,2.5-7.6,2.5
			c-2.9,0-5.4-0.8-7.5-2.5s-3.7-3.8-4.7-6.5C40.3,177.4,39.8,174.5,39.8,171.2z M45.1,171.2c0,2.4,0.3,4.6,0.9,6.5
			c0.6,2,1.5,3.6,2.8,4.9c1.3,1.3,2.9,1.9,4.7,1.9c1.4,0,2.7-0.4,3.8-1.1c1.1-0.7,2-1.7,2.7-3c0.7-1.3,1.2-2.7,1.5-4.2
			s0.5-3.2,0.5-5c0-1.8-0.2-3.4-0.5-5c-0.3-1.5-0.8-3-1.5-4.2c-0.7-1.3-1.6-2.2-2.7-3c-1.1-0.7-2.4-1.1-3.8-1.1
			c-1.4,0-2.7,0.4-3.8,1.1c-1.1,0.7-2,1.7-2.6,3c-0.7,1.3-1.2,2.7-1.5,4.2C45.2,167.8,45.1,169.5,45.1,171.2z"/>
		<path fill="#D8262E" d="M73.2,171.2c0-3.2,0.5-6.2,1.5-8.8c1-2.6,2.6-4.8,4.7-6.4s4.6-2.5,7.5-2.5c2.9,0,5.4,0.8,7.6,2.5
			c2.1,1.6,3.7,3.8,4.7,6.4c1,2.6,1.5,5.6,1.5,8.8c0,3.3-0.5,6.2-1.5,8.9c-1,2.6-2.6,4.8-4.7,6.5c-2.1,1.7-4.7,2.5-7.6,2.5
			c-2.9,0-5.4-0.8-7.5-2.5s-3.7-3.8-4.7-6.5C73.7,177.4,73.2,174.5,73.2,171.2z M78.4,171.2c0,2.4,0.3,4.6,0.9,6.5
			c0.6,2,1.5,3.6,2.8,4.9c1.3,1.3,2.9,1.9,4.7,1.9c1.4,0,2.7-0.4,3.8-1.1c1.1-0.7,2-1.7,2.7-3c0.7-1.3,1.2-2.7,1.5-4.2
			s0.5-3.2,0.5-5c0-1.8-0.2-3.4-0.5-5c-0.3-1.5-0.8-3-1.5-4.2c-0.7-1.3-1.6-2.2-2.7-3c-1.1-0.7-2.4-1.1-3.8-1.1
			c-1.4,0-2.7,0.4-3.8,1.1c-1.1,0.7-2,1.7-2.6,3c-0.7,1.3-1.2,2.7-1.5,4.2C78.6,167.8,78.4,169.5,78.4,171.2z"/>
		<path fill="#D8262E" d="M106.5,171.3c0-5.3,1.1-9.6,3.2-12.9c2.2-3.3,5.1-4.9,8.9-4.9c1.8,0,3.4,0.5,5,1.5c1.6,1,2.9,2.4,3.9,4.3
			v-17.8h5v46.7h-5v-4.8c-1,1.7-2.3,3.1-3.9,4.1c-1.6,1-3.3,1.5-5,1.5c-3.7,0-6.7-1.6-8.9-4.8C107.6,181,106.5,176.7,106.5,171.3z
			 M111.8,171.3c0,2.5,0.3,4.7,0.9,6.7c0.6,1.9,1.5,3.5,2.7,4.8c1.2,1.2,2.8,1.8,4.5,1.8c1.6,0,3.1-0.5,4.5-1.6
			c1.4-1.1,2.5-2.4,3.1-3.9v-15.6c-0.7-1.5-1.7-2.8-3.1-3.9s-2.9-1.6-4.5-1.6c-2.6,0-4.7,1.2-6,3.7
			C112.5,164.2,111.8,167.4,111.8,171.3z"/>
		<path fill="#D8262E" d="M142.1,188.2v-46.7h14.3c3.8,0,6.9,1.3,9.2,3.8c2.4,2.5,3.6,5.9,3.6,10.1c0,3.9-0.9,6.9-2.7,9.2
			c-1.8,2.2-4,3.6-6.6,4.1l9.8,19.5h-6.3l-9-18.7h-6.7v18.7H142.1z M147.7,164.6h8.1c2.4,0,4.2-0.8,5.6-2.5c1.4-1.7,2.1-3.9,2.1-6.6
			c0-2.7-0.7-4.9-2.1-6.6c-1.4-1.7-3.3-2.5-5.6-2.5h-8.1V164.6z"/>
		<path fill="#D8262E" d="M174,171.2c0-3.3,0.5-6.3,1.6-8.9c1.1-2.7,2.7-4.8,4.8-6.4c2.1-1.6,4.6-2.4,7.3-2.4c2.9,0,5.3,0.8,7.4,2.4
			c2,1.6,3.6,3.7,4.5,6.4c1,2.6,1.5,5.7,1.5,9v1.6h-21.9c0.1,3.5,1,6.4,2.7,8.6c1.7,2.2,4,3.3,7,3.3c1.5,0,2.9-0.4,4.4-1.1
			c1.4-0.7,2.7-1.7,3.7-3.1l2.7,2.9c-2.9,3.6-6.6,5.4-11.1,5.4c-4.5,0-8-1.7-10.6-5C175.3,180.8,174,176.5,174,171.2z M179.3,169.2
			h16.9c0-1.4-0.2-2.7-0.5-4c-0.3-1.3-0.8-2.5-1.4-3.7s-1.5-2.1-2.6-2.8c-1.1-0.7-2.4-1-3.9-1c-1.4,0-2.7,0.4-3.8,1.1
			c-1.1,0.7-2,1.7-2.6,2.8c-0.6,1.2-1.1,2.4-1.5,3.7S179.3,167.9,179.3,169.2z"/>
		<path fill="#D8262E" d="M209.6,185.9c-2-2.1-2.9-4.8-2.9-8.2s1-6.1,2.9-8.1s4.3-3,7.2-3c1.8,0,3.5,0.4,5.1,1.1
			c1.6,0.7,2.8,1.8,3.9,3.3v-5.9c0-2.3-0.6-4.1-1.8-5.3s-2.9-1.9-5.1-1.9c-3.2,0-6,1.4-8.4,4.1l-2.2-3.6c3.1-3.3,6.9-4.9,11.4-4.9
			c3.5,0,6.2,0.9,8.2,2.7c2,1.8,3,4.6,3,8.3v23.7h-5v-3.7c-1.1,1.5-2.4,2.6-3.9,3.4c-1.6,0.8-3.2,1.1-5,1.1
			C214,189,211.6,188,209.6,185.9z M213.5,172.4c-1.2,1.4-1.8,3.2-1.8,5.3c0,2.2,0.6,3.9,1.8,5.4c1.2,1.4,2.9,2.1,4.9,2.1
			c1.5,0,2.9-0.4,4.2-1.1c1.3-0.7,2.3-1.8,3.1-3.1v-6.4c-0.8-1.4-1.8-2.4-3.1-3.2c-1.3-0.7-2.7-1.1-4.2-1.1
			C216.4,170.3,214.7,171,213.5,172.4z"/>
		<path fill="#D8262E" d="M238.3,171.3c0-5.3,1.1-9.6,3.2-12.9c2.2-3.3,5.1-4.9,8.9-4.9c1.8,0,3.4,0.5,5,1.5c1.6,1,2.9,2.4,3.9,4.3
			v-17.8h5v46.7h-5v-4.8c-1,1.7-2.3,3.1-3.9,4.1c-1.6,1-3.3,1.5-5,1.5c-3.7,0-6.7-1.6-8.9-4.8C239.4,181,238.3,176.7,238.3,171.3z
			 M243.6,171.3c0,2.5,0.3,4.7,0.9,6.7c0.6,1.9,1.5,3.5,2.7,4.8c1.2,1.2,2.8,1.8,4.5,1.8c1.6,0,3.1-0.5,4.5-1.6
			c1.4-1.1,2.5-2.4,3.1-3.9v-15.6c-0.7-1.5-1.7-2.8-3.1-3.9s-2.9-1.6-4.5-1.6c-2.6,0-4.7,1.2-6,3.7
			C244.2,164.2,243.6,167.4,243.6,171.3z"/>
		<path fill="#D8262E" d="M271.9,171.2c0-3.3,0.5-6.3,1.6-8.9c1.1-2.7,2.7-4.8,4.8-6.4c2.1-1.6,4.6-2.4,7.3-2.4
			c2.9,0,5.3,0.8,7.4,2.4c2,1.6,3.6,3.7,4.5,6.4c1,2.6,1.5,5.7,1.5,9v1.6h-21.9c0.1,3.5,1,6.4,2.7,8.6c1.7,2.2,4,3.3,7,3.3
			c1.5,0,2.9-0.4,4.4-1.1c1.4-0.7,2.7-1.7,3.7-3.1l2.7,2.9c-2.9,3.6-6.6,5.4-11.1,5.4c-4.5,0-8-1.7-10.6-5
			C273.2,180.8,271.9,176.5,271.9,171.2z M277.2,169.2H294c0-1.4-0.2-2.7-0.5-4c-0.3-1.3-0.8-2.5-1.4-3.7s-1.5-2.1-2.6-2.8
			c-1.1-0.7-2.4-1-3.9-1c-1.4,0-2.7,0.4-3.8,1.1c-1.1,0.7-2,1.7-2.6,2.8c-0.6,1.2-1.1,2.4-1.5,3.7S277.2,167.9,277.2,169.2z"/>
		<path fill="#D8262E" d="M306.3,188.2v-33.8h5v5.5c1.1-1.9,2.5-3.4,4.2-4.5c1.6-1.1,3.4-1.7,5.4-1.7v5.3c-0.5-0.1-1.1-0.2-1.7-0.2
			c-1.5,0-3,0.6-4.5,1.7c-1.5,1.1-2.7,2.4-3.4,3.9v23.9H306.3z"/>
	</g>
	<g>
		<path fill="#D8262E" d="M85.7,211.7v-2.9h3v-2.7c0-1.9,0.5-3.5,1.5-4.6c1-1.1,2.4-1.7,4.1-1.7c1.6,0,3,0.5,4,1.5l-1.3,2.4
			c-0.6-0.7-1.4-1-2.2-1c-0.9,0-1.6,0.3-2.1,0.9c-0.5,0.6-0.7,1.5-0.7,2.6v2.8h3.8v2.9H92v19.5h-3.3v-19.5H85.7z"/>
		<path fill="#D8262E" d="M98.6,220c0-2.1,0.3-4.1,1-5.8s1.7-3.2,3.1-4.3c1.4-1.1,3.1-1.6,5-1.6c1.9,0,3.6,0.5,5,1.6
			s2.5,2.5,3.1,4.3c0.7,1.7,1,3.7,1,5.9s-0.3,4.1-1,5.9s-1.7,3.2-3.1,4.3s-3.1,1.7-5,1.7c-1.9,0-3.6-0.6-5-1.7s-2.4-2.5-3.1-4.3
			S98.6,222.1,98.6,220z M102.1,220c0,1.6,0.2,3,0.6,4.3s1,2.4,1.9,3.2c0.9,0.9,1.9,1.3,3.1,1.3c1,0,1.8-0.2,2.5-0.7
			c0.7-0.5,1.3-1.2,1.8-2c0.4-0.8,0.8-1.8,1-2.8s0.3-2.1,0.3-3.3c0-1.2-0.1-2.3-0.3-3.3c-0.2-1-0.6-2-1-2.8s-1-1.5-1.8-2
			c-0.7-0.5-1.6-0.7-2.5-0.7c-0.9,0-1.8,0.2-2.5,0.7c-0.7,0.5-1.3,1.1-1.8,2s-0.8,1.8-1,2.8C102.2,217.7,102.1,218.8,102.1,220z"/>
		<path fill="#D8262E" d="M121.8,231.2v-22.4h3.3v3.6c0.8-1.3,1.7-2.2,2.8-3c1.1-0.7,2.3-1.1,3.6-1.1v3.5c-0.4-0.1-0.7-0.1-1.1-0.1
			c-1,0-2,0.4-3,1.1c-1,0.7-1.8,1.6-2.2,2.6v15.9H121.8z"/>
		<path fill="#D8262E" d="M144.4,215.8c0-4.8,1.1-8.7,3.3-11.6c2.2-2.9,5.1-4.4,8.7-4.4c3.9,0,7,2,9.2,5.9l-2.9,1.5
			c-0.7-1.3-1.5-2.3-2.6-3s-2.3-1.1-3.6-1.1c-2.5,0-4.5,1.2-6,3.5c-1.5,2.3-2.3,5.4-2.3,9.2c0,3.8,0.8,6.8,2.3,9.2
			c1.5,2.4,3.5,3.5,6,3.5c1.2,0,2.3-0.3,3.4-0.7c1-0.5,1.8-1.1,2.4-1.9v-7.2h-7.4v-3.2h10.9v11.9c-2.4,3-5.5,4.6-9.3,4.6
			c-2.4,0-4.5-0.7-6.3-2c-1.8-1.3-3.2-3.2-4.2-5.7C144.9,221.7,144.4,218.9,144.4,215.8z"/>
		<path fill="#D8262E" d="M170.2,220c0-2.1,0.3-4.1,1-5.8s1.7-3.2,3.1-4.3c1.4-1.1,3.1-1.6,5-1.6c1.9,0,3.6,0.5,5,1.6
			s2.5,2.5,3.1,4.3c0.7,1.7,1,3.7,1,5.9s-0.3,4.1-1,5.9s-1.7,3.2-3.1,4.3s-3.1,1.7-5,1.7c-1.9,0-3.6-0.6-5-1.7s-2.4-2.5-3.1-4.3
			S170.2,222.1,170.2,220z M173.7,220c0,1.6,0.2,3,0.6,4.3s1,2.4,1.9,3.2c0.9,0.9,1.9,1.3,3.1,1.3c1,0,1.8-0.2,2.5-0.7
			c0.7-0.5,1.3-1.2,1.8-2c0.4-0.8,0.8-1.8,1-2.8s0.3-2.1,0.3-3.3c0-1.2-0.1-2.3-0.3-3.3c-0.2-1-0.6-2-1-2.8s-1-1.5-1.8-2
			c-0.7-0.5-1.6-0.7-2.5-0.7c-0.9,0-1.8,0.2-2.5,0.7c-0.7,0.5-1.3,1.1-1.8,2s-0.8,1.8-1,2.8C173.8,217.7,173.7,218.8,173.7,220z"/>
		<path fill="#D8262E" d="M192.4,220c0-2.1,0.3-4.1,1-5.8s1.7-3.2,3.1-4.3c1.4-1.1,3.1-1.6,5-1.6c1.9,0,3.6,0.5,5,1.6
			s2.5,2.5,3.1,4.3c0.7,1.7,1,3.7,1,5.9s-0.3,4.1-1,5.9s-1.7,3.2-3.1,4.3s-3.1,1.7-5,1.7c-1.9,0-3.6-0.6-5-1.7s-2.4-2.5-3.1-4.3
			S192.4,222.1,192.4,220z M195.8,220c0,1.6,0.2,3,0.6,4.3s1,2.4,1.9,3.2c0.9,0.9,1.9,1.3,3.1,1.3c1,0,1.8-0.2,2.5-0.7
			c0.7-0.5,1.3-1.2,1.8-2c0.4-0.8,0.8-1.8,1-2.8s0.3-2.1,0.3-3.3c0-1.2-0.1-2.3-0.3-3.3c-0.2-1-0.6-2-1-2.8s-1-1.5-1.8-2
			c-0.7-0.5-1.6-0.7-2.5-0.7c-0.9,0-1.8,0.2-2.5,0.7c-0.7,0.5-1.3,1.1-1.8,2s-0.8,1.8-1,2.8C196,217.7,195.8,218.8,195.8,220z"/>
		<path fill="#D8262E" d="M214.5,220c0-3.5,0.7-6.4,2.1-8.5c1.4-2.2,3.4-3.2,5.9-3.2c1.2,0,2.3,0.3,3.3,1s1.9,1.6,2.6,2.8v-11.8h3.3
			v31h-3.3V228c-0.7,1.1-1.5,2.1-2.6,2.7c-1.1,0.7-2.2,1-3.3,1c-2.5,0-4.4-1.1-5.9-3.2C215.2,226.4,214.5,223.6,214.5,220z M218,220
			c0,1.7,0.2,3.1,0.6,4.4c0.4,1.3,1,2.3,1.8,3.2c0.8,0.8,1.8,1.2,3,1.2c1,0,2-0.4,3-1.1c0.9-0.7,1.6-1.6,2.1-2.6v-10.3
			c-0.4-1-1.1-1.9-2.1-2.6c-1-0.7-1.9-1.1-3-1.1c-1.8,0-3.1,0.8-4,2.5C218.4,215.3,218,217.4,218,220z"/>
	</g>
</g>
<g id="Layer_3">
	<g>
		<g>
			<path fill="#51AADE" d="M102.4,105.1c-3.5,0-6.4-2.9-6.4-6.4V25.4c0-3.5,2.9-6.4,6.4-6.4h115c3.5,0,6.4,2.9,6.4,6.4v73.2
				c0,3.5-2.9,6.4-6.4,6.4H102.4z"/>
			<path fill="#D8262E" d="M217.4,21.2c2.3,0,4.3,1.9,4.3,4.3v73.2c0,2.3-1.9,4.3-4.3,4.3h-115c-2.3,0-4.3-1.9-4.3-4.3V25.4
				c0-2.3,1.9-4.3,4.3-4.3H217.4 M217.4,16.9h-115c-4.7,0-8.5,3.8-8.5,8.5v73.2c0,4.7,3.8,8.5,8.5,8.5h115c4.7,0,8.5-3.8,8.5-8.5
				V25.4C225.9,20.7,222.1,16.9,217.4,16.9L217.4,16.9z"/>
		</g>
		<path fill="#FFFFFF" d="M159.9,30.9c-26,0.4-52.9,22.7-52.9,31c0,8.4,27.4,31.3,52.9,31.3c25.5,0,52.9-22.9,52.9-31.3
			C212.8,53.6,185.9,31.3,159.9,30.9z"/>
		<path fill="#D8262E" d="M217.8,14.1c-1.2-3.1-4.3-5.4-7.9-5.4h-42.1c0,0-1.8,0-3.1,0s-2.1-0.5-2.1-2.1c0-1.2,0-3.2,0-3.2
			c0-1.9-1.5-3.4-3.4-3.4h-39.7c-1.9,0-3.4,1.5-3.4,3.4c0,0,0,1.8,0,3.1s-0.6,2.2-2.1,2.2c-1.5,0-4.2,0-4.2,0
			c-3.6,0-6.7,2.2-7.9,5.4H217.8z"/>
		<path fill="#51AADE" d="M159.9,41.3c-11.5,0-20.8,9.3-20.8,20.8c0,11.5,9.3,20.8,20.8,20.8c11.5,0,20.8-9.3,20.8-20.8
			C180.7,50.6,171.4,41.3,159.9,41.3z M159.9,70.4c-4.6,0-8.4-3.7-8.4-8.4c0-4.6,3.7-8.4,8.4-8.4c4.6,0,8.4,3.7,8.4,8.4
			C168.3,66.7,164.5,70.4,159.9,70.4z"/>
		<path fill="#D8262E" d="M105.8,75.8c11,0,19.8,8.9,19.8,19.8v11.5h-23.2c-4.7,0-8.5-3.8-8.5-8.5V75.8H105.8z"/>
		<path fill="#FFFFFF" d="M111.3,86.7v-1.9c0,0-0.3-1.6-2.1-1.6c-1.8,0-2.2,1.5-2.2,1.5v9.4c0,0,0.3,1.6,2.1,1.6
			c1.9,0,2.1-1.5,2.1-1.5v-2.9h-1.8v-2.5h6.6v11.4h-14.3V88.9h2.3v-3.7c0,0-0.1-4.6,5-4.6c4.3,0,4.5,3.9,4.5,3.9v2.1L111.3,86.7z"/>
	</g>
</g>
</svg>
