<?xml version="1.0" encoding="utf-8"?>
<!-- Generator: Adobe Illustrator 18.0.0, SVG Export Plug-In . SVG Version: 6.00 Build 0)  -->
<!DOCTYPE svg PUBLIC "-//W3C//DTD SVG 1.1//EN" "http://www.w3.org/Graphics/SVG/1.1/DTD/svg11.dtd">
<svg version="1.1" id="Layer_1" xmlns="http://www.w3.org/2000/svg" xmlns:xlink="http://www.w3.org/1999/xlink" x="0px" y="0px"
	 viewBox="0 0 250.1 185.9" enable-background="new 0 0 250.1 185.9" xml:space="preserve">
<path fill="#545E66" d="M11.1,185.9C5,185.9,0,181,0,174.8V11.1C0,5,5,0,11.1,0H104c6.1,0,11.1,5,11.1,11.1v163.8
	c0,6.1-5,11.1-11.1,11.1H11.1z"/>
<path fill="#697177" d="M57.5,182.7c-2.8,0-5-2.3-5-5c0-2.8,2.3-5.1,5-5.1c2.8,0,5,2.3,5,5.1C62.6,180.4,60.3,182.7,57.5,182.7z"/>
<rect x="8.5" y="8.1" fill="#3F92BC" width="98.1" height="161.2"/>
<polygon opacity="0.6" fill="#55ACCE" points="8.5,12.1 8.5,8.1 106.6,8.1 106.6,169.3 86.7,169.3 "/>
<g>
	<path opacity="0.5" fill="#DD5252" d="M250.1,100.1c0-34.2-27.7-61.9-61.9-61.9c-9.6,0-18.6,2.2-26.7,6.1l0,0l0,0
		c-5.9,2.8-11.3,6.6-16,11.1l-0.1,0l-90.5,78.9c-1.5,1-2.9,2.2-4.1,3.6l-0.1,0.1l0,0c-3,3.5-4.9,8.1-4.9,13.1c0,11,9,20,20,20
		c0.9,0,1.7-0.1,2.5-0.2l125.3-8.8l-0.6-0.2C225,159.3,250.1,132.6,250.1,100.1z M80.9,137.9C80.9,137.9,80.9,138,80.9,137.9
		C80.9,137.9,80.9,137.9,80.9,137.9C80.9,137.9,80.9,137.9,80.9,137.9z M47.7,151c0-10,8.1-18.1,18.1-18.1S83.9,141,83.9,151
		c0,10-8.1,18.1-18.1,18.1S47.7,161,47.7,151z M188.2,156.2c-31,0-56.1-25.1-56.1-56.1c0-31,25.1-56.1,56.1-56.1
		c31,0,56.1,25.1,56.1,56.1C244.2,131.1,219.1,156.2,188.2,156.2z"/>
	<path fill="#DD5252" d="M65.8,131c-11,0-20,9-20,20c0,11,9,20,20,20c11,0,20-9,20-20C85.8,140,76.8,131,65.8,131z M65.8,169.1
		c-10,0-18.1-8.1-18.1-18.1c0-10,8.1-18.1,18.1-18.1S83.9,141,83.9,151C83.9,161,75.8,169.1,65.8,169.1z"/>
	<path fill="#DD5252" d="M223.6,49.3L223.6,49.3L223.6,49.3c-10-7-22.2-11.1-35.4-11.1c-34.2,0-61.9,27.7-61.9,61.9
		c0,34.2,27.7,61.9,61.9,61.9c34.2,0,61.9-27.7,61.9-61.9C250.1,79.1,239.6,60.5,223.6,49.3z M188.2,156.2
		c-31,0-56.1-25.1-56.1-56.1c0-0.3,0-0.5,0-0.8l85.6-46.8c15.9,9.9,26.5,27.5,26.5,47.6C244.2,131.1,219.1,156.2,188.2,156.2z"/>
	<g>
		<g>
			<path fill="#FFFFFF" d="M162.8,70.7l-9.5-5.8l4.9,8.5l-0.9,0.5l-6-10.2l0.9-0.5l9.4,5.7l-4.9-8.3l0.9-0.5l6,10.2L162.8,70.7z"/>
			<path fill="#FFFFFF" d="M163.4,65.4c-1.3-2.1-1.2-4.5,0.6-5.6c1.9-1.1,3.9,0.1,5.1,2.3l0.1,0.2l-4.9,2.8c1,1.7,2.6,2.5,4,1.7
				c0.7-0.4,1.2-1.1,1.3-2.1l0.7,0.2c-0.1,1.1-0.6,2-1.6,2.6C166.8,68.7,164.7,67.7,163.4,65.4z M164.3,60.5
				c-1.4,0.8-1.1,2.8-0.4,4.1l4.1-2.4C167.3,60.9,165.8,59.7,164.3,60.5z"/>
			<path fill="#FFFFFF" d="M178.4,61.7l-5.4-5.3l2,7.3l-0.8,0.4l-6.3-6.3l0.8-0.5l5.3,5.4l-2-7.3l0.7-0.4l5.4,5.3l-2.1-7.2l0.8-0.5
				l2.3,8.6L178.4,61.7z"/>
		</g>
	</g>
</g>
<path fill="#3F92BC" d="M212,95.6c-6.4,0.1-10.8,3.4-12.9,5.5l-5.3-5.5v14.3h14l-4.6-4.7c1.3-1.4,4.3-4.2,8.9-5
	c12-2.1,18.7,9.7,18.7,9.7C226.5,97.6,216.3,95.5,212,95.6z M210.4,102.6v12.1c0,0-16.4,0.4-19,3.7V95.7c0,0,3.4-4.6,19-4.8v3
	c0.4,0,0.9-0.1,1.3-0.1c0.5,0,1,0,1.6,0v-6.5c0,0-13.8,0.4-18.7,2.4c-4.5,1.8-6.1,5.2-6.4,5.8c-0.3-0.6-1.9-4-6.4-5.8
	c-5-2-18.7-2.4-18.7-2.4v32h2.9v3.1c0,0,18.3-3.8,19.2,3.2h6c0.9-6.9,19.2-3.2,19.2-3.2v-3.1h2.9V102c-0.5,0.1-1.1,0.1-1.6,0.2
	C211.3,102.4,210.9,102.5,210.4,102.6z M185.1,118.4c-2.6-3.3-19-3.7-19-3.7V90.9c15.6,0.2,19,4.8,19,4.8V118.4z"/>
<path fill="#FFFFFF" d="M72.3,148.7c-1.9,0-3.2,1-3.9,1.6l-1.6-1.6v4.3H71l-1.4-1.4c0.4-0.4,1.3-1.3,2.7-1.5
	c3.6-0.6,5.6,2.9,5.6,2.9C76.6,149.4,73.6,148.7,72.3,148.7z M71.8,150.8v3.7c0,0-4.9,0.1-5.7,1.1v-6.8c0,0,1-1.4,5.7-1.4v0.9
	c0.1,0,0.3,0,0.4,0c0.1,0,0.3,0,0.5,0v-1.9c0,0-4.1,0.1-5.6,0.7c-1.4,0.5-1.8,1.6-1.9,1.7c-0.1-0.2-0.6-1.2-1.9-1.7
	c-1.5-0.6-5.6-0.7-5.6-0.7v9.6h0.9v0.9c0,0,5.5-1.1,5.8,0.9H66c0.3-2.1,5.8-0.9,5.8-0.9v-0.9h0.9v-5.2c-0.2,0-0.3,0-0.5,0.1
	C72.1,150.8,71.9,150.8,71.8,150.8z M64.2,155.6c-0.8-1-5.7-1.1-5.7-1.1v-7.2c4.7,0.1,5.7,1.4,5.7,1.4V155.6z"/>
</svg>
