<?xml version="1.0" encoding="utf-8"?>
<!-- Generator: Adobe Illustrator 18.0.0, SVG Export Plug-In . SVG Version: 6.00 Build 0)  -->
<!DOCTYPE svg PUBLIC "-//W3C//DTD SVG 1.1//EN" "http://www.w3.org/Graphics/SVG/1.1/DTD/svg11.dtd">
<svg version="1.1" id="Layer_1" xmlns="http://www.w3.org/2000/svg" xmlns:xlink="http://www.w3.org/1999/xlink" x="0px" y="0px"
	 viewBox="0 0 309 172.1" enable-background="new 0 0 309 172.1" xml:space="preserve">
<path fill="#DD5252" d="M81.2,77.8l29.7,1.1c1.2,0,1.8-1,1.2-2.3l-9.4-20.8c-0.6-1.3-2.1-2.4-3.3-2.4l-29.3-0.6
	c-1.2,0-1.7,1-1.1,2.3l9,20.3C78.6,76.6,80,77.7,81.2,77.8z"/>
<path fill="#DD5252" d="M96,50.1l-10.8-0.2c0,0-0.5,0-0.8,0c-0.3,0-0.6-0.2-0.8-0.6c-0.1-0.3-0.4-0.9-0.4-0.9
	c-0.2-0.5-0.8-0.9-1.3-1l-10-0.2c-0.5,0-0.7,0.4-0.4,0.9c0,0,0.2,0.5,0.4,0.9c0.2,0.4,0.1,0.6-0.3,0.6c-0.4,0-1,0-1,0
	c-0.9,0-1.4,0.6-1.3,1.4l29.5,0.5C98,50.7,96.9,50.1,96,50.1z"/>
<path fill="#DD5252" d="M111.9,85.8l-25.7-1.1c-1.2-0.1-1.6,0.9-1.1,2.2c0.6,1.3,2,2.4,3.1,2.4l25.8,1.2c1.2,0.1,1.7-1,1.1-2.3
	C114.6,87,113.2,85.9,111.9,85.8z"/>
<path fill="#DD5252" d="M125.5,79.5l31.8,1.2c1.3,0,1.9-1,1.3-2.4l-9.9-21.6c-0.6-1.4-2.2-2.5-3.5-2.5l-31.3-0.6
	c-1.2,0-1.8,1-1.2,2.4l9.5,21C122.7,78.3,124.2,79.4,125.5,79.5z"/>
<path fill="#DD5252" d="M141.5,50.8L130,50.6c0,0-0.5,0-0.9,0c-0.4,0-0.6-0.2-0.8-0.6c-0.2-0.3-0.4-0.9-0.4-0.9
	c-0.2-0.5-0.9-1-1.4-1l-10.7-0.2c-0.5,0-0.7,0.4-0.5,1c0,0,0.2,0.5,0.4,0.9c0.2,0.4,0.1,0.6-0.3,0.6c-0.4,0-1.1,0-1.1,0
	c-1,0-1.5,0.6-1.4,1.5l31.5,0.6C143.7,51.5,142.5,50.8,141.5,50.8z"/>
<path fill="#DD5252" d="M158.4,87.9l-27.5-1.2c-1.2-0.1-1.8,1-1.2,2.3c0.6,1.3,2.1,2.5,3.3,2.5l27.6,1.3c1.3,0.1,1.9-1,1.2-2.4
	C161.3,89.1,159.7,87.9,158.4,87.9z"/>
<g>
	<path fill="#50AADF" d="M139.3,12.9c-0.5-2.4-2.6-4.4-4.7-4.4c-2.1,0-3.5,1.9-3,4.3l2.8,14.7h7.7L139.3,12.9z"/>
	<path fill="#50AADF" d="M62.9,17.3c-0.4-2.2-0.1-4.1,0.7-5.5c0.9-1.4,2.2-2.2,4-2.2l31.4,0.4l-10.7,9.8C88,20.1,87.9,20.5,88,21
		c0.1,0.4,0.4,0.9,0.7,1.1l7.9,5.4h5.1l0.6-0.3l-2-2.9l4.7-3.7l-5.9-4.2l1-2.4l-1-0.5l3.8-3.4l12.4,0.2c2,0,4,1,5.6,2.5
		c1.6,1.6,2.9,3.7,3.3,6l1.7,8.6h2.4l-1.7-8.5c-1.2-6.2-6.6-11.3-11.9-11.3l-12.8-0.1l0,0L67.1,7.1c-4.6,0-7.4,4.5-6.2,10.2
		l2.1,10.1h2L62.9,17.3z"/>
	<path fill="#50AADF" d="M155.9,13.2c-0.5-2.5-2.6-4.5-4.9-4.5c-2.2,0-3.6,1.9-3.1,4.4l2.7,14.4h8L155.9,13.2z"/>
	<path fill="#50AADF" d="M51.6,11c-0.5-2.3-2.3-4.1-4.1-4.1l-1,0c-1.8,0-2.8,1.8-2.3,4l3.4,16.5H55L51.6,11z"/>
	<path fill="#50AADF" d="M170.8,13.4c-0.5-2.5-2.7-4.6-5-4.6c-2.3,0-3.8,2-3.3,4.5l2.8,15.1c3.2,1,6.5,2.8,9.3,5.2L170.8,13.4z"/>
	<path fill="#50AADF" d="M183.7,9c-2.4,0-3.9,2-3.5,4.6l8,43.1L202.3,87l-13.5-73.2C188.4,11.2,186.1,9.1,183.7,9z"/>
	<path fill="#50AADF" d="M73.9,21.5c-3.2-0.1-5.2,2.5-5.3,6l12.9,0C80,24.1,76.9,21.6,73.9,21.5z"/>
</g>
<g>
	<path fill="#50AADF" d="M259.4,17c-2.4,0-5,1.9-5.9,4.3l-29.8,80l2.8,15.4l35.7-95.2C263,19,261.8,17,259.4,17z"/>
	<path fill="#50AADF" d="M207.3,11.5l74.9,0.3l-50.5,133.8l1.1,5.9l53.4-141.4c0.2-0.4,0.1-0.9-0.1-1.2c-0.2-0.3-0.6-0.5-1-0.5
		h-78.4L207.3,11.5z"/>
	<path fill="#50AADF" d="M241.7,16.8c-2.3,0-4.8,1.9-5.7,4.2l-18.1,48.8l2.7,14.9l23.6-63.5C245.1,18.8,244,16.9,241.7,16.8z"/>
	<path fill="#50AADF" d="M223.4,16.7c-2.2,0-4.6,1.8-5.5,4.1l-6,16.3l2.6,14.4l11.2-30.5C226.6,18.6,225.6,16.7,223.4,16.7z"/>
	<path fill="#50AADF" d="M208.2,16.8l0.9,4.7l0.3-0.9C210.1,18.8,209.5,17.3,208.2,16.8z"/>
</g>
<path fill="#50AADF" d="M229,143.9l3.1,6.5c0.3-1,0.6-1.9,0.9-2.8L206.6,1.8c-0.1-0.5-0.4-0.9-0.7-1.2C205.5,0.2,205,0,204.6,0H27.4
	c-0.3,0-0.5,0.2-0.7,0.4c-0.1,0.3-0.2,0.6-0.1,1l5.4,26h2.1L29,2.8l174.5,0.7L229,143.9z"/>
<path fill="#50AADF" d="M308,51.4h-38.8c-0.3,0.7-0.6,1.5-0.8,2.2l36.2,0.1l-73.1,95.6c-0.5,1.2,0.3,0.8-0.2,2l0,0
	c0.4,0.1-0.4,0.2,0,0c0.4-0.2,1.2,1.1,1.4,0.8l76.2-99.4c0.2-0.3,0.3-0.6,0.1-0.8C308.8,51.5,308.4,51.4,308,51.4z"/>
<path fill="#50AADF" d="M39.6,76.2l27.8,1.1c1.2,0,1.6-1,1.1-2.3l-8.9-20.2c-0.6-1.3-2-2.3-3.1-2.4l-27.5-0.5c-1.1,0-1.5,1-1,2.2
	l8.5,19.7C37.2,75.1,38.5,76.1,39.6,76.2z M53.4,49.3l-10.1-0.2c0,0-0.4,0-0.7,0c-0.3,0-0.6-0.2-0.7-0.6c-0.1-0.3-0.4-0.9-0.4-0.9
	c-0.2-0.5-0.8-0.9-1.2-0.9l-9.4-0.1c-0.4,0-0.6,0.4-0.4,0.9c0,0,0.2,0.5,0.4,0.8c0.2,0.4,0.1,0.6-0.2,0.6c-0.4,0-1,0-1,0
	c-0.8,0-1.3,0.6-1.2,1.4l27.6,0.5C55.3,50,54.3,49.3,53.4,49.3z M161.4,27.4H6.5c-5.8,0-8.1,5.4-5.2,12.1l43.8,102.2
	c3,7,10.4,13.2,16.6,13.8l166.9,16.5c8,0.8,11.4-5.1,7.7-13.2l-55-117.5C177.7,33.6,168.8,27.4,161.4,27.4z M233,158.5
	c1.5,3.1,1.5,5.8,0.4,7.7c-1.1,1.9-3.3,2.8-6.3,2.5L60.4,152.6c-2.4-0.2-5-1.5-7.4-3.5c-2.3-1.9-4.3-4.5-5.5-7.2L3.6,39.6
	c-1.1-2.6-1.2-4.9-0.5-6.6c0.7-1.7,2.3-2.7,4.5-2.7l155.2,0.3c2.9,0,6,1.2,8.8,3.1c2.8,2,5.2,4.6,6.6,7.6L233,158.5z M194.9,93.1
	c-3.1-0.1-4.4,2.3-2.9,5.4c1.5,3.2,5.2,5.8,8.3,6c3.1,0.2,4.4-2.3,3-5.4C201.7,95.9,198,93.2,194.9,93.1z M159.8,36.7l-152.3-1
	c-0.3,0-0.6,0.1-0.7,0.4c-0.1,0.3-0.1,0.6,0.1,1L53.4,145c0.2,0.4,0.5,0.8,0.8,1.1c0.4,0.3,0.7,0.5,1.1,0.5l162.5,15
	c0.4,0,0.8-0.1,0.9-0.4c0.2-0.3,0.1-0.7-0.1-1.1L162,38.3c-0.2-0.4-0.5-0.8-1-1.1C160.7,36.9,160.2,36.7,159.8,36.7z M214.6,158.2
	L55.3,143.8L9.9,38.5l149.9,1.3L214.6,158.2z M68.5,83.9l-24.1-1c-1.1,0-1.5,0.9-1,2.2c0.5,1.2,1.9,2.3,3,2.3l24.2,1.1
	c1.1,0.1,1.6-0.9,1-2.2C71,85.1,69.6,84,68.5,83.9z M89.7,132.3l-24.7-2c-1.1-0.1-1.6,0.9-1,2.1c0.6,1.3,1.9,2.4,3,2.5l24.8,2.1
	c1.2,0.1,1.7-0.9,1.1-2.2C92.3,133.5,90.9,132.4,89.7,132.3z M53.9,97.6l12.5,28.6l18.2,1.4L71.8,98.6L53.9,97.6z M134.4,135.8
	l-26.4-2.1c-1.2-0.1-1.7,0.9-1.1,2.2c0.6,1.3,2,2.5,3.2,2.6l26.5,2.2c1.3,0.1,1.8-0.9,1.2-2.2C137.1,137.1,135.6,135.9,134.4,135.8z
	 M96.3,99.9l13.1,29.6l19.4,1.5l-13.5-30L96.3,99.9z M182.1,139.6l-28.3-2.2c-1.3-0.1-1.8,0.9-1.2,2.3c0.6,1.4,2.2,2.5,3.4,2.7
	l28.4,2.3c1.3,0.1,1.9-0.9,1.3-2.3C185.1,141,183.5,139.7,182.1,139.6z M141.6,102.4l13.9,30.6l20.8,1.6L162,103.5L141.6,102.4z"/>
</svg>
