<?xml version="1.0" encoding="utf-8"?>
<!-- Generator: Adobe Illustrator 18.0.0, SVG Export Plug-In . SVG Version: 6.00 Build 0)  -->
<!DOCTYPE svg PUBLIC "-//W3C//DTD SVG 1.1//EN" "http://www.w3.org/Graphics/SVG/1.1/DTD/svg11.dtd">
<svg version="1.1" id="Layer_1" xmlns="http://www.w3.org/2000/svg" xmlns:xlink="http://www.w3.org/1999/xlink" x="0px" y="0px"
	 viewBox="0 0 169.1 175.6" enable-background="new 0 0 169.1 175.6" xml:space="preserve">
<path fill="#50AADF" d="M136.9,95.8c0,1.4-1.1,2.5-2.5,2.5H66.5c-1.4,0-2.5-1.1-2.5-2.5c0-1.4,1.1-2.5,2.5-2.5h67.9
	C135.8,93.4,136.9,94.5,136.9,95.8z"/>
<path fill="#DD5252" d="M136.9,108.9c0,1.4-1.1,2.5-2.5,2.5H66.5c-1.4,0-2.5-1.1-2.5-2.5c0-1.4,1.1-2.5,2.5-2.5h67.9
	C135.8,106.5,136.9,107.6,136.9,108.9z"/>
<path fill="#50AADF" d="M136.9,122c0,1.4-1.1,2.5-2.5,2.5H66.5c-1.4,0-2.5-1.1-2.5-2.5c0-1.4,1.1-2.5,2.5-2.5h67.9
	C135.8,119.5,136.9,120.7,136.9,122z"/>
<path fill="#DD5252" d="M57.2,116.3c-0.1-0.1-0.1-0.2-0.2-0.3l0,0c-0.4-0.5-1.1-0.6-1.6-0.4c-0.1,0.1-0.2,0.1-0.3,0.2l0,0
	c-0.2,0.1-1.9,1.6-3.1,4.6c-1-7.6-1.3-19.2,2.6-32.5c0.1-0.3,0.1-0.6-0.1-0.9c-0.2-0.4-0.5-0.7-0.9-0.8c-0.3-0.1-0.6-0.1-0.9,0.1
	c-0.4,0.2-0.7,0.5-0.8,0.9c-3.8,13-3.7,24.5-2.8,32.3c-1.1-1.8-2.1-3.2-3-4.2c-0.2-0.2-0.9-0.1-1.3,1c-0.4,1.2,0.2,1.8,0.4,2
	c4.6,5,6.2,12.5,6.2,12.5l0,0.1c0.3,0.6,1,1,1.6,0.8l0,0l0,0c0,0,0,0,0,0l0,0l0.2-0.1c0.6-0.3,0.9-0.9,0.8-1.5
	c-0.9-4.2-0.2-7.2,0.7-9.2c0.9-2,2-3,2.1-3C57.3,117.5,57.4,116.9,57.2,116.3z M41.4,115.1L41.4,115.1L41.4,115.1L41.4,115.1z"/>
<path fill="#DD5252" d="M157.1,69.4c-2.1-1.4-4.5-2.4-6.8-3.3c-3.1-1.1-6.2-2.1-9.3-3.1c-15.5-4.5-31.9-6.8-48.2-7.8
	c-1.9-0.1-1.9,2.4,0,2.5c3.7,0.2,7.5,0.5,11.2,0.9c-7,0-13.9,0.2-20.9,0.9c-7.5,0.7-15,1.8-22.2,3.8c-5.2,1.5-12.4,4.3-13.4,9.7
	c-0.9,5,5.4,7.7,9.8,9c7.1,2.1,15.1,2.5,22.6,2.7c8.6,0.3,17.3,0,26-0.2c16.4-0.4,33-1.8,48.7-6.1c2.3-0.6,4.7-1.8,5.5-3.9
	C160.7,72.5,158.8,70.6,157.1,69.4z M157.1,73.9c-0.5,2-4.5,2.4-6.2,2.8c-4.2,0.9-8.2,2-12.5,2.7c-17,2.8-34.6,3-51.8,3
	c-8.6,0-17.2-0.3-25.6-2c-2.5-0.5-4.9-1.2-7.1-2.3c-1.8-0.9-4-2.4-3.6-4.5c0.6-3.5,5.5-5.6,8.8-6.8c4.1-1.5,8.5-2.3,12.8-3.1
	c12.8-2.2,25.9-2.8,39-2.3c1.2,0,1.6-1,1.3-1.7c10.9,1.5,21.6,3.7,32,7c2.7,0.9,5.5,1.8,8,2.9C153.7,70.3,157.6,72,157.1,73.9z"/>
<path fill="#DD5252" d="M144.3,148.3c-0.7-0.7-1.7-0.8-2.4-0.8c-0.3,0-0.7,0-1,0c-0.2,0-0.4,0-0.5,0c-2.2,0-4.5,0.1-6.7,0.2l-1.6,0
	c-3.3,0.1-6.3,0.1-9,0.1c-2.6,0-5,0-7.4-0.1l-0.8,0c-1.8-0.1-3.5-0.1-5.3-0.2c2.1,0,4.5-0.1,6.8-0.6c1.5-0.3,3-0.8,4.4-1.5
	c0.7-0.4,3-1.5,3.3-3.8c0.1-1-0.2-1.7-0.6-2.1c-0.6-0.7-1.7-1.1-3.2-1.1h-0.1c-2.1,0-4.2,0.2-6.1,0.3c-2.7,0.2-5.3,0.6-7.8,1.2
	c-1.3,0.3-2.6,0.6-3.8,1c-0.5-0.8-1-1.5-1.6-2c-0.3-0.2-0.6-0.4-0.9-0.4c-0.3,0-0.7,0.1-0.9,0.3c-0.5,0.4-0.8,0.9-0.9,1.6
	c-0.4,0-0.8,0.1-1.1,0.2c-1,0.2-1.8,0.7-2.6,1.1c-0.4,0.2-0.7,0.4-1.1,0.5c-0.3,0.1-0.5,0.2-0.8,0.3c-1.1,0.5-2.2,0.9-3.2,1.7
	c-0.4,0.3-0.7,0.5-0.9,0.8l-0.1-0.1l-0.1-0.2c-0.1-0.2-0.3-0.5-0.6-0.8c-0.4-0.4-0.9-0.6-1.5-0.6l-0.4,0c-1,0.2-1.7,0.8-2.2,1.4
	l-0.2,0.3l0,0c-0.1-0.4-0.2-1-0.5-1.5c-0.4-0.6-1-1-1.7-1c-0.8,0-1.6,0.5-2.1,1c-1-1.4-2.8-2.2-5.2-2.3c-0.3,0-0.6,0-0.9,0
	c-0.8,0-1.7,0.1-2.6,0.3c-0.1-0.1-0.3-0.1-0.5-0.2c-1.7-0.7-3.3-1.4-4.6-2.5c-0.8-0.6-1.2-1.2-1.5-1.8c-0.2-0.6-0.2-1.4,0-2.2
	c0.5-1.7,1.7-3.3,3.2-4.1c0.9-0.5,2.1-0.8,3.4-0.8c0.5,0,1.1,0,1.6,0.1c1.5,0.2,2.7,1.4,3.7,2.7c0.3,0.3,0.7,0.5,1.1,0.5
	c0.5,0,1-0.3,1.3-0.8c0.2-0.5,0.2-1.1-0.2-1.5c-1.3-1.7-2.8-3.2-5.1-3.6c-0.8-0.1-1.5-0.2-2.3-0.2c-1.5,0-2.9,0.3-4.2,0.8
	c-2,0.9-3.7,2.6-4.7,5c-1.1,2.5-0.9,5,0.5,6.7c1.2,1.5,2.9,2.5,4.5,3.2c-1.7,0.8-3.4,2-5.1,3.4c-2,1.7-3.4,3.3-4.3,4.9
	c-1,1.8-1.4,3.9-1,6c0.6,3.6,3.4,7.1,7.5,9.2c2.1,1.1,4.5,1.7,6.9,1.7c1.7,0,3.4-0.3,5.1-0.9c2.1-0.8,3.8-2,5.1-3.6
	c1.4-1.8,2.1-4,2.1-6.4c-0.1-2.7-1-5.5-2.8-8c0.3-0.8,0.2-1.7,0.1-2.3l0-0.1l0,0c0.1-0.2,0.3-0.4,0.4-0.6c0.1,0.3,0.1,0.6,0.3,1
	c0.4,0.8,1.2,1.4,2.1,1.4c0.2,0,0.4,0,0.5-0.1c0.8-0.2,1.4-0.8,1.9-1.2l0.2-0.2l0.1-0.1l0.3-0.3c0.1,0.2,0.2,0.3,0.3,0.5
	c0.4,0.4,0.9,0.6,1.3,0.8c0.1,0.4,0.3,0.8,0.6,1c0.6,0.5,1.3,0.7,1.8,0.8c0.7,0.2,1.5,0.2,2.1,0.2c0.5,0,0.9,0,1.3,0
	c1.1,0,2.1-0.1,3.1-0.2c0.4-0.1,1-0.1,1.6-0.4c0.5-0.3,0.8-0.7,1-1l0.2,0.1c0.4,0.3,0.8,0.5,1.2,0.5l0.1,0l0.1,0
	c0.2,0.1,0.4,0.1,0.5,0.2l0,0.1c-0.1,0.4-0.2,0.8-0.3,1.2l0,0.2c-0.5,0.5-0.7,1.3-0.4,2.2c0.1,0.3,0.2,0.5,0.4,0.6
	c-0.2,0.7-0.5,1.5-0.9,2.3c-0.2,0.1-0.5,0.2-0.8,0.3c-1,0.3-2.1,0.5-3.3,0.7c-0.3,0.1-0.7,0.1-1,0.2c-2.2,0.4-4.1,1.4-5.5,2.8
	c-1.5,1.5-2.5,4.1-1.2,6.3c0.6,1.1,1.8,1.8,3.1,1.8c1.1,0,2.2-0.4,2.8-0.7c1.7-0.8,3.3-2.2,4.9-4.2c1.1-1.5,2.2-3.2,3.1-5.1
	c1.1-0.8,1.8-1.8,2-3.1c0.1-0.7,0.1-1.6-0.1-2.5c0.1-0.7,0.1-1.4,0.1-2.1l0.2-0.2c3.3,0.6,6.7,0.7,10,0.8l0.5,0
	c2.7,0.1,5.6,0.1,8.4,0.1c2.4,0,4.9,0,7.4-0.1c1,0,2,0,3-0.1c1.6,0,3.3-0.1,4.9-0.1l0.6,0c0.8,0,1.7,0,2.6-0.1l0.2,0
	c0,0.3,0.2,0.5,0.3,0.8c0.3,0.3,0.6,0.4,1,0.4c0.7,0,1.3-0.6,1.4-1.3C145,149.3,144.6,148.7,144.3,148.3z M96.1,145.6
	c-0.3,0-0.7,0-0.9,0h0c-0.6,0-1.2,0-1.9-0.1l-0.2,0c0.2-0.1,0.4-0.2,0.5-0.2c0.4-0.2,0.9-0.4,1.3-0.6c0.3-0.1,0.5-0.3,0.8-0.4
	c0.2-0.1,0.4-0.2,0.7-0.3c-0.1,0.2-0.2,0.5-0.3,0.8C96.1,144.9,96,145.2,96.1,145.6z M108.4,144.7c-0.3,0-0.6,0-0.8,0l-0.7,0
	c-0.7,0-1.3,0-2,0c-0.3,0-0.6,0-1-0.1l0-0.2c0-0.3-0.1-0.6-0.2-0.9c0.7-0.2,1.4-0.4,2.2-0.6c1.2-0.3,2.4-0.5,3.7-0.8
	c2.4-0.4,4.9-0.7,7.7-0.8c0.7,0,1.5-0.1,2.2-0.1l0.3,0c0.2,0,0.3,0,0.5,0c0.2,0,0.6,0,0.8,0.1l-0.1,0.2c-0.2,0.4-0.7,0.8-1.1,1
	c-1.6,1-3.7,1.7-6.6,2C112,144.7,110.4,144.7,108.4,144.7z M76.6,145c-0.2-0.2-0.4-0.4-0.7-0.5c0.5,0.2,0.9,0.5,1.2,0.9l0.1,0.1
	C77,145.4,76.8,145.2,76.6,145z M70.8,165.2c-2.2,0-4.5-0.6-6.4-1.8c-2.7-1.6-5.5-4.6-5.4-8.1c0-1.5,0.7-2.9,2.2-4.6
	c1.4-1.6,2.8-2.9,4.6-4.1c1.5-1,3.1-1.8,4.5-2.2c1,0.4,2,1,3,1.6c3.8,2.5,6.4,6.3,6.8,10.2c0.3,2-0.2,3.8-1.2,5.3
	c-1.2,1.7-3,2.6-4.2,3C73.4,165,72.1,165.2,70.8,165.2z M91.6,164.9c-0.4,0-0.5-0.1-0.6-0.2c-0.3-0.3-0.4-0.9-0.3-1.4
	c0.5-2,2.6-3,3.6-3.4c0.8-0.3,1.7-0.4,2.7-0.6c0.5-0.1,1-0.1,1.4-0.2c-0.5,0.8-1,1.6-1.6,2.3c-1.4,1.7-2.8,2.8-4.2,3.3
	C92.2,164.8,91.9,164.9,91.6,164.9z"/>
<path fill="#50AADF" d="M116.5,1.4l-0.8,1.1c19,13.8,37,30.8,50.9,51l1.2-0.8l1-1c-8.8-9.2-20.8-14.3-34.8-14.3
	c-0.9,0-1.7,0-2.6,0.1l0.1,1.4l1.4,0.1c0.2-1.9,0.3-3.7,0.3-5.5c0-7.4-1.6-13.8-4.4-19.2c-2.8-5.4-6.7-10-11.3-14L116.5,1.4
	l-0.8,1.1L116.5,1.4l-0.9,1.1c4.3,3.8,8,8.1,10.6,13.1c2.6,5.1,4.1,10.9,4.1,17.9c0,1.7-0.1,3.4-0.3,5.2c0,0.4,0.1,0.8,0.4,1.1
	c0.3,0.3,0.7,0.5,1.1,0.4c0.8,0,1.6-0.1,2.5-0.1c13.3,0,24.5,4.8,32.8,13.4c0.5,0.5,1.3,0.6,1.9,0.1c0.6-0.5,0.7-1.3,0.3-1.9
	c-14.1-20.5-32.4-37.7-51.6-51.7c-0.6-0.4-1.5-0.3-1.9,0.3c-0.5,0.6-0.4,1.5,0.2,2L116.5,1.4z"/>
<path fill="#50AADF" d="M116.5,1.4l-0.8,1.1c19,13.8,37,30.8,50.9,51l1.2-0.8l1-1c-8.8-9.2-20.8-14.3-34.8-14.3
	c-0.9,0-1.7,0-2.6,0.1l0.1,1.4l1.4,0.1c0.2-1.9,0.3-3.7,0.3-5.5c0-7.4-1.6-13.8-4.4-19.2c-2.8-5.4-6.7-10-11.3-14L116.5,1.4
	l-0.8,1.1L116.5,1.4l-0.9,1.1c4.3,3.8,8,8.1,10.6,13.1c2.6,5.1,4.1,10.9,4.1,17.9c0,1.7-0.1,3.4-0.3,5.2c0,0.4,0.1,0.8,0.4,1.1
	c0.3,0.3,0.7,0.5,1.1,0.4c0.8,0,1.6-0.1,2.5-0.1c13.3,0,24.5,4.8,32.8,13.4c0.5,0.5,1.3,0.6,1.9,0.1c0.6-0.5,0.7-1.3,0.3-1.9
	c-14.1-20.5-32.4-37.7-51.6-51.7c-0.6-0.4-1.5-0.3-1.9,0.3c-0.5,0.6-0.4,1.5,0.2,2L116.5,1.4z"/>
<path fill="#50AADF" d="M1.4,13.6V15h116.1v36.7H2.8V13.6H1.4V15V13.6H0V53c0,0.4,0.2,0.7,0.4,1c0.3,0.3,0.6,0.4,1,0.4h117.5
	c0.4,0,0.7-0.2,1-0.4c0.3-0.3,0.4-0.6,0.4-1V13.6c0-0.4-0.2-0.7-0.4-1c-0.3-0.3-0.6-0.4-1-0.4H1.4c-0.4,0-0.7,0.2-1,0.4
	c-0.3,0.3-0.4,0.6-0.4,1H1.4z"/>
<path fill="#50AADF" d="M32.1,19.5h8.6c2.5,0,4.5,0.8,5.8,2.3c1.4,1.5,2,3.6,2,6.4c0,2.8-0.7,4.9-2,6.4c-1.4,1.5-3.3,2.2-5.8,2.2
	h-3.4V46h-5.2V19.5 M37.2,24.4v7.4h2.9c1,0,1.8-0.3,2.3-1c0.5-0.6,0.8-1.6,0.8-2.7c0-1.2-0.3-2.1-0.8-2.7c-0.5-0.6-1.3-1-2.3-1H37.2
	 M57.3,24.7v16.1h1.8c2.1,0,3.7-0.7,4.8-2.1c1.1-1.4,1.7-3.4,1.7-6c0-2.6-0.6-4.6-1.7-6c-1.1-1.4-2.7-2.1-4.8-2.1H57.3 M52.2,19.5
	h5.4c3,0,5.3,0.3,6.8,0.9c1.5,0.6,2.8,1.5,3.8,2.9c0.9,1.2,1.6,2.6,2.1,4.1c0.5,1.6,0.7,3.3,0.7,5.3c0,2-0.2,3.8-0.7,5.4
	c-0.5,1.6-1.2,2.9-2.1,4.1c-1.1,1.4-2.4,2.3-3.9,2.9c-1.5,0.6-3.7,0.8-6.7,0.8h-5.4V19.5 M74.9,19.5h13.9v5.2H80v4.9h8.2v5.2H80V46
	h-5.2V19.5"/>
<path fill="#50AADF" d="M116.5,1.4V0H37.5c-0.4,0-0.7,0.2-1,0.4c-0.3,0.3-0.4,0.6-0.4,1v12.1c0,0.4,0.2,0.7,0.4,1
	c0.3,0.3,0.6,0.4,1,0.4h80v36.7l-80,0c-0.4,0-0.7,0.2-1,0.4c-0.3,0.3-0.4,0.6-0.4,1v121.1c0,0.4,0.2,0.7,0.4,1
	c0.3,0.3,0.6,0.4,1,0.4h130.2c0.4,0,0.7-0.2,1-0.4c0.3-0.3,0.4-0.6,0.4-1V52.7c0-0.3-0.1-0.6-0.2-0.8C155,31.5,134.9,12.8,117.3,0.3
	c-0.2-0.2-0.5-0.3-0.8-0.3V1.4l-0.8,1.2c17.4,12.4,37.3,30.9,50.9,50.9l1.2-0.8h-1.4v120H39V54.5h80c0.4,0,0.7-0.2,1-0.4
	c0.3-0.3,0.4-0.6,0.4-1V13.6c0-0.4-0.2-0.7-0.4-1c-0.3-0.3-0.6-0.4-1-0.4H39V2.8h77.5V1.4l-0.8,1.2L116.5,1.4z"/>
<path fill="#50AADF" d="M135.9,72.9c0,1.6-1.3,2.8-2.8,2.8H63.8c-1.6,0-2.8-1.3-2.8-2.8V72c0-1.6,1.3-2.8,2.8-2.8h69.3
	c1.6,0,2.8,1.3,2.8,2.8V72.9z"/>
</svg>
