<?xml version="1.0" encoding="utf-8"?>
<!-- Generator: Adobe Illustrator 18.0.0, SVG Export Plug-In . SVG Version: 6.00 Build 0)  -->
<!DOCTYPE svg PUBLIC "-//W3C//DTD SVG 1.1//EN" "http://www.w3.org/Graphics/SVG/1.1/DTD/svg11.dtd">
<svg version="1.1" id="Layer_3" xmlns="http://www.w3.org/2000/svg" xmlns:xlink="http://www.w3.org/1999/xlink" x="0px" y="0px"
	 viewBox="0 0 427.3 265.4" enable-background="new 0 0 427.3 265.4" xml:space="preserve">
<g>
	<g>
		<path fill="#3B4F61" d="M0.5,241c0-7.2,1.7-13.1,5-17.5c3.3-4.4,7.7-6.7,13.2-6.7c6,0,10.6,3,13.8,8.9L28,228
			c-1-1.9-2.3-3.4-3.9-4.5s-3.4-1.6-5.4-1.6c-3.7,0-6.7,1.8-9,5.3s-3.4,8.1-3.4,13.8c0,5.7,1.1,10.3,3.4,13.9c2.3,3.5,5.3,5.3,9,5.3
			c1.8,0,3.5-0.4,5.1-1.1c1.5-0.8,2.8-1.7,3.7-2.8v-10.9H16.2v-4.9h16.4v17.9c-3.7,4.6-8.3,6.9-14,6.9c-3.6,0-6.8-1-9.5-3
			c-2.7-2-4.9-4.9-6.4-8.5C1.2,250,0.5,245.8,0.5,241z"/>
		<path fill="#3B4F61" d="M39.4,247.4c0-3.2,0.5-6.2,1.5-8.8c1-2.6,2.6-4.8,4.7-6.4s4.6-2.5,7.5-2.5c2.9,0,5.4,0.8,7.6,2.5
			c2.1,1.6,3.7,3.8,4.7,6.4c1,2.6,1.5,5.6,1.5,8.8c0,3.3-0.5,6.2-1.5,8.9c-1,2.6-2.6,4.8-4.7,6.5c-2.1,1.7-4.7,2.5-7.6,2.5
			c-2.9,0-5.4-0.8-7.5-2.5s-3.7-3.8-4.7-6.5C39.9,253.6,39.4,250.6,39.4,247.4z M44.7,247.4c0,2.4,0.3,4.6,0.9,6.5
			c0.6,2,1.5,3.6,2.8,4.9c1.3,1.3,2.9,1.9,4.7,1.9c1.4,0,2.7-0.4,3.8-1.1c1.1-0.7,2-1.7,2.7-3c0.7-1.3,1.2-2.7,1.5-4.2
			s0.5-3.2,0.5-5c0-1.8-0.2-3.4-0.5-5c-0.3-1.5-0.8-3-1.5-4.2c-0.7-1.3-1.6-2.2-2.7-3c-1.1-0.7-2.4-1.1-3.8-1.1
			c-1.4,0-2.7,0.4-3.8,1.1c-1.1,0.7-2,1.7-2.6,3c-0.7,1.3-1.2,2.7-1.5,4.2C44.9,244,44.7,245.6,44.7,247.4z"/>
		<path fill="#3B4F61" d="M72.8,247.4c0-3.2,0.5-6.2,1.5-8.8c1-2.6,2.6-4.8,4.7-6.4s4.6-2.5,7.5-2.5c2.9,0,5.4,0.8,7.6,2.5
			c2.1,1.6,3.7,3.8,4.7,6.4c1,2.6,1.5,5.6,1.5,8.8c0,3.3-0.5,6.2-1.5,8.9c-1,2.6-2.6,4.8-4.7,6.5c-2.1,1.7-4.7,2.5-7.6,2.5
			c-2.9,0-5.4-0.8-7.5-2.5s-3.7-3.8-4.7-6.5C73.3,253.6,72.8,250.6,72.8,247.4z M78,247.4c0,2.4,0.3,4.6,0.9,6.5
			c0.6,2,1.5,3.6,2.8,4.9c1.3,1.3,2.9,1.9,4.7,1.9c1.4,0,2.7-0.4,3.8-1.1c1.1-0.7,2-1.7,2.7-3c0.7-1.3,1.2-2.7,1.5-4.2
			s0.5-3.2,0.5-5c0-1.8-0.2-3.4-0.5-5c-0.3-1.5-0.8-3-1.5-4.2c-0.7-1.3-1.6-2.2-2.7-3c-1.1-0.7-2.4-1.1-3.8-1.1
			c-1.4,0-2.7,0.4-3.8,1.1c-1.1,0.7-2,1.7-2.6,3c-0.7,1.3-1.2,2.7-1.5,4.2C78.2,244,78,245.6,78,247.4z"/>
		<path fill="#3B4F61" d="M106.1,247.4c0-5.3,1.1-9.6,3.2-12.9c2.2-3.3,5.1-4.9,8.9-4.9c1.8,0,3.4,0.5,5,1.5c1.6,1,2.9,2.4,3.9,4.3
			v-17.8h5v46.7h-5v-4.8c-1,1.7-2.3,3.1-3.9,4.1c-1.6,1-3.3,1.5-5,1.5c-3.7,0-6.7-1.6-8.9-4.8C107.2,257.1,106.1,252.8,106.1,247.4z
			 M111.4,247.4c0,2.5,0.3,4.7,0.9,6.7c0.6,1.9,1.5,3.5,2.7,4.8c1.2,1.2,2.8,1.8,4.5,1.8c1.6,0,3.1-0.5,4.5-1.6
			c1.4-1.1,2.5-2.4,3.1-3.9v-15.6c-0.7-1.5-1.7-2.8-3.1-3.9s-2.9-1.6-4.5-1.6c-2.6,0-4.7,1.2-6,3.7
			C112.1,240.3,111.4,243.5,111.4,247.4z"/>
		<path fill="#3B4F61" d="M141.7,264.3v-46.7H156c3.8,0,6.9,1.3,9.2,3.8c2.4,2.5,3.6,5.9,3.6,10.1c0,3.9-0.9,6.9-2.7,9.2
			c-1.8,2.2-4,3.6-6.6,4.1l9.8,19.5H163l-9-18.7h-6.7v18.7H141.7z M147.3,240.7h8.1c2.4,0,4.2-0.8,5.6-2.5c1.4-1.7,2.1-3.9,2.1-6.6
			c0-2.7-0.7-4.9-2.1-6.6c-1.4-1.7-3.3-2.5-5.6-2.5h-8.1V240.7z"/>
		<path fill="#3B4F61" d="M173.6,247.4c0-3.3,0.5-6.3,1.6-8.9c1.1-2.7,2.7-4.8,4.8-6.4c2.1-1.6,4.6-2.4,7.3-2.4
			c2.9,0,5.3,0.8,7.4,2.4c2,1.6,3.6,3.7,4.5,6.4c1,2.6,1.5,5.7,1.5,9v1.6h-21.9c0.1,3.5,1,6.4,2.7,8.6c1.7,2.2,4,3.3,7,3.3
			c1.5,0,2.9-0.4,4.4-1.1c1.4-0.7,2.7-1.7,3.7-3.1l2.7,2.9c-2.9,3.6-6.6,5.4-11.1,5.4c-4.5,0-8-1.7-10.6-5
			C174.9,256.9,173.6,252.6,173.6,247.4z M178.9,245.3h16.9c0-1.4-0.2-2.7-0.5-4c-0.3-1.3-0.8-2.5-1.4-3.7s-1.5-2.1-2.6-2.8
			c-1.1-0.7-2.4-1-3.9-1c-1.4,0-2.7,0.4-3.8,1.1c-1.1,0.7-2,1.7-2.6,2.8c-0.6,1.2-1.1,2.4-1.5,3.7S178.9,244,178.9,245.3z"/>
		<path fill="#3B4F61" d="M209.2,262.1c-2-2.1-2.9-4.8-2.9-8.2s1-6.1,2.9-8.1s4.3-3,7.2-3c1.8,0,3.5,0.4,5.1,1.1
			c1.6,0.7,2.8,1.8,3.9,3.3v-5.9c0-2.3-0.6-4.1-1.8-5.3s-2.9-1.9-5.1-1.9c-3.2,0-6,1.4-8.4,4.1l-2.2-3.6c3.1-3.3,6.9-4.9,11.4-4.9
			c3.5,0,6.2,0.9,8.2,2.7c2,1.8,3,4.6,3,8.3v23.7h-5v-3.7c-1.1,1.5-2.4,2.6-3.9,3.4c-1.6,0.8-3.2,1.1-5,1.1
			C213.6,265.2,211.2,264.1,209.2,262.1z M213.1,248.6c-1.2,1.4-1.8,3.2-1.8,5.3c0,2.2,0.6,3.9,1.8,5.4c1.2,1.4,2.9,2.1,4.9,2.1
			c1.5,0,2.9-0.4,4.2-1.1c1.3-0.7,2.3-1.8,3.1-3.1v-6.4c-0.8-1.4-1.8-2.4-3.1-3.2c-1.3-0.7-2.7-1.1-4.2-1.1
			C216,246.5,214.3,247.2,213.1,248.6z"/>
		<path fill="#3B4F61" d="M237.9,247.4c0-5.3,1.1-9.6,3.2-12.9c2.2-3.3,5.1-4.9,8.9-4.9c1.8,0,3.4,0.5,5,1.5c1.6,1,2.9,2.4,3.9,4.3
			v-17.8h5v46.7h-5v-4.8c-1,1.7-2.3,3.1-3.9,4.1c-1.6,1-3.3,1.5-5,1.5c-3.7,0-6.7-1.6-8.9-4.8C239,257.1,237.9,252.8,237.9,247.4z
			 M243.2,247.4c0,2.5,0.3,4.7,0.9,6.7c0.6,1.9,1.5,3.5,2.7,4.8c1.2,1.2,2.8,1.8,4.5,1.8c1.6,0,3.1-0.5,4.5-1.6
			c1.4-1.1,2.5-2.4,3.1-3.9v-15.6c-0.7-1.5-1.7-2.8-3.1-3.9s-2.9-1.6-4.5-1.6c-2.6,0-4.7,1.2-6,3.7
			C243.9,240.3,243.2,243.5,243.2,247.4z"/>
		<path fill="#3B4F61" d="M271.5,247.4c0-3.3,0.5-6.3,1.6-8.9c1.1-2.7,2.7-4.8,4.8-6.4c2.1-1.6,4.6-2.4,7.3-2.4
			c2.9,0,5.3,0.8,7.4,2.4c2,1.6,3.6,3.7,4.5,6.4c1,2.6,1.5,5.7,1.5,9v1.6h-21.9c0.1,3.5,1,6.4,2.7,8.6c1.7,2.2,4,3.3,7,3.3
			c1.5,0,2.9-0.4,4.4-1.1c1.4-0.7,2.7-1.7,3.7-3.1l2.7,2.9c-2.9,3.6-6.6,5.4-11.1,5.4c-4.5,0-8-1.7-10.6-5
			C272.8,256.9,271.5,252.6,271.5,247.4z M276.8,245.3h16.9c0-1.4-0.2-2.7-0.5-4c-0.3-1.3-0.8-2.5-1.4-3.7s-1.5-2.1-2.6-2.8
			c-1.1-0.7-2.4-1-3.9-1c-1.4,0-2.7,0.4-3.8,1.1c-1.1,0.7-2,1.7-2.6,2.8c-0.6,1.2-1.1,2.4-1.5,3.7S276.8,244,276.8,245.3z"/>
		<path fill="#3B4F61" d="M305.9,264.3v-33.8h5v5.5c1.1-1.9,2.5-3.4,4.2-4.5c1.6-1.1,3.4-1.7,5.4-1.7v5.3c-0.5-0.1-1.1-0.2-1.7-0.2
			c-1.5,0-3,0.6-4.5,1.7c-1.5,1.1-2.7,2.4-3.4,3.9v23.9H305.9z"/>
		<path fill="#3B4F61" d="M326.5,249.2v-31.6h5.6v31.6c0,3.6,0.8,6.3,2.4,8.1c1.6,1.8,3.9,2.8,7,2.8c3,0,5.4-0.9,7-2.8
			c1.6-1.8,2.4-4.5,2.4-8.1v-31.6h5.6v31.6c0,5.1-1.3,9.1-3.9,11.8c-2.6,2.8-6.3,4.1-11.1,4.1c-4.7,0-8.4-1.4-11-4.2
			C327.9,258.3,326.5,254.3,326.5,249.2z"/>
		<path fill="#3B4F61" d="M363.5,259.2l3.1-4.3c1.3,1.5,2.9,2.8,4.7,3.7c1.9,1,3.9,1.4,6.1,1.4c2.8,0,4.9-0.7,6.4-2.2
			c1.5-1.5,2.2-3.3,2.2-5.4c0-1.2-0.2-2.3-0.7-3.3s-1.1-1.8-2-2.5s-1.8-1.4-2.8-2c-1-0.6-2.2-1.2-3.3-1.7s-2.3-1.1-3.5-1.7
			c-1.2-0.6-2.3-1.2-3.3-2c-1-0.8-2-1.6-2.8-2.5c-0.8-0.9-1.5-2-1.9-3.3c-0.5-1.3-0.7-2.8-0.7-4.4c0-3.6,1.3-6.5,3.8-8.8
			s5.7-3.5,9.6-3.5c5.1,0,9.2,1.7,12.4,5l-2.9,4.2c-2.5-2.7-5.7-4.1-9.7-4.1c-2.2,0-4,0.6-5.4,1.9c-1.4,1.3-2.2,3-2.2,5
			c0,1.3,0.4,2.5,1.2,3.5c0.8,1,1.8,1.9,3,2.7c1.2,0.7,2.6,1.5,4.1,2.1s3,1.5,4.5,2.3c1.5,0.9,2.9,1.8,4.1,2.9
			c1.2,1.1,2.2,2.4,3,4.1c0.8,1.7,1.2,3.6,1.2,5.7c0,1.8-0.3,3.4-0.9,5s-1.4,2.9-2.6,4.1s-2.6,2.2-4.4,2.9c-1.8,0.7-3.9,1-6.3,1
			C371.6,265.2,366.9,263.2,363.5,259.2z"/>
		<path fill="#3B4F61" d="M399.2,264.3v-46.7h15.5c3.6,0,6.5,1.1,8.5,3.2c2,2.2,3.1,5,3.1,8.6c0,2.8-0.7,5.2-2,7
			c-1.3,1.9-3,3.1-5.2,3.7c2.3,0.3,4.1,1.6,5.6,3.9s2.3,4.8,2.3,7.6c0,3.9-1,6.9-3.1,9.2s-5,3.4-8.8,3.4H399.2z M404.8,238h8.8
			c2.3,0,4-0.7,5.1-2.1c1.2-1.4,1.7-3.3,1.7-5.6c0-2.3-0.6-4.2-1.7-5.6s-2.9-2.2-5.1-2.2h-8.8V238z M404.8,259.4h9.2
			c2.4,0,4.2-0.7,5.4-2.2s1.9-3.5,1.9-6.1c0-2.4-0.6-4.4-1.9-5.9c-1.3-1.6-3.1-2.4-5.4-2.4h-9.2V259.4z"/>
	</g>
</g>
<g>
	
		<rect x="165.9" y="7.1" transform="matrix(-0.8684 0.4958 -0.4958 -0.8684 355.5502 -49.4932)" fill="#51AADE" width="36.8" height="30.6"/>
	<g>
		<path fill="#51AADE" d="M283.4,177c0,4.9-4,8.9-8.9,8.9h-120c-4.9,0-8.9-4-8.9-8.9v-76.4c0-4.9,4-8.9,8.9-8.9h120
			c4.9,0,8.9,4,8.9,8.9V177z"/>
		<path fill="#FFFFFF" d="M214.5,106.2c-27.1,0.4-55.2,23.7-55.2,32.3c0,8.7,28.6,32.6,55.2,32.7c26.7,0,55.2-23.9,55.2-32.7
			C269.7,129.9,241.6,106.7,214.5,106.2z"/>
		<path fill="#51AADE" d="M274.9,88.6c-1.3-3.3-4.5-5.6-8.2-5.6h-43.9c0,0-1.9,0-3.2,0c-1.3,0-2.2-0.6-2.2-2.2c0-1.2,0-3.3,0-3.3
			c0-1.9-1.6-3.5-3.5-3.5h-41.5c-2,0-3.5,1.6-3.5,3.5c0,0,0,1.9,0,3.3c0,1.4-0.6,2.3-2.2,2.3c-1.6,0-4.3,0-4.3,0
			c-3.7,0-6.9,2.3-8.2,5.6H274.9z"/>
		<path fill="#51AADE" d="M214.5,117.1c-12,0-21.7,9.7-21.7,21.7c0,12,9.7,21.7,21.7,21.7c12,0,21.7-9.7,21.7-21.7
			C236.2,126.8,226.5,117.1,214.5,117.1z M214.5,147.5c-4.8,0-8.7-3.9-8.7-8.7c0-4.8,3.9-8.7,8.7-8.7c4.8,0,8.7,3.9,8.7,8.7
			C223.2,143.6,219.3,147.5,214.5,147.5z"/>
	</g>
	<path fill="#51AADE" d="M172.4,52.3l21.8-12.4L174.4,5.1l-21.8,12.4c-9.6,5.5-12.9,17.7-7.5,27.3C150.6,54.4,162.8,57.8,172.4,52.3
		z"/>
	
		<rect x="127" y="38.2" transform="matrix(-0.8684 0.4958 -0.4958 -0.8684 285.0175 20.0287)" fill="#51AADE" width="25.7" height="19.3"/>
	<g>
		<path fill="#FFFFFF" d="M192.2,28.5c-0.5-0.9-0.2-2,0.7-2.5l6.9-4c0.9-0.5,2-0.2,2.5,0.7l0,0c0.5,0.9,0.2,2-0.7,2.5l-6.9,4
			C193.8,29.7,192.7,29.4,192.2,28.5L192.2,28.5z"/>
		<path fill="#FFFFFF" d="M189.2,23.2c-0.5-0.9-0.2-2,0.7-2.5l6.9-4c0.9-0.5,2-0.2,2.5,0.7l0,0c0.5,0.9,0.2,2-0.7,2.5l-6.9,4
			C190.8,24.4,189.7,24.1,189.2,23.2L189.2,23.2z"/>
		<path fill="#FFFFFF" d="M186.1,17.9c-0.5-0.9-0.2-2,0.7-2.5l6.9-4c0.9-0.5,2-0.2,2.5,0.7l0,0c0.5,0.9,0.2,2-0.7,2.5l-6.9,4
			C187.8,19.1,186.6,18.8,186.1,17.9L186.1,17.9z"/>
		<path fill="#FFFFFF" d="M183.1,12.6c-0.5-0.9-0.2-2,0.7-2.5l6.9-4c0.9-0.5,2-0.2,2.5,0.7l0,0c0.5,0.9,0.2,2-0.7,2.5l-6.9,4
			C184.8,13.8,183.6,13.5,183.1,12.6L183.1,12.6z"/>
	</g>
	<path fill="none" stroke="#51AADE" stroke-width="11.3386" stroke-miterlimit="10" d="M145.1,47.4c-52.7,21.7-56.5,49.4-50.6,65.8
		c11.1,30.7,55.9,22.9,55.9,22.9"/>
	<rect x="136.9" y="124.4" fill="#51AADE" width="13.5" height="24.5"/>
</g>
</svg>
