<?xml version="1.0" encoding="utf-8"?>
<!-- Generator: Adobe Illustrator 16.0.0, SVG Export Plug-In . SVG Version: 6.00 Build 0)  -->
<!DOCTYPE svg PUBLIC "-//W3C//DTD SVG 1.1//EN" "http://www.w3.org/Graphics/SVG/1.1/DTD/svg11.dtd">
<svg version="1.1" id="Layer_1" xmlns="http://www.w3.org/2000/svg" xmlns:xlink="http://www.w3.org/1999/xlink" x="0px" y="0px"
	 width="1000px" height="556.676px" viewBox="0 0 1000 556.676" enable-background="new 0 0 1000 556.676" xml:space="preserve">
<path fill="#DD5252" d="M263.125,251.434l96.091,3.689c4.01,0.162,5.693-3.246,3.741-7.586l-30.272-67.379
	c-1.951-4.292-6.722-7.841-10.677-7.911l-94.742-1.844c-3.796-0.074-5.356,3.262-3.496,7.446l29.035,65.66
	C254.685,247.745,259.294,251.292,263.125,251.434z"/>
<path fill="#DD5252" d="M311.083,161.873l-34.991-0.604c0,0-1.491-0.019-2.556-0.038c-1.064-0.017-1.933-0.531-2.555-1.949
	c-0.48-1.049-1.294-2.874-1.294-2.874c-0.747-1.687-2.591-3.07-4.116-3.085l-32.384-0.5c-1.508-0.016-2.127,1.315-1.386,2.981
	c0,0,0.693,1.594,1.245,2.821c0.531,1.223,0.388,1.914-0.854,1.898c-1.241-0.02-3.335-0.054-3.335-0.054
	c-2.909-0.054-4.487,1.897-4.257,4.664l95.313,1.736C317.575,163.981,314.096,161.922,311.083,161.873z"/>
<path fill="#DD5252" d="M362.659,277.597l-83.181-3.622c-3.758-0.176-5.322,3.067-3.492,7.221c1.844,4.148,6.401,7.661,10.163,7.838
	l83.409,3.92c3.922,0.178,5.588-3.119,3.672-7.363C371.315,281.338,366.596,277.753,362.659,277.597z"/>
<path fill="#DD5252" d="M406.551,256.933l102.757,3.953c4.314,0.161,6.121-3.351,4.062-7.855l-32.028-69.717
	c-2.039-4.45-7.13-8.125-11.386-8.195l-101.287-1.97c-4.025-0.088-5.728,3.369-3.777,7.698l30.68,67.891
	C397.526,253.103,402.457,256.771,406.551,256.933z"/>
<path fill="#DD5252" d="M458.36,164.37l-37.42-0.638c0,0-1.596-0.016-2.752-0.035c-1.134-0.034-2.037-0.55-2.713-2.021
	c-0.494-1.083-1.349-2.962-1.349-2.962c-0.794-1.737-2.767-3.175-4.415-3.193l-34.602-0.531c-1.614-0.019-2.287,1.346-1.508,3.086
	c0,0,0.744,1.63,1.33,2.889c0.568,1.275,0.407,1.987-0.922,1.968c-1.31-0.016-3.582-0.05-3.582-0.05
	c-3.085-0.054-4.791,1.949-4.542,4.823l101.892,1.863C465.275,166.571,461.585,164.423,458.36,164.37z"/>
<path fill="#DD5252" d="M512.877,284.12l-88.978-3.865c-4.027-0.178-5.729,3.16-3.777,7.449c1.948,4.309,6.792,7.945,10.813,8.139
	l89.231,4.188c4.201,0.195,5.994-3.211,3.971-7.625C522.137,288.022,517.061,284.297,512.877,284.12z"/>
<g>
	<path fill="#50AADF" d="M451.034,41.819c-1.508-7.803-8.354-14.205-15.235-14.294c-6.847-0.072-11.174,6.136-9.683,13.886
		l9.132,47.39h24.776L451.034,41.819z"/>
	<path fill="#50AADF" d="M203.958,56.097c-1.417-6.971-0.424-13.18,2.309-17.702c2.767-4.522,7.251-7.27,12.929-7.201l101.411,1.367
		l-34.533,31.764c-0.85,0.761-1.169,2.11-0.869,3.547c0.304,1.437,1.188,2.784,2.359,3.581l25.559,17.313h16.455l2.075-0.853
		l-6.419-9.348l15.273-11.811l-19.05-13.622l3.372-7.837l-3.12-1.457l12.148-11.1l40.187,0.55
		c6.493,0.087,12.948,3.208,18.196,8.211c5.25,5.036,9.225,11.883,10.697,19.438l5.409,27.844h7.752l-5.356-27.648
		c-3.885-20.095-21.196-36.535-38.437-36.694l-41.287-0.426l-0.055,0.017l-113.453-1.116c-14.934-0.161-23.871,14.647-20.11,33.022
		l6.685,32.792h6.509L203.958,56.097z"/>
	<path fill="#50AADF" d="M504.914,42.707c-1.506-7.98-8.567-14.509-15.767-14.579c-7.146-0.087-11.688,6.242-10.181,14.153
		l8.853,46.537h25.806L504.914,42.707z"/>
	<path fill="#50AADF" d="M167.568,35.647c-1.49-7.327-7.38-13.302-13.125-13.375l-3.334-0.034c-5.694-0.054-9.08,5.783-7.593,13.017
		l11.016,53.457h23.906L167.568,35.647z"/>
	<path fill="#50AADF" d="M553.117,43.486c-1.508-8.124-8.828-14.774-16.264-14.862c-7.414-0.072-12.162,6.386-10.676,14.435
		l9.188,48.861c10.482,3.317,20.893,9.172,29.918,16.76L553.117,43.486z"/>
	<path fill="#50AADF" d="M594.564,29.262c-7.729-0.088-12.732,6.509-11.203,14.719l25.801,139.35l45.865,97.968l-43.58-236.856
		C609.924,36.143,602.352,29.334,594.564,29.262z"/>
	<path fill="#50AADF" d="M239.573,69.451c-10.198-0.302-16.882,7.927-17.044,19.277l41.856,0.019
		C259.242,77.858,249.382,69.77,239.573,69.451z"/>
</g>
<g>
	<path fill="#50AADF" d="M839.566,55.051c-7.697-0.073-16.232,6.134-19.119,13.867L723.943,327.59l9.055,49.642L848.307,69.343
		C851.234,61.54,847.316,55.12,839.566,55.051z"/>
	<path fill="#50AADF" d="M671.008,37.242l242.355,0.96L750.105,471.051l3.459,19.051l172.729-457.22
		c0.531-1.421,0.475-2.805-0.178-3.797c-0.646-0.996-1.832-1.56-3.266-1.56H669.234L671.008,37.242z"/>
	<path fill="#50AADF" d="M782.17,54.447c-7.338-0.071-15.568,6.013-18.371,13.586l-58.42,157.773l8.762,48.062l76.334-205.411
		C793.328,60.795,789.586,54.535,782.17,54.447z"/>
	<path fill="#50AADF" d="M723.01,53.844c-7.023-0.071-14.92,5.887-17.631,13.268l-19.334,52.639l8.461,46.414l36.361-98.645
		C733.613,60.05,730.102,53.914,723.01,53.844z"/>
	<path fill="#50AADF" d="M674.09,54.216l2.785,15.304l1.047-2.836C680.072,60.884,678.279,56.042,674.09,54.216z"/>
</g>
<path fill="#50AADF" d="M741.117,465.235l9.912,21.178c1.084-3.266,2.098-6.279,2.98-8.9L668.668,5.709
	c-0.283-1.491-1.139-2.979-2.346-4.027C665.117,0.619,663.594,0,662.156,0H89.195c-0.906,0-1.686,0.496-2.147,1.331
	c-0.461,0.833-0.584,2.004-0.353,3.172l17.558,84.211h6.827L94.499,9.046L658.77,11.35L741.117,465.235z"/>
<path fill="#50AADF" d="M996.68,166.164H871.35c-0.893,2.32-1.834,4.753-2.736,7.092l116.949,0.317L749.076,482.583
	c-1.504,3.918,0.822,2.535-0.67,6.381l0,0c1.275,0.184-1.402,0.553,0,0c1.396-0.531,3.826,3.426,4.555,2.502l246.346-321.579
	c0.746-0.995,0.902-1.952,0.41-2.625C999.219,166.571,998.121,166.164,996.68,166.164z"/>
<path fill="#50AADF" d="M128.797,246.29l90.027,3.441c3.759,0.158,5.318-3.139,3.475-7.342l-28.694-65.177
	c-1.845-4.15-6.351-7.589-10.04-7.662l-88.82-1.722c-3.545-0.069-4.983,3.159-3.227,7.22l27.564,63.581
	C120.852,242.708,125.215,246.152,128.797,246.29z M173.278,159.513l-32.774-0.55c0,0-1.421-0.038-2.414-0.054
	c-0.995,0-1.808-0.499-2.413-1.882c-0.426-1.011-1.206-2.766-1.206-2.766c-0.708-1.63-2.447-2.962-3.884-2.997l-30.362-0.462
	c-1.421-0.015-2.004,1.279-1.295,2.894c0,0,0.672,1.526,1.188,2.712c0.515,1.207,0.373,1.86-0.781,1.844
	c-1.152-0.02-3.14-0.054-3.14-0.054c-2.712-0.034-4.183,1.845-3.953,4.542l89.331,1.614
	C179.38,161.568,176.099,159.564,173.278,159.513z M522.523,88.746H21.534c-18.691,0-26.176,17.506-16.885,39.161l141.744,330.357
	c9.736,22.688,33.749,42.707,53.81,44.693L740,556.448c25.82,2.555,36.992-16.615,24.762-42.812l-177.822-380
	C575.328,108.806,546.4,88.746,522.523,88.746z M754.098,512.678c4.719,10.109,4.912,18.834,1.434,24.85
	c-3.475,5.994-10.566,9.205-20.5,8.229l-538.91-52.229c-7.769-0.746-16.28-5-23.836-11.281c-7.52-6.242-14.01-14.451-17.807-23.268
	l-142.183-331c-3.621-8.407-3.955-15.942-1.614-21.44c2.375-5.482,7.45-8.868,14.701-8.852l501.811,1.12
	c9.238,0.018,19.383,3.883,28.391,10.161c9.045,6.312,16.889,14.969,21.355,24.564L754.098,512.678z M631.016,301.022
	c-9.986-0.461-14.213,7.396-9.49,17.539c4.719,10.199,16.67,18.889,26.709,19.441c10.074,0.529,14.369-7.342,9.582-17.613
	C653.039,310.155,641.035,301.481,631.016,301.022z M517.451,118.72l-492.548-3.28c-0.995-0.02-1.79,0.462-2.147,1.295
	c-0.373,0.814-0.264,1.966,0.232,3.139l150.292,349.07c0.53,1.238,1.489,2.48,2.624,3.42c1.133,0.957,2.414,1.547,3.477,1.648
	l525.396,48.666c1.381,0.127,2.449-0.318,2.961-1.223c0.514-0.889,0.441-2.203-0.213-3.6L524.654,123.772
	c-0.602-1.331-1.736-2.625-3.08-3.562C520.238,119.27,518.727,118.72,517.451,118.72z M694.682,511.614L179.45,465.002
	L32.635,124.414l484.609,4.309L694.682,511.614z M222.156,271.476l-77.928-3.39c-3.532-0.158-4.968,2.982-3.228,7.009
	c1.737,4.006,6.029,7.41,9.575,7.572l78.127,3.67c3.669,0.179,5.196-3.01,3.385-7.127
	C230.282,275.095,225.848,271.637,222.156,271.476z M290.868,427.831l-80.026-6.346c-3.616-0.307-5.107,2.801-3.333,6.896
	c1.792,4.1,6.171,7.68,9.806,7.982l80.218,6.635c3.797,0.316,5.357-2.84,3.512-7.025C299.2,431.768,294.643,428.133,290.868,427.831
	z M175.051,315.691l40.297,92.636l58.863,4.482l-41.216-93.943L175.051,315.691z M435.196,439.288l-85.467-6.793
	c-3.866-0.299-5.479,2.893-3.601,7.131c1.881,4.238,6.545,7.945,10.427,8.266l85.683,7.094c4.042,0.336,5.743-2.926,3.797-7.254
	C444.082,443.385,439.221,439.608,435.196,439.288z M312.11,323.176l42.494,95.75l62.855,4.787l-43.506-97.154L312.11,323.176z
	 M589.6,451.545l-91.478-7.256c-4.132-0.338-5.89,2.963-3.903,7.344c1.987,4.4,6.969,8.229,11.118,8.584l91.73,7.59
	c4.324,0.355,6.172-2.992,4.098-7.502C599.107,455.817,593.926,451.881,589.6,451.545z M458.517,331.172l44.926,99.088l67.271,5.127
	L524.691,334.79L458.517,331.172z"/>
</svg>
