<?xml version="1.0" encoding="utf-8"?>
<!-- Generator: Adobe Illustrator 16.0.0, SVG Export Plug-In . SVG Version: 6.00 Build 0)  -->
<!DOCTYPE svg PUBLIC "-//W3C//DTD SVG 1.1//EN" "http://www.w3.org/Graphics/SVG/1.1/DTD/svg11.dtd">
<svg version="1.1" id="Layer_1" xmlns="http://www.w3.org/2000/svg" xmlns:xlink="http://www.w3.org/1999/xlink" x="0px" y="0px"
	 width="946.383px" height="982.546px" viewBox="0 0 946.383 982.546" enable-background="new 0 0 946.383 982.546"
	 xml:space="preserve">
<path fill="#50AADF" d="M766.035,535.81c0,7.688-6.233,13.934-13.93,13.934H372.102c-7.688,0-13.929-6.246-13.929-13.934
	c0-7.695,6.239-13.93,13.929-13.93h380.004C759.8,521.878,766.035,528.115,766.035,535.81z"/>
<path fill="#DD5252" d="M766.035,609.074c0,7.695-6.233,13.93-13.93,13.93H372.102c-7.688,0-13.929-6.232-13.929-13.93
	c0-7.688,6.239-13.924,13.929-13.924h380.004C759.8,595.15,766.035,601.384,766.035,609.074z"/>
<path fill="#50AADF" d="M766.035,682.339c0,7.691-6.233,13.928-13.93,13.928H372.102c-7.688,0-13.929-6.234-13.929-13.928
	c0-7.689,6.239-13.926,13.929-13.926h380.004C759.8,668.416,766.035,674.65,766.035,682.339z"/>
<path fill="#DD5252" d="M320.016,650.326c-0.284-0.645-0.664-1.268-1.126-1.811l-0.008-0.023c-2.229-2.666-5.896-3.453-8.946-2.119
	c-0.639,0.283-1.246,0.65-1.798,1.1l-0.005,0.02c-0.981,0.803-10.646,9.104-17.223,25.604c-5.646-42.57-7.273-107.195,14.317-181.92
	c0.511-1.774,0.347-3.61-0.339-5.182c-0.869-2.01-2.625-3.64-4.894-4.301c-1.771-0.515-3.609-0.351-5.181,0.334
	c-2.016,0.875-3.646,2.639-4.298,4.896c-21.091,73.007-20.746,136.833-15.67,180.992c-5.981-10.18-11.637-17.77-16.773-23.422
	c-1.12-1.229-4.962-0.617-7.41,5.855c-2.448,6.469,1.202,9.824,2.464,11.186c25.752,27.754,34.638,69.795,34.766,70.166l0.193,0.486
	c1.515,3.475,5.368,5.338,9.072,4.295l0.002,0.006l0.022-0.006c0.011-0.006,0.021,0,0.033-0.006l-0.004-0.006l0.971-0.338
	c3.322-1.453,5.167-5.051,4.397-8.637c-5.09-23.473-1.356-40.277,3.644-51.416c5.003-11.127,11.389-16.566,11.67-16.812
	C320.572,657.021,321.341,653.376,320.016,650.326z M231.726,643.539L231.726,643.539l-0.003,0.027L231.726,643.539z"/>
<path fill="#DD5252" d="M879.203,387.826c-11.479-7.973-24.906-13.339-38.303-18.285c-17.146-6.344-34.568-12-52.225-17.159
	c-86.972-25.411-178.662-38.253-269.916-43.428c-10.422-0.596-10.361,13.678,0,14.268c20.924,1.186,41.854,2.803,62.731,4.891
	c-38.983-0.235-77.938,1.377-116.715,5.24c-41.727,4.159-84.177,10.099-124.245,21.531c-28.936,8.251-69.57,24.078-75.145,54.161
	c-5.153,27.812,30.236,42.845,54.695,50.173c39.863,11.957,84.494,13.982,126.229,15.239c48.383,1.466,96.987,0.125,145.375-1
	c91.91-2.131,184.613-9.962,272.727-34.301c13.062-3.605,26.304-9.842,30.556-22.101
	C899.013,405.406,888.815,394.487,879.203,387.826z M879.367,413.259c-2.522,10.931-24.957,13.661-34.82,15.811
	c-23.288,5.082-46.096,10.982-69.725,14.937c-95.154,15.93-193.562,16.66-290.125,16.704c-47.848,0.022-96.335-1.628-143.167-10.981
	c-13.891-2.776-27.574-6.93-40.001-13.115c-10.143-5.049-22.416-13.603-20.269-25.203c3.618-19.536,30.648-31.52,49.095-38.144
	c22.881-8.208,47.444-12.979,71.625-17.12c71.805-12.301,145.192-15.575,218.182-12.94c6.638,0.235,9.027-5.427,7.236-9.694
	c60.865,8.246,120.959,20.918,178.896,39.318c15.262,4.841,30.52,10.065,45.037,16.481
	C859.83,393.056,881.912,402.27,879.367,413.259z"/>
<path fill="#DD5252" d="M807.578,829.414c-3.812-4.156-9.479-4.639-13.403-4.639c-1.896,0-3.755,0.125-5.39,0.23
	c-1.088,0.068-2.106,0.135-3.018,0.156c-12.492,0.207-25.17,0.529-37.435,0.854l-9.17,0.234
	c-18.461,0.465-34.979,0.693-50.481,0.693c-14.633,0-28.219-0.203-41.521-0.604l-4.711-0.146c-9.836-0.295-19.836-0.596-29.75-1.312
	c11.674-0.139,24.963-0.754,37.926-3.352c8.607-1.73,16.884-4.596,24.589-8.492c4.188-2.125,16.938-8.596,18.684-20.994
	c0.81-5.699-1.258-9.477-3.127-11.645c-3.557-4.096-9.568-6.182-17.863-6.197h-0.426c-11.875,0-23.762,0.994-33.963,1.924
	c-15.115,1.391-29.74,3.617-43.5,6.637c-7.24,1.596-14.316,3.551-21.066,5.496c-2.77-4.453-5.803-8.152-9.016-11.033
	c-1.465-1.332-3.328-2.037-5.258-2.037c-1.869,0-3.709,0.684-5.152,1.924c-2.699,2.316-4.307,5.213-4.869,8.699
	c-2.34,0.076-4.508,0.553-5.973,0.906c-5.416,1.35-10.076,3.756-14.58,6.07c-2.055,1.061-4.006,2.061-5.957,2.924
	c-1.41,0.623-2.836,1.246-4.246,1.857c-6.049,2.596-12.301,5.283-18.082,9.441c-2.002,1.453-3.678,2.918-5.073,4.441l-0.558-0.312
	l-0.531-0.994c-0.623-1.27-1.473-2.992-3.104-4.604c-2.146-2.119-5.021-3.232-8.293-3.232l-2.299,0.168
	c-5.865,0.896-9.529,4.711-12.479,7.787l-1.389,1.434l-0.043-0.244c-0.402-2.479-0.902-5.561-2.633-8.498
	c-2.062-3.523-5.47-5.541-9.322-5.541c-4.545,0-8.752,2.844-11.748,5.566c-5.773-7.645-15.566-12.061-29.162-13.1
	c-1.62-0.125-3.282-0.189-4.926-0.189c-4.729,0-9.574,0.523-14.459,1.541c-0.833-0.359-1.691-0.73-2.563-1.088
	c-9.503-4.064-18.479-7.906-26.018-13.857c-4.341-3.42-6.918-6.566-8.146-9.9c-1.235-3.395-1.188-7.629,0.167-12.574
	c2.604-9.596,9.369-18.41,17.654-23.033c5.229-2.918,11.725-4.396,19.282-4.396c2.896,0,5.926,0.23,9.006,0.672
	c8.628,1.252,15.069,8.006,20.747,15.125c1.467,1.855,3.64,2.908,5.965,2.908c2.953,0,5.708-1.762,7.018-4.479
	c1.335-2.768,0.975-5.957-0.938-8.348c-7.35-9.238-15.932-18.104-28.766-20.367c-4.251-0.746-8.527-1.135-12.719-1.135
	c-8.479,0-16.377,1.527-23.462,4.551c-11.396,4.863-20.817,14.777-26.559,27.951c-6.011,13.807-4.921,27.789,2.932,37.387
	c6.896,8.426,16.116,13.885,24.993,18.156c-9.498,4.686-19.08,11.102-28.326,19.02c-10.979,9.395-18.848,18.303-24.047,27.227
	c-5.778,9.906-7.855,21.75-5.859,33.34c3.474,20.197,19.144,39.48,41.893,51.604c11.833,6.285,25.25,9.617,38.777,9.617
	c9.735,0,19.268-1.688,28.312-5c11.536-4.229,21.431-11.225,28.62-20.219c7.928-9.939,11.957-22.389,11.686-36.035
	c-0.319-15.119-5.627-30.535-15.421-44.842c1.665-4.416,1.087-9.422,0.706-12.766l-0.083-0.75l-0.029-0.227
	c0.766-1.311,1.587-2.492,2.446-3.52c0.328,1.711,0.779,3.541,1.566,5.422c1.996,4.705,6.506,7.73,11.5,7.73
	c1.016,0,2.041-0.127,3.041-0.373c4.557-1.131,7.916-4.434,10.354-6.836l1.228-1.182l0.395-0.371l1.732-1.564
	c0.469,0.885,1.086,1.871,1.944,2.814c2.104,2.318,4.929,3.607,7.179,4.424c0.528,2.281,1.68,4.314,3.368,5.842
	c3.134,2.824,7.142,3.66,9.804,4.221c4.157,0.861,8.307,1.174,11.813,1.354c2.523,0.125,5.062,0.191,7.515,0.191
	c5.95,0,11.717-0.377,17.17-1.16c2.452-0.35,5.825-0.824,8.957-2.447c2.854-1.471,4.573-3.863,5.604-5.328l0.893,0.334
	c2.082,1.762,4.365,2.717,6.755,2.879l0.803,0.027l0.606-0.02c0.98,0.314,1.98,0.639,3,0.928l0.107,0.465
	c-0.645,2.285-1.039,4.486-1.428,6.646l-0.187,1.062c-2.817,2.762-3.797,7.391-2.409,12.396c0.395,1.396,1.159,2.615,2.17,3.566
	c-1.201,3.994-2.857,8.322-5,13.146c-1.355,0.678-2.869,1.301-4.521,1.857c-5.703,1.924-11.779,2.885-18.189,3.898
	c-1.901,0.309-3.819,0.604-5.711,0.938c-12.146,2.094-22.983,7.559-30.508,15.408c-8.135,8.492-13.76,23.109-6.91,35.146
	c3.627,6.346,9.877,9.83,17.599,9.83c6.164,0,12.078-2.17,15.947-3.98c9.534-4.465,18.432-12.152,27.157-23.486
	c6.359-8.271,12.045-17.705,17.334-28.768c6.22-4.465,9.943-10.301,11.095-17.383c0.672-4.131,0.354-9.139-0.8-13.711
	c0.597-3.887,0.8-7.744,0.623-11.516l1.177-1.365c18.498,3.373,37.438,3.93,55.793,4.471l3.028,0.096
	c15.328,0.459,31.15,0.688,47,0.688c13.492,0,27.398-0.164,41.379-0.51c5.688-0.125,11.377-0.271,17.045-0.42
	c9.22-0.234,18.427-0.484,27.623-0.668l3.312-0.062c4.672-0.082,9.502-0.176,14.309-0.416l0.886-0.027
	c0.18,1.568,0.854,3.043,1.911,4.207c1.459,1.586,3.548,2.498,5.738,2.498c4.131,0,7.514-3.082,7.881-7.17
	C811.229,834.644,809.281,831.289,807.578,829.414z M537.82,814.109c-1.881,0.186-3.736,0.234-5.301,0.24h-0.269
	c-3.409,0-6.812-0.236-10.416-0.498l-1.008-0.07c1-0.438,1.994-0.863,3.008-1.295c2.441-1.051,4.938-2.127,7.451-3.346
	c1.479-0.715,2.97-1.496,4.459-2.289c1.254-0.65,2.479-1.295,3.681-1.893c-0.718,1.27-1.283,2.717-1.605,4.346
	C537.597,810.523,537.459,812.195,537.82,814.109z M606.593,809.304c-1.572,0-3.168-0.006-4.742-0.021l-3.642-0.025
	c-3.762-0.02-7.521-0.043-11.272-0.139c-1.721-0.033-3.551-0.125-5.351-0.42l-0.075-1.107c-0.138-1.619-0.435-3.229-0.881-4.895
	c4.133-1.213,8.069-2.371,12.094-3.365c6.471-1.59,13.301-2.992,20.875-4.268c13.346-2.258,27.516-3.771,43.272-4.59
	c4.115-0.227,8.234-0.383,12.355-0.547l1.617-0.066c0.918-0.033,1.862-0.061,2.826-0.061c1.35,0,3.18,0.055,4.659,0.514
	l-0.328,0.887c-1.125,2.316-3.975,4.371-6.026,5.693c-8.951,5.869-20.717,9.404-37.006,11.137
	C626.769,808.912,618.025,809.304,606.593,809.304z M428.64,811.08c-1.216-1.037-2.462-2.037-3.746-3.02
	c2.907,1.283,5.085,2.982,6.524,5.104l0.468,0.762C430.822,812.972,429.743,812.003,428.64,811.08z M396.195,924.007
	c-12.506,0-24.938-3.523-35.966-10.176c-14.989-9.045-30.796-25.762-30.238-45.568c0.235-8.23,3.965-16.109,12.104-25.537
	c7.722-8.936,15.716-15.967,25.938-22.76c8.596-5.719,17.139-9.811,25.449-12.191c5.515,2.514,11.257,5.338,16.664,8.918
	c21.252,14.033,35.572,35.297,38.298,56.877c1.403,11.195-0.988,21.508-6.923,29.809c-6.725,9.393-16.629,14.393-23.763,16.934
	C410.868,922.751,403.611,924.007,396.195,924.007z M512.601,921.992c-1.979,0-2.961-0.629-3.603-1.186
	c-1.936-1.689-1.975-5.197-1.416-7.68c2.535-11.408,14.738-16.92,19.869-18.771c4.556-1.639,9.568-2.395,14.89-3.191
	c2.639-0.402,5.35-0.797,8.067-1.324c-2.848,4.59-5.817,8.811-8.986,12.729c-7.807,9.605-15.563,15.648-23.764,18.438
	C515.733,921.652,514.031,921.992,512.601,921.992z"/>
<path fill="#50AADF" d="M651.785,7.404l-4.666,6.415c106.107,77.205,207.015,172.257,284.795,285.212l6.531-4.498l5.711-5.503
	c-49.309-51.28-116.32-80.095-194.738-80.046c-4.766,0-9.573,0.109-14.428,0.322l0.355,7.924l7.891,0.787
	c1.062-10.65,1.574-20.919,1.574-30.832c0.016-41.679-9.154-77.095-24.793-107.544c-15.629-30.466-37.625-55.915-62.998-78.194
	L651.785,7.404l-4.666,6.415L651.785,7.404l-5.231,5.956c24.307,21.351,44.854,45.264,59.354,73.521
	c14.488,28.269,23.029,60.931,23.039,100.304c0,9.367-0.479,19.11-1.49,29.258c-0.229,2.279,0.554,4.574,2.134,6.235
	c1.575,1.672,3.817,2.574,6.106,2.476c4.611-0.208,9.188-0.306,13.724-0.306c74.569,0.055,136.852,27,183.315,75.188
	c2.869,2.978,7.521,3.257,10.729,0.639c3.209-2.617,3.86-7.229,1.514-10.64C865.906,175.224,763.687,79.029,656.451,0.988
	c-3.426-2.492-8.213-1.847-10.854,1.459c-2.65,3.307-2.228,8.121,0.957,10.913L651.785,7.404z"/>
<path fill="#50AADF" d="M651.785,7.404l-4.666,6.415c106.107,77.205,207.015,172.257,284.795,285.212l6.531-4.498l5.711-5.503
	c-49.309-51.28-116.32-80.095-194.738-80.046c-4.766,0-9.573,0.109-14.428,0.322l0.355,7.924l7.891,0.787
	c1.062-10.65,1.574-20.919,1.574-30.832c0.016-41.679-9.154-77.095-24.793-107.544c-15.629-30.466-37.625-55.915-62.998-78.194
	L651.785,7.404l-4.666,6.415L651.785,7.404l-5.231,5.956c24.307,21.351,44.854,45.264,59.354,73.521
	c14.488,28.269,23.029,60.931,23.039,100.304c0,9.367-0.479,19.11-1.49,29.258c-0.229,2.279,0.554,4.574,2.134,6.235
	c1.575,1.672,3.817,2.574,6.106,2.476c4.611-0.208,9.188-0.306,13.724-0.306c74.569,0.055,136.852,27,183.315,75.188
	c2.869,2.978,7.521,3.257,10.729,0.639c3.209-2.617,3.86-7.229,1.514-10.64C865.906,175.224,763.687,79.029,656.451,0.988
	c-3.426-2.492-8.213-1.847-10.854,1.459c-2.65,3.307-2.228,8.121,0.957,10.913L651.785,7.404z"/>
<path fill="#50AADF" d="M7.928,75.308v7.93h649.624V288.38H15.857V75.308H7.928v7.93V75.308H0v221.008
	c0,2.087,0.847,4.131,2.322,5.606c1.476,1.481,3.519,2.322,5.607,2.322h657.556c2.088,0,4.133-0.841,5.607-2.322
	c1.479-1.476,2.321-3.52,2.321-5.606V75.308c0-2.087-0.844-4.131-2.321-5.606c-1.478-1.476-3.521-2.328-5.607-2.328H7.928
	c-2.088,0-4.131,0.853-5.607,2.328C0.84,71.178,0,73.223,0,75.308H7.928z"/>
<path fill="#50AADF" d="M179.502,108.615h47.854c14.219,0,25.127,4.196,32.717,12.59c7.646,8.328,11.46,20.23,11.46,35.695
	c0,15.542-3.814,27.504-11.46,35.897c-7.59,8.334-18.498,12.498-32.717,12.492h-19.022v51.362h-28.832V108.615 M208.333,136.277
	v41.346h15.951c5.591,0,9.913-1.782,12.951-5.351c3.05-3.634,4.569-8.76,4.569-15.372s-1.519-11.705-4.569-15.273
	c-3.038-3.568-7.36-5.35-12.951-5.35H208.333 M320.654,137.468v90.331h10.333c11.782,0,20.769-3.864,26.952-11.596
	c6.24-7.738,9.366-18.979,9.366-33.717c0-14.678-3.104-25.848-9.29-33.521c-6.188-7.667-15.203-11.497-27.028-11.497H320.654
	 M291.828,108.615h30.396c16.973,0,29.605,1.617,37.892,4.853c8.34,3.18,15.479,8.596,21.416,16.263
	c5.24,6.678,9.133,14.383,11.681,23.104c2.547,8.732,3.817,18.613,3.817,29.651c0,11.17-1.271,21.159-3.817,29.946
	c-2.548,8.727-6.438,16.427-11.687,23.104c-5.989,7.667-13.175,13.121-21.562,16.361c-8.386,3.169-20.963,4.754-37.739,4.754
	h-30.397V108.615 M419.117,108.615h77.795v28.854h-48.97v27.563h46.05v28.864h-46.05v62.762h-28.826L419.117,108.615"/>
<path fill="#50AADF" d="M651.785,7.404v-7.935H210.066c-2.087,0-4.131,0.854-5.606,2.328c-1.481,1.475-2.323,3.519-2.323,5.607
	v67.903c0,2.088,0.847,4.132,2.323,5.607c1.475,1.476,3.519,2.323,5.606,2.323h447.485V288.38l-447.485,0.005
	c-2.087,0-4.131,0.842-5.606,2.323c-1.481,1.475-2.323,3.519-2.323,5.607v677.771c0,2.09,0.847,4.133,2.323,5.607
	c1.475,1.479,3.519,2.32,5.606,2.32h728.379c2.088,0,4.131-0.842,5.605-2.32c1.479-1.479,2.321-3.521,2.321-5.607V294.533
	c0-1.584-0.471-3.125-1.354-4.443C867.623,175.584,755.134,71.116,656.375,0.939c-1.352-0.962-2.93-1.47-4.592-1.47L651.785,7.404
	l-4.596,6.464c97.363,69.139,208.814,172.76,284.682,285.102l6.572-4.437h-7.928v671.623h-712.52V304.244h447.489
	c2.088,0,4.133-0.841,5.607-2.322c1.479-1.476,2.321-3.52,2.321-5.606V75.308c0-2.087-0.844-4.131-2.321-5.606
	c-1.478-1.476-3.521-2.328-5.607-2.328H217.996v-52.04h433.79V7.404l-4.596,6.464L651.785,7.404z"/>
<path fill="#50AADF" d="M760.537,407.411c0,8.762-7.104,15.864-15.86,15.864H356.79c-8.762,0-15.863-7.104-15.863-15.864v-5.125
	c0-8.76,7.104-15.862,15.863-15.862h387.885c8.76,0,15.862,7.104,15.862,15.862V407.411L760.537,407.411z"/>
</svg>
