<?xml version="1.0" encoding="utf-8"?>
<!-- Generator: Adobe Illustrator 16.0.0, SVG Export Plug-In . SVG Version: 6.00 Build 0)  -->
<!DOCTYPE svg PUBLIC "-//W3C//DTD SVG 1.1//EN" "http://www.w3.org/Graphics/SVG/1.1/DTD/svg11.dtd">
<svg version="1.1" id="Layer_1" xmlns="http://www.w3.org/2000/svg" xmlns:xlink="http://www.w3.org/1999/xlink" x="0px" y="0px"
	 width="1000px" height="868.576px" viewBox="-6.632 0 1000 868.576" enable-background="new -6.632 0 1000 868.576"
	 xml:space="preserve">
<path fill="#50AADF" d="M754.238,467.388c-5.214-13.114-17.994-22.395-32.967-22.395H545.675c0,0-7.563,0-12.951,0
	c-5.389,0-8.619-2.263-8.619-8.874c0-4.866,0-13.262,0-13.262c0-7.792-6.316-14.099-14.102-14.099H344.161
	c-7.788,0-14.095,6.308-14.095,14.099c0,0,0,7.393,0,13.142c0,5.727-2.356,8.994-8.755,8.994c-6.386,0-17.307,0-17.307,0
	c-14.984,0-27.763,9.282-32.978,22.395H754.238z"/>
<path fill="#50AADF" d="M844.63,324.154h-9.605c-0.022,1.549-1.258,2.796-2.798,2.801H530.086c-1.498-0.005-2.771-1.257-2.786-2.801
	V22.007c0.016-1.509,1.263-2.762,2.786-2.771h302.143c1.558,0.01,2.775,1.252,2.798,2.771v302.148L844.63,324.154l9.624,0.001
	V22.007C854.254,9.848,844.397,0,832.227,0H530.086c-12.152,0.01-22.006,9.838-22.016,22.007v302.148
	c0.01,12.161,9.832,22.022,22.016,22.036h302.143c12.19-0.005,22.028-9.879,22.028-22.036L844.63,324.154L844.63,324.154z"/>
<g>
	<path fill="#50AADF" d="M636.143,160.511L620.667,85.82l-15.335,74.691h-12.076L572.244,65.8h12.076l15.47,77.244L615.979,65.8
		h9.52l16.184,77.244L657.158,65.8h12.08l-21.032,94.71H636.143z"/>
</g>
<path fill="#50AADF" d="M797.944,196.462c0,5.104-4.141,9.258-9.255,9.258H573.637c-5.094,0-9.251-4.154-9.251-9.258
	c0-5.112,4.157-9.238,9.251-9.238h215.053C793.804,187.224,797.944,191.35,797.944,196.462z"/>
<path fill="#50AADF" d="M797.944,238.296c0,5.104-4.141,9.257-9.255,9.257H573.637c-5.094,0-9.251-4.154-9.251-9.257
	c0-5.097,4.157-9.243,9.251-9.243h215.053C793.804,229.053,797.944,233.198,797.944,238.296z"/>
<path fill="#50AADF" d="M797.944,280.14c0,5.118-4.141,9.239-9.255,9.239H573.637c-5.094,0-9.251-4.121-9.251-9.239
	c0-5.098,4.157-9.248,9.251-9.248h215.053C793.804,270.892,797.944,275.042,797.944,280.14z"/>
<path fill="#50AADF" d="M797.944,72.886c0,5.093-4.141,9.243-9.255,9.243h-83.678c-5.099,0-9.239-4.148-9.239-9.243
	c0-5.108,4.141-9.244,9.239-9.244h83.678C793.804,63.643,797.944,67.778,797.944,72.886z"/>
<path fill="#50AADF" d="M797.944,114.724c0,5.108-4.141,9.243-9.255,9.243h-83.678c-5.099,0-9.239-4.135-9.239-9.243
	c0-5.112,4.141-9.243,9.239-9.243h83.678C793.804,105.482,797.944,109.613,797.944,114.724z"/>
<path fill="#50AADF" d="M797.944,156.569c0,5.107-4.141,9.238-9.255,9.238h-83.678c-5.099,0-9.239-4.131-9.239-9.238
	c0-5.113,4.141-9.244,9.239-9.244h83.678C793.804,147.325,797.944,151.456,797.944,156.569z"/>
<path fill="#50AADF" d="M453.5,324.667h-9.626c0,1.549-1.26,2.801-2.784,2.806H138.953c-1.523-0.004-2.777-1.253-2.784-2.806V22.521
	c0.008-1.514,1.239-2.757,2.784-2.767h302.136c1.551,0.01,2.784,1.262,2.784,2.767v302.146L453.5,324.667l9.618,0.001V22.521
	c-0.007-12.169-9.872-22.003-22.028-22.003H138.953c-12.163,0-22.012,9.839-22.021,22.003v302.146
	c0,12.161,9.832,22.039,22.021,22.044h302.136c12.182-0.017,22.021-9.877,22.028-22.044L453.5,324.667L453.5,324.667z"/>
<g>
	<path fill="#50AADF" d="M256.819,161.014l-30.583-39.192l-30.575,39.192h-18.155l39.258-48.422l-37.084-46.285h18.346l28.21,37.195
		l28.218-37.195h18.345l-37.09,46.284l39.26,48.422L256.819,161.014L256.819,161.014z"/>
</g>
<path fill="#50AADF" d="M406.795,196.985c0,5.098-4.151,9.253-9.253,9.253H182.494c-5.111,0-9.239-4.155-9.239-9.253
	c0-5.118,4.128-9.239,9.239-9.239h215.047C402.645,187.746,406.795,191.867,406.795,196.985z"/>
<path fill="#50AADF" d="M406.795,238.805c0,5.132-4.151,9.267-9.253,9.267H182.494c-5.111,0-9.239-4.136-9.239-9.267
	c0-5.089,4.128-9.239,9.239-9.239h215.047C402.645,229.565,406.795,233.714,406.795,238.805z"/>
<path fill="#50AADF" d="M406.795,280.663c0,5.112-4.151,9.243-9.253,9.243H182.494c-5.111,0-9.239-4.13-9.239-9.243
	c0-5.088,4.128-9.253,9.239-9.253h215.047C402.645,271.409,406.795,275.573,406.795,280.663z"/>
<path fill="#50AADF" d="M406.795,73.398c0,5.103-4.151,9.249-9.253,9.249H313.87c-5.102,0-9.25-4.146-9.25-9.249
	c0-5.102,4.147-9.239,9.25-9.239h83.673C402.645,64.16,406.795,68.296,406.795,73.398z"/>
<path fill="#50AADF" d="M406.795,115.242c0,5.108-4.151,9.249-9.253,9.249H313.87c-5.102,0-9.25-4.14-9.25-9.249
	c0-5.098,4.147-9.243,9.25-9.243h83.673C402.645,106,406.795,110.145,406.795,115.242z"/>
<path fill="#50AADF" d="M406.795,157.081c0,5.112-4.151,9.248-9.253,9.248H313.87c-5.102,0-9.25-4.135-9.25-9.248
	c0-5.108,4.147-9.233,9.25-9.233h83.673C402.645,147.848,406.795,151.973,406.795,157.081z"/>
<path fill="#DD5252" d="M921.11,566.335c-17.654,20.626-43.049,30.683-68.211,29.61c-3.259-0.15-10.166,0.228-13.02,8.752
	c-2.842,8.525-7.477,22.118-9.876,29.521c-2.399,7.392,4.093,11.464,7.836,11.974c44.47,6.117,91.019-9.748,122.361-46.396
	c44.838-52.397,43.01-128.994-1.537-179.161l9.189-14.34c6.297-9.853,8.272-15,3.929-20.417c-4.36-5.399-9.246-4.957-12.699-4.197
	c-6.92,1.522-76.076,16.686-76.076,16.686c-2.331,0.485-4.227,1.854-5.476,3.676c-1.132,1.891-1.566,4.193-1.063,6.511
	c0,0,15.159,69.162,16.668,76.073c0.764,3.477,2.408,8.088,9.132,9.788c6.73,1.688,10.591-2.259,16.899-12.1l9.896-15.458
	C947.722,497.399,945.632,537.667,921.11,566.335z"/>
<path fill="#DD5252" d="M47.333,498.589c-2.108-27.075,8.745-52.125,27.29-69.176c2.409-2.205,7.033-7.35,3.018-15.394
	c-4.004-8.049-10.356-20.92-13.882-27.857c-3.536-6.921-11.009-5.206-14.007-2.926C13.974,410.341-7.709,454.493-3.971,502.565
	c5.345,68.766,60.813,121.623,127.765,125.604l3.647,16.645c2.509,11.42,4.769,16.45,11.666,17.19
	c6.906,0.75,10.041-3.019,11.947-5.997c3.816-5.964,42.008-65.591,42.008-65.591c1.292-1.996,1.668-4.304,1.263-6.47
	c-0.542-2.142-1.857-4.076-3.85-5.369c0,0-59.619-38.172-65.588-42.008c-2.999-1.913-7.41-4.021-13.368-0.45
	c-5.959,3.575-5.902,9.095-3.395,20.5l3.926,17.938C77.264,566.15,50.255,536.201,47.333,498.589z"/>
<path fill="#50AADF" d="M655.384,614.875h-42.949v69.218h42.949c25.748,0,41.059-14.392,41.059-34.597
	C696.442,629.267,681.13,614.875,655.384,614.875z"/>
<path fill="#50AADF" d="M752.584,491.941H272.682c-19.59,0-35.483,15.874-35.483,35.48v305.67c0,19.589,15.894,35.484,35.483,35.484
	h479.9c19.602,0,35.494-15.897,35.494-35.484v-305.67C788.078,507.815,772.184,491.941,752.584,491.941z M459.327,773.802H316.694
	v-17.854l104.544-141.072H316.694v-18.63h140.015v17.572L351.798,754.889h107.53L459.327,773.802L459.327,773.802z M530.288,773.802
	h-29.874V596.246h29.874V773.802z M658.363,702.719h-45.929v71.083h-29.869V596.246h75.798c45.549,0,68.703,24.497,68.703,53.253
	C727.066,678.23,703.54,702.719,658.363,702.719z"/>
</svg>
