<?xml version="1.0" encoding="utf-8"?>
<!-- Generator: Adobe Illustrator 16.0.0, SVG Export Plug-In . SVG Version: 6.00 Build 0)  -->
<!DOCTYPE svg PUBLIC "-//W3C//DTD SVG 1.1//EN" "http://www.w3.org/Graphics/SVG/1.1/DTD/svg11.dtd">
<svg version="1.1" id="Layer_1" xmlns="http://www.w3.org/2000/svg" xmlns:xlink="http://www.w3.org/1999/xlink" x="0px" y="0px"
	 width="1000px" height="712.644px" viewBox="0 0 1000 712.644" enable-background="new 0 0 1000 712.644" xml:space="preserve">
<path fill="#50AADF" d="M535.147,6.869V0H9.068C7.262,0,5.493,0.739,4.216,2.016C2.934,3.292,2.205,5.061,2.205,6.869v698.199
	c0,1.807,0.729,3.574,2.011,4.853c1.277,1.28,3.046,2.009,4.853,2.009h526.078c1.807,0,3.577-0.728,4.854-2.009
	c1.281-1.278,2.01-3.046,2.01-4.853V6.869c0-1.808-0.729-3.575-2.01-4.853C538.724,0.739,536.953,0,535.146,0L535.147,6.869h-6.864
	v691.337H15.93V13.73h519.217L535.147,6.869h-6.864H535.147z"/>
<rect x="73.641" y="81.514" fill="#50AADF" width="389.051" height="89.076"/>
<rect x="73.641" y="444.904" fill="#50AADF" width="389.051" height="203.24"/>
<rect x="73.641" y="210.761" fill="#50AADF" width="198.463" height="196.16"/>
<rect x="312.559" y="210.761" fill="#50AADF" width="150.133" height="196.16"/>
<path fill="#DD5252" d="M929.833,449.007H619.908c-15.163,0-27.45,12.299-27.45,27.459v192.688c0,15.167,12.286,27.451,27.45,27.451
	H929.83c15.162,0,27.451-12.284,27.451-27.451V476.468C957.282,461.306,944.994,449.007,929.833,449.007z M774.729,648.991H639.555
	c-7.272,0-13.177-5.898-13.177-13.18c0-7.271,5.904-13.173,13.177-13.173h135.174c7.272,0,13.176,5.902,13.176,13.173
	C787.904,643.092,782.002,648.991,774.729,648.991z M913.152,588.827H639.555c-7.272,0-13.177-5.897-13.177-13.175
	c0-7.273,5.904-13.178,13.177-13.178h273.598c7.272,0,13.176,5.904,13.176,13.178C926.328,582.929,920.426,588.827,913.152,588.827z
	 M913.152,529.182H639.555c-7.272,0-13.177-5.905-13.177-13.185c0-7.274,5.904-13.177,13.177-13.177h273.598
	c7.272,0,13.176,5.902,13.176,13.177C926.328,523.277,920.426,529.182,913.152,529.182z"/>
<polygon fill="#DD5252" points="602.146,514.994 412.825,496.082 602.146,621.837 "/>
<polygon fill="#DD5252" points="595.099,50.202 412.825,126.052 603.94,189.151 "/>
<path fill="#DD5252" d="M972.682,10.266H618.73c-15.161,0-27.453,12.293-27.453,27.455v171.503
	c0,15.163,12.293,27.448,27.453,27.448h353.953c15.162,0,27.452-12.285,27.452-27.448V37.721
	C1000.136,22.559,987.845,10.266,972.682,10.266z M924.734,153.756H663.511c-17.968,0-32.542-14.568-32.542-32.556
	c0-17.956,14.574-32.535,32.542-32.535h261.224c17.962,0,32.543,14.58,32.543,32.535
	C957.277,139.188,942.696,153.756,924.734,153.756z"/>
</svg>
