<?xml version="1.0" encoding="utf-8"?>
<!-- Generator: Adobe Illustrator 16.0.0, SVG Export Plug-In . SVG Version: 6.00 Build 0)  -->
<!DOCTYPE svg PUBLIC "-//W3C//DTD SVG 1.1//EN" "http://www.w3.org/Graphics/SVG/1.1/DTD/svg11.dtd">
<svg version="1.1" id="Layer_1" xmlns="http://www.w3.org/2000/svg" xmlns:xlink="http://www.w3.org/1999/xlink" x="0px" y="0px"
	 width="1000px" height="810.396px" viewBox="0 0 1000 810.396" enable-background="new 0 0 1000 810.396" xml:space="preserve">
<g>
	<path fill="#50AADF" d="M930.332,316.337c0-127.806-108.012-241.238-241.248-241.238c-75.477,0-142.849,34.669-187.079,88.953
		c-18.765-8.194-39.469-12.774-61.253-12.774c-69.161,0-127.596,45.828-146.672,108.768c-2.837,1.166-5.649,2.364-8.414,3.579
		c-9.282-2.913-19.147-4.496-29.388-4.496c-54.075,0-97.914,37.606-97.914,97.913c0,60.312,133.945,112.159,341.632,112.159
		C702.084,469.199,930.332,444.138,930.332,316.337z"/>
	<path fill="#DD5252" d="M236.903,520.549v208.74c0,34.774,111.371,62.964,248.757,62.964c137.389,0,248.757-28.188,248.757-62.965
		v-208.74L236.903,520.549L236.903,520.549z"/>
	<path fill="#50AADF" d="M734.416,520.549c0,34.768-111.368,62.957-248.757,62.957c-137.388,0-248.758-28.19-248.758-62.957
		c0-34.78,111.371-62.968,248.758-62.968C623.048,457.582,734.416,485.769,734.416,520.549z"/>
	<path fill="#DD5252" d="M236.903,468.694v10.442c0,34.771,111.371,62.96,248.757,62.96c137.389,0,248.757-28.188,248.757-62.96
		v-10.442H236.903z"/>
	<path fill="#50AADF" d="M734.416,469.199c0,34.773-111.368,62.963-248.757,62.963c-137.388,0-248.758-28.188-248.758-62.963
		c0-34.77,111.371-62.959,248.758-62.959C623.048,406.24,734.416,434.43,734.416,469.199z"/>
	<path fill="#DD5252" d="M236.903,425.639v10.438c0,34.774,111.371,62.968,248.757,62.968c137.389,0,248.757-28.191,248.757-62.968
		v-10.438H236.903z"/>
	<path fill="#50AADF" d="M734.416,426.15c0,34.771-111.368,62.963-248.757,62.963c-137.388,0-248.758-28.189-248.758-62.963
		c0-34.777,111.371-62.964,248.758-62.964C623.048,363.187,734.416,391.373,734.416,426.15z"/>
	<path fill="#DD5252" d="M678.433,348.332c-45.613-14.145-115.021-23.176-192.771-23.176c-77.749,0-147.156,9.031-192.774,23.176
		h-55.982v39.787c0,34.772,111.371,62.966,248.757,62.966c137.389,0,248.757-28.192,248.757-62.966v-39.787H678.433L678.433,348.332
		z"/>
	<path fill="#DD5252" d="M734.416,348.332c0,34.771-111.368,62.959-248.757,62.959c-137.388,0-248.758-28.188-248.758-62.959
		c0-34.78,111.371-62.967,248.758-62.967C623.048,285.364,734.416,313.552,734.416,348.332z"/>
	<circle fill="#50AADF" cx="235.858" cy="82.065" r="34.877"/>
	<path fill="#50AADF" d="M999.63,578.28c0,31.881-25.844,57.728-57.729,57.728c-31.88,0-57.727-25.847-57.727-57.728
		c0-31.886,25.847-57.731,57.727-57.731C973.786,520.549,999.63,546.395,999.63,578.28z"/>
	<circle fill="#50AADF" cx="138.938" cy="777.076" r="22.076"/>
	<path fill="#50AADF" d="M90.192,432.229c0,24.364-19.748,44.111-44.111,44.111c-24.363,0-44.11-19.747-44.11-44.111
		c0-24.358,19.747-44.109,44.11-44.109C70.444,388.119,90.192,407.87,90.192,432.229z"/>
	<circle fill="#50AADF" cx="40.953" cy="155.924" r="26.672"/>
	<circle fill="#50AADF" cx="155.597" cy="236.186" r="16.659"/>
	<circle fill="#50AADF" cx="503.597" cy="31.801" r="31.8"/>
	<circle fill="#50AADF" cx="791.386" cy="492.184" r="22.102"/>
	<circle fill="#50AADF" cx="822.624" cy="773.465" r="36.931"/>
	<path fill="#50AADF" d="M1000.03,394.396c0,9.332-7.566,16.896-16.897,16.896c-9.329,0-16.895-7.564-16.895-16.896
		c0-9.33,7.565-16.896,16.895-16.896C992.465,377.5,1000.03,385.067,1000.03,394.396z"/>
	<polyline fill="#50AADF" points="65.637,499.557 127.186,737.049 131.16,736.02 69.611,498.526 	"/>
	<polyline fill="#50AADF" points="32.746,196.003 38.901,370.393 43.004,370.248 36.85,195.859 	"/>
	<polyline fill="#50AADF" points="137.119,261.659 77.089,376.552 80.727,378.45 140.756,263.559 	"/>
	<polyline fill="#50AADF" points="79.629,137.326 191.443,95.27 190.001,91.429 78.187,133.488 	"/>
	<polyline fill="#50AADF" points="174.145,212.114 211.075,124.92 207.296,123.322 170.366,210.517 	"/>
	<polyline fill="#50AADF" points="66.566,184.355 128.115,221.283 130.228,217.767 68.677,180.837 	"/>
	<polyline fill="#50AADF" points="286.536,77.104 456.82,42.014 455.995,38 285.71,73.085 	"/>
	<polyline fill="#50AADF" points="174.128,761.312 221.015,657.244 217.273,655.557 170.386,759.629 	"/>
	<polyline fill="#50AADF" points="262.12,130.275 300.417,196.953 303.974,194.909 265.678,128.231 	"/>
	<polyline fill="#50AADF" points="483.898,74.052 448.146,134.361 451.676,136.453 487.423,76.144 	"/>
	<polyline fill="#50AADF" points="824.18,714.646 793.404,535.489 789.361,536.186 820.137,715.343 	"/>
	<polyline fill="#50AADF" points="861.398,727.18 905.509,636.908 901.821,635.104 857.711,725.377 	"/>
	<polyline fill="#50AADF" points="968.273,505.659 978.533,426.414 974.463,425.887 964.203,505.131 	"/>
	<polyline fill="#50AADF" points="821.395,471.96 955.776,413.172 954.134,409.412 819.753,468.201 	"/>
	<polyline fill="#50AADF" points="819.725,516.154 880.761,543.965 882.46,540.229 821.423,512.42 	"/>
	<polyline fill="#50AADF" points="956.073,366.55 935.556,353.213 933.321,356.651 953.837,369.987 	"/>
	<polyline fill="#50AADF" points="769.531,778.611 711.059,771.431 710.562,775.501 769.034,782.682 	"/>
	<polyline fill="#50AADF" points="538.582,65.437 585.77,89.028 587.604,85.359 540.417,61.766 	"/>
</g>
</svg>
