<?xml version="1.0" encoding="utf-8"?>
<!-- Generator: Adobe Illustrator 16.0.0, SVG Export Plug-In . SVG Version: 6.00 Build 0)  -->
<!DOCTYPE svg PUBLIC "-//W3C//DTD SVG 1.1//EN" "http://www.w3.org/Graphics/SVG/1.1/DTD/svg11.dtd">
<svg version="1.1" id="Layer_1" xmlns="http://www.w3.org/2000/svg" xmlns:xlink="http://www.w3.org/1999/xlink" x="0px" y="0px"
	 width="1000px" height="431.829px" viewBox="0 0 1000 431.829" enable-background="new 0 0 1000 431.829" xml:space="preserve">
<g>
	<path fill="#DD5252" d="M193.691,172.128c0,1.109-0.892,2-2.002,2H115.69c-1.109,0-2.007-0.893-2.007-2V52.83
		c0-1.105,0.897-1.997,2.007-1.997h75.999c1.11,0,2.002,0.892,2.002,1.997V172.128z"/>
	<path fill="#545E66" d="M379.122,172.128c0,1.109-0.897,2-2.001,2h-76.004c-1.109,0-2.007-0.893-2.007-2V52.83
		c0-1.105,0.897-1.997,2.007-1.997h76.004c1.104,0,2.001,0.892,2.001,1.997V172.128z"/>
	<path fill="#545E66" d="M286.402,129.778c0,1.102-0.891,1.989-1.996,1.989h-76.004c-1.109,0-2.009-0.888-2.009-1.989V52.83
		c0-1.105,0.899-1.997,2.009-1.997h76.004c1.105,0,1.996,0.892,1.996,1.997V129.778z"/>
	<path fill="#434C51" d="M155.188,50.798l-0.328,0.008L155.188,50.798L155.188,50.798l-0.328,0.008L155.188,50.798l-0.005-0.062
		c0-0.828,0.151-9.795,5.816-19.722c2.834-4.976,7.033-10.193,13.312-14.816c6.281-4.63,14.641-8.658,25.831-11.204
		c6.141-1.402,11.726-1.992,16.798-1.992c8.203,0,15.064,1.564,20.771,3.892c8.561,3.504,14.52,8.761,18.349,13.143
		c1.917,2.189,3.288,4.159,4.18,5.568c0.449,0.71,0.773,1.274,0.983,1.661c0.105,0.193,0.183,0.334,0.232,0.435l0.051,0.101
		l0.011,0.025l0.004,0.004l0.5-0.246l-0.5,0.246l0,0l0.5-0.246l-0.5,0.246c0.359,0.741,1.255,1.053,2.002,0.695
		c0.745-0.357,1.057-1.25,0.701-2c-0.061-0.115-3.233-6.704-10.734-13.316c-3.751-3.305-8.581-6.608-14.641-9.087
		C232.797,1.644,225.526,0,216.941,0c-5.313,0-11.122,0.626-17.462,2.073c-11.546,2.62-20.317,6.819-26.948,11.705
		c-9.957,7.33-15.064,16.18-17.651,23.367c-2.59,7.184-2.691,12.727-2.691,13.593c0,0.069,0,0.107,0,0.116
		c0.015,0.84,0.701,1.492,1.531,1.478C154.548,52.32,155.204,51.628,155.188,50.798z"/>
	<path fill="#434C51" d="M342.5,50.854c0.006-0.01,0.006-0.046,0.006-0.116c-0.01-1.149-0.183-10.623-6.21-21.214
		c-3.017-5.295-7.503-10.86-14.137-15.744c-6.635-4.887-15.407-9.086-26.954-11.707c-6.337-1.447-12.148-2.073-17.457-2.073
		c-8.593,0-15.863,1.645-21.917,4.124c-9.084,3.72-15.406,9.292-19.47,13.94c-4.059,4.649-5.858,8.378-5.897,8.465
		c-0.363,0.752-0.052,1.643,0.701,2.001c0.741,0.357,1.638,0.044,2-0.696l-0.228-0.114l0.228,0.114l0,0l-0.228-0.114l0.228,0.114
		c0.036-0.081,3.1-6.338,10.185-12.515c3.538-3.095,8.075-6.17,13.753-8.469c5.687-2.308,12.503-3.846,20.646-3.846
		c5.076,0,10.661,0.588,16.793,1.992c11.19,2.545,19.559,6.574,25.837,11.204c9.411,6.935,14.167,15.213,16.602,21.963
		c2.439,6.75,2.52,11.949,2.52,12.575v0.055v0.011l0.273,0.004l-0.273-0.009v0.005l0.273,0.004l-0.273-0.009
		c-0.021,0.836,0.639,1.522,1.473,1.533C341.798,52.346,342.485,51.686,342.5,50.854z"/>
	<path fill="#434C51" d="M235.575,48.826c0,1.105-0.896,2.007-2,2.007h-3.525c-1.108,0-2.007-0.902-2.007-2.007V28.398
		c0-1.103,0.899-2,2.007-2h3.525c1.104,0,2,0.897,2,2V48.826z"/>
	<path fill="#434C51" d="M266.641,48.826c0,1.105-0.899,2.007-2.008,2.007h-3.524c-1.103,0-2.002-0.902-2.002-2.007V28.398
		c0-1.103,0.899-2,2.002-2h3.524c1.109,0,2.008,0.897,2.008,2V48.826z"/>
	<g>
		<g>
			<path fill="#FBFDF8" d="M159.453,430.382c-33.088-0.003-47.45-34.193-65.634-77.478c-4.861-11.574-9.889-23.545-15.66-35.839
				c-16.423-34.963-26.54-48.131-34.668-58.709c-8.042-10.466-14.393-18.73-23.164-42.62c-43.125-117.206-0.9-144.09,13.07-149.538
				c5.743-2.239,11.589-3.373,17.371-3.373c35.971,0,62.67,42.803,75.502,63.372l1.584,2.535c8.161,13,11.146,30.786,14.307,49.613
				c2.205,13.13,4.484,26.705,8.627,40.318c6.728,22.104,26.846,54.908,41.536,78.862c7.732,12.61,14.411,23.499,17.352,29.854
				c0.51,1.101,1.094,2.323,1.732,3.651c6.548,13.666,18.738,39.104,9.881,61.846c-5.31,13.635-17.493,24.351-36.208,31.851
				c-9.496,3.805-17.875,5.653-25.623,5.653C159.455,430.382,159.454,430.382,159.453,430.382z"/>
			<path fill="#6B6B6B" d="M50.765,64.271c36.734,0,64.117,46.513,75.865,65.231c13.478,21.471,12.5,55.827,22.775,89.585
				c10.279,33.771,50.416,90.446,58.958,108.9c8.537,18.442,38.219,70.537-23.821,95.4c-9.478,3.798-17.751,5.55-25.09,5.55
				c-40.695,0-52.511-53.961-79.988-112.488c-32.447-69.079-40.104-53.057-57.784-101.213
				c-39.47-107.272-7.473-140.004,12.24-147.692C39.725,65.282,45.346,64.271,50.765,64.271 M50.765,61.383
				c-5.963,0-11.983,1.168-17.895,3.472c-14.28,5.567-57.481,32.94-13.901,151.382c8.846,24.094,15.257,32.438,23.374,43.003
				c8.087,10.522,18.15,23.621,34.506,58.44c5.759,12.267,10.781,24.224,15.639,35.788c9.224,21.956,17.189,40.92,27.179,54.96
				c11.359,15.967,24.002,23.401,39.785,23.401c7.936,0,16.495-1.884,26.165-5.76c19.101-7.653,31.556-18.644,37.015-32.665
				c9.084-23.327-3.282-49.132-9.923-62.995c-0.634-1.322-1.217-2.537-1.723-3.632c-2.978-6.434-9.677-17.354-17.432-30
				c-14.649-23.888-34.712-56.604-41.385-78.527c-4.118-13.523-6.389-27.054-8.583-40.138c-3.185-18.975-6.195-36.898-14.508-50.142
				c-0.499-0.796-1.027-1.642-1.583-2.532C114.524,104.644,87.537,61.383,50.765,61.383L50.765,61.383z"/>
		</g>
		<path fill="#21627C" d="M15.847,138.958c0,0-6.511,4.39-1.585,25.334c4.92,20.948,75.073,160.042,75.073,160.042
			s8.212,38.158,12.514,45.829c4.298,7.664,32.535,44.189,37.173,46.74c4.648,2.541,41.618,13.462,60.228-7.728
			c18.624-21.188,15.226-59.724,11.322-69.874c-3.907-10.13-27.15-45.135-30.333-51.489c-3.186-6.357-55.039-101.943-56.1-108.453
			c-1.075-6.512-20.923-64.845-21.878-67.057c-0.953-2.218-2.875-6.541-17.704-10.162C69.729,98.512,15.847,138.958,15.847,138.958z
			"/>
		<path fill="#62B2D1" d="M106.279,126.429l-4.973-16.348l-55.894,14.336l-33.108,23.946l57.532,107.683l29.416,62.041
			c0,0,54.514-6.621,62.184-37.2c7.674-30.581-55.689-114.685-55.689-114.685"/>
		<path fill="#3F92BC" d="M149.405,219.086c-3.487-11.455-5.683-22.983-7.577-34.068c-5.305-25.865-40.522-74.937-40.522-74.937
			s-23.147,20.864-5.38,76.25c17.761,55.408,57.651,94.598,57.651,94.598s14.194,8.905,27.59,23.297
			c30.467,34.175,48.371,91.319-2.5,110.774c-50.881,19.456-67.293-37.728-72.219-64.694c-4.94-26.971,1.146-49.586,1.146-49.586
			s-1.302-8.542-16.446-46.571c-26.736-70.621-48.338-94.059-48.338-94.059c-17.339-14.963-30.504-11.728-30.504-11.728
			s0.776,29.964,19.617,70.956c7.028,15.279,15.834,35.102,24.115,53.94c6.208,9.435,13.704,22.497,23.428,43.192
			c32.432,69.079,43.037,131.796,105.078,106.938c62.042-24.863,32.358-76.96,23.821-95.402
			C199.821,309.532,159.684,252.856,149.405,219.086z"/>
		<path fill="#FFFFFF" d="M71.541,128.903c-2.252,0.968-4.758,2.032-7.579,3.216l-3.8,1.611
			c-20.337,8.587-40.492,11.832-46.355,12.652c-1.264-9.397-5.909-55.325,22.637-67.605c28.938-12.383,57.477,24.18,62.582,31.17
			C89.756,120.117,85.814,122.774,71.541,128.903L71.541,128.903z"/>
		<path fill="#3F92BC" d="M37.146,80.399l0.054-0.021c26.325-11.26,52.791,20.547,59.529,29.453
			c-8.427,9.132-12.287,11.599-25.89,17.446c-2.245,0.966-4.712,2.01-7.57,3.205l-3.802,1.608
			c-18.427,7.786-36.726,11.138-44.122,12.266C13.922,132.291,11.184,91.567,37.146,80.399 M35.744,77.141
			c-33.369,14.35-23.438,71.222-23.438,71.222s24-2.629,48.55-13.006c4.431-1.866,8.168-3.429,11.39-4.82
			c14.636-6.296,18.682-8.953,29.061-20.455c0,0-32.064-47.274-65.5-32.965L35.744,77.141z"/>
		<path fill="#FBFDF8" d="M41.77,175.982c1.281,2.975-0.096,6.406-3.055,7.683c-2.972,1.283-6.405-0.089-7.682-3.06
			c-1.277-2.959,0.093-6.399,3.058-7.67C37.057,171.656,40.497,173.026,41.77,175.982z"/>
		<path fill="#FBFDF8" d="M55.845,202.36c1.277,2.972-0.097,6.408-3.067,7.685c-2.956,1.275-6.393-0.088-7.674-3.068
			c-1.272-2.962,0.094-6.392,3.059-7.674C51.131,198.03,54.568,199.4,55.845,202.36z"/>
		<path fill="#FBFDF8" d="M70.136,227.132c1.269,2.957-0.096,6.398-3.067,7.671c-2.963,1.273-6.405-0.089-7.682-3.062
			c-1.277-2.965,0.097-6.401,3.065-7.669C65.419,222.787,68.859,224.154,70.136,227.132z"/>
		<path fill="#FBFDF8" d="M82.003,254.754c1.284,2.957-0.087,6.395-3.053,7.675c-2.964,1.283-6.406-0.099-7.683-3.058
			c-1.277-2.979,0.096-6.407,3.064-7.69C77.293,250.416,80.741,251.772,82.003,254.754z"/>
		<path fill="#FBFDF8" d="M111.262,149.439c1.277,2.971-0.093,6.404-3.057,7.675c-2.964,1.275-6.405-0.084-7.682-3.068
			c-1.271-2.963,0.088-6.391,3.057-7.666C106.554,145.095,109.987,146.47,111.262,149.439z"/>
		<path fill="#FBFDF8" d="M122.083,180.236c1.278,2.966-0.093,6.406-3.057,7.679c-2.965,1.274-6.4-0.095-7.678-3.061
			c-1.277-2.965,0.095-6.401,3.058-7.669C117.372,175.902,120.809,177.266,122.083,180.236z"/>
		<path fill="#FBFDF8" d="M128.991,205.446c1.277,2.973-0.095,6.405-3.058,7.688c-2.966,1.269-6.4-0.097-7.678-3.063
			c-1.276-2.972,0.089-6.407,3.053-7.69C124.277,201.109,127.714,202.476,128.991,205.446z"/>
		<path fill="#FBFDF8" d="M143.759,230.621c1.275,2.965-0.099,6.399-3.066,7.682c-2.958,1.276-6.401-0.098-7.678-3.066
			c-1.27-2.957,0.095-6.396,3.059-7.673C139.048,226.278,142.482,227.658,143.759,230.621z"/>
		<path fill="#FBFDF8" d="M154.959,256.663c1.277,2.967-0.096,6.409-3.06,7.686c-2.965,1.271-6.404-0.098-7.681-3.072
			c-1.272-2.965,0.095-6.401,3.059-7.677C150.242,252.324,153.683,253.697,154.959,256.663z"/>
		<path fill="#FBFDF8" d="M95.875,286.985c1.277,2.97-0.094,6.404-3.063,7.68c-2.959,1.277-6.4-0.094-7.676-3.057
			c-1.277-2.964,0.093-6.413,3.057-7.687C91.158,282.644,94.598,284.019,95.875,286.985z"/>
		<path fill="#DD5252" d="M36.4,178.298l1.055,2.76l55.768-21.3l-44.801,42.778c-0.849,0.824-1.132,2.07-0.716,3.183
			c0.419,1.105,1.458,1.862,2.638,1.915l66.632,2.804l-42.478,44.569c-0.813,0.855-1.045,2.098-0.598,3.183
			c0.447,1.07,1.492,1.794,2.66,1.833l60.498,1.582l-35.455,16.706l38.983-43.402c0.758-0.859,0.967-2.062,0.523-3.114
			c-0.434-1.062-1.448-1.766-2.585-1.817l-66.449-3.156l46.615-42.083c0.896-0.806,1.208-2.05,0.812-3.189
			c-0.405-1.124-1.437-1.891-2.636-1.961l-80.314-4.249L36.4,178.298l1.055,2.76L36.4,178.298l-0.154,2.96l73.194,3.868
			l-46.664,42.114c-0.881,0.805-1.205,2.068-0.8,3.199c0.408,1.128,1.452,1.899,2.65,1.954l67.397,3.197l-44.601,49.662
			c-0.951,1.058-1.02,2.614-0.173,3.756c0.84,1.127,2.356,1.506,3.633,0.907l59.971-28.268c1.233-0.575,1.914-1.949,1.629-3.273
			c-0.275-1.346-1.444-2.313-2.816-2.36l-66.281-1.742l42.377-44.464c0.81-0.846,1.036-2.082,0.607-3.156
			c-0.434-1.071-1.46-1.8-2.619-1.855l-66.194-2.79l50.384-48.11c1.018-0.979,1.212-2.532,0.458-3.733
			c-0.756-1.193-2.236-1.684-3.559-1.18l-69.483,26.554c-1.307,0.503-2.089,1.843-1.872,3.228c0.212,1.373,1.37,2.417,2.766,2.496
			L36.4,178.298z"/>
		<path fill="#DD5252" d="M120.702,277.763l2.91,0.519l0.009-0.046c0.191-1.074,3.64-19.928,10.254-39.77
			c3.305-9.922,7.4-20.088,12.21-28.318c2.392-4.117,4.961-7.754,7.644-10.634c2.684-2.889,5.459-4.993,8.243-6.189
			c1.479-0.636,2.96-1.018,4.475-1.163c1.527-0.125,3.089-0.011,4.748,0.415c2.337,0.596,4.09,1.471,5.392,2.491
			c1.311,1.035,2.195,2.218,2.821,3.645c0.818,1.889,1.126,4.27,0.866,7.095c-0.234,2.49-0.908,5.292-1.98,8.298
			c-1.886,5.266-5.017,11.117-9.006,17.059c-5.976,8.89-13.896,17.972-22.377,25.664c-8.471,7.706-17.535,14.021-25.647,17.502
			c-0.546,0.24-1.096,0.466-1.634,0.677L120.702,277.763l2.91,0.519L120.702,277.763l1.07,2.763c0.61-0.239,1.211-0.491,1.828-0.752
			c7.824-3.367,16.008-8.87,23.831-15.52c11.726-9.995,22.628-22.585,29.917-34.756c3.64-6.083,6.388-12.057,7.826-17.658
			c0.729-2.804,1.122-5.51,1.096-8.1c-0.018-2.595-0.451-5.079-1.43-7.37c-0.979-2.292-2.529-4.341-4.593-5.952
			c-2.062-1.622-4.615-2.809-7.594-3.572c-2.271-0.587-4.531-0.761-6.721-0.569c-2.183,0.19-4.3,0.755-6.306,1.612
			c-3.833,1.658-7.259,4.366-10.383,7.745c-5.45,5.93-10.019,13.95-13.942,22.672c-5.869,13.078-10.224,27.768-13.134,39.224
			c-2.919,11.45-4.38,19.668-4.385,19.717c-0.185,1.05,0.209,2.122,1.037,2.803c0.83,0.68,1.958,0.857,2.954,0.478L120.702,277.763z
			"/>
		<path fill="#DD5252" d="M12.109,249.355l-2.931-0.385c-0.733,5.655-0.082,10.689,1.772,15.012
			c2.036,4.734,5.483,8.519,9.74,11.421c3.733,2.566,8.1,4.496,12.865,5.971c8.342,2.581,17.933,3.775,27.691,4.181
			c14.612,0.593,29.573-0.632,40.915-1.996c11.344-1.374,19.048-2.885,19.111-2.894c1.193-0.231,2.122-1.176,2.339-2.379
			c0.218-1.208-0.324-2.414-1.369-3.048c-0.053-0.031-19.651-12.037-42.329-22.795c-11.349-5.398-23.463-10.475-34.39-13.599
			c-5.469-1.562-10.641-2.639-15.351-2.99c-2.351-0.173-4.587-0.173-6.694,0.053c-2.102,0.247-4.091,0.716-5.903,1.505
			c-2.23,0.948-4.21,2.416-5.666,4.388c-1.467,1.98-2.386,4.418-2.734,7.171L12.109,249.355l2.938,0.376
			c0.253-1.95,0.837-3.335,1.612-4.407c0.801-1.06,1.833-1.858,3.257-2.479c1.161-0.5,2.576-0.856,4.236-1.05
			c3.088-0.353,6.996-0.084,11.378,0.734c7.682,1.425,16.843,4.483,26.158,8.291c13.994,5.712,28.39,13.09,39.258,19.032
			c5.439,2.972,9.994,5.587,13.194,7.449c1.598,0.936,2.85,1.689,3.708,2.194c0.431,0.265,0.752,0.453,0.98,0.593
			c0.106,0.062,0.19,0.111,0.246,0.146l0.077,0.047l1.55-2.523l-0.574-2.904l-0.06,0.018c-1.306,0.244-24.43,4.641-48.74,4.903
			c-12.146,0.139-24.593-0.78-34.606-3.633c-5.01-1.418-9.398-3.327-12.845-5.723c-3.459-2.418-5.976-5.278-7.485-8.785
			c-1.389-3.244-1.956-7.109-1.345-11.906L12.109,249.355z"/>
		<path fill="#DD5252" d="M208.8,248.555l-0.033,0.022c-0.793,0.513-15.004,9.662-32.894,17.354
			c-8.938,3.842-18.803,7.327-28.306,9.2c-4.746,0.949-9.398,1.488-13.781,1.488c-4.392,0.013-8.506-0.523-12.205-1.685
			c-3.304-1.035-6.69-1.307-10.054-0.947c-3.364,0.349-6.705,1.305-9.978,2.723c-7.701,3.309-15.126,9.078-22.075,15.816
			c-10.403,10.101-19.685,22.449-26.415,32.29c-6.723,9.836-10.877,17.183-10.909,17.232c-0.802,1.418-0.3,3.229,1.118,4.036
			c1.427,0.808,3.236,0.306,4.033-1.119l0.023-0.025c0.407-0.712,7.775-13.609,18.493-27.738
			c5.354-7.056,11.556-14.429,18.092-20.729c6.523-6.314,13.412-11.521,19.974-14.335c2.831-1.218,5.6-1.994,8.249-2.269
			c2.659-0.281,5.2-0.06,7.682,0.714c4.399,1.372,9.112,1.956,13.975,1.952c7.292-0.014,14.939-1.338,22.497-3.385
			c7.557-2.051,15.023-4.817,21.925-7.787c18.99-8.171,33.728-17.804,33.823-17.855c1.37-0.895,1.753-2.725,0.86-4.091
			C212.002,248.048,210.177,247.669,208.8,248.555z"/>
	</g>
</g>
<g>
	<path fill="#50A9DE" d="M239.818,246.259c-34.117,0-35.427-35.699-35.478-47.397h-0.009c0-0.192,0-0.469,0-0.682
		c0-0.217,0-0.495,0-0.69h0.009c0.05-11.703,1.36-47.398,35.478-47.398c33.949,0,35.518,36.744,35.588,47.398h0.01
		c0,0.184,0,0.467,0,0.69c0,0.212,0,0.492,0,0.682h-0.01C275.335,209.512,273.766,246.259,239.818,246.259z"/>
	<polygon fill="#FFFFFF" points="218.034,180.898 251.56,214.434 243.991,221.998 243.991,174.898 251.429,182.337 218.159,215.732 
		223.019,220.573 261.106,182.324 237.141,158.354 237.141,238.547 261.254,214.434 222.874,176.054 	"/>
</g>
<path fill="#545E66" d="M999.033,286.801c0,12.036-9.752,21.782-21.778,21.782H655.291c-12.035,0-21.78-9.746-21.78-21.782V84.515
	c0-12.034,9.745-21.791,21.78-21.791h321.964c12.026,0,21.778,9.757,21.778,21.791V286.801z"/>
<path fill="#697177" d="M992.678,185.648c0,5.485-4.437,9.926-9.922,9.926c-5.484,0-9.932-4.441-9.932-9.926
	c0-5.469,4.447-9.913,9.932-9.913C988.241,175.735,992.678,180.179,992.678,185.648z"/>
<rect x="649.414" y="79.378" fill="#3F92BC" width="316.967" height="212.553"/>
<rect x="649.414" y="79.378" fill="#3D8DAD" width="158.482" height="212.553"/>
<polygon opacity="0.6" fill="#55ACCE" enable-background="new    " points="869.229,291.932 966.381,291.932 966.381,79.378 
	750.245,79.378 "/>
<g>
	<path fill="#55ACCE" d="M424.124,77.864l-2.06,5.753c21.345,7.76,38.909,22.135,50.788,40.271
		c14.424,22.03,20.436,49.535,14.635,77.353c-5.804,27.812-22.318,50.615-44.352,65.047c-5.13,3.357-10.566,6.241-16.222,8.639
		c0.801,1.915,1.594,3.789,2.365,5.636c31.75-13.481,56.604-41.753,64.186-78.077C504.674,148.776,474.237,96.068,424.124,77.864z"
		/>
	<path fill="#55ACCE" d="M472.892,198.201c9.044-43.329-15.479-85.836-55.871-100.563l-2.062,5.742
		c16.945,6.189,30.88,17.62,40.307,32.021c11.484,17.538,16.269,39.415,11.651,61.547c-4.622,22.137-17.759,40.281-35.291,51.754
		c-4.059,2.657-8.369,4.951-12.849,6.852c0.791,1.888,1.584,3.765,2.365,5.631C446.741,250.303,466.781,227.489,472.892,198.201z"/>
	<path fill="#55ACCE" d="M451.797,193.789c6.815-32.656-11.636-64.715-42.056-75.875l-2.068,5.747
		c12.422,4.569,22.64,12.971,29.563,23.538c8.46,12.931,11.99,29.037,8.581,45.34c-3.398,16.321-13.076,29.68-25.994,38.134
		c-2.97,1.946-6.112,3.614-9.377,5.012c0.782,1.862,1.568,3.744,2.364,5.636C432.094,233.079,447.19,215.874,451.797,193.789z"/>
</g>
<path fill="#DD5252" d="M696.776,155.033l-28.021,28.018c-1.436,1.437-1.436,3.77,0,5.208l28.021,28.02
	c1.438,1.435,3.767,1.435,5.211,0l0.594-0.597c1.442-1.436,1.442-3.769,0-5.212l-24.815-24.812l24.815-24.819
	c1.442-1.439,1.442-3.766,0-5.208l-0.594-0.598C700.543,153.595,698.215,153.595,696.776,155.033z"/>
<path fill="#FFFFFF" d="M920.927,155.033l28.018,28.018c1.439,1.437,1.439,3.77,0,5.208l-28.018,28.02
	c-1.442,1.435-3.772,1.435-5.21,0l-0.599-0.597c-1.437-1.436-1.437-3.769,0-5.212l24.823-24.812l-24.823-24.819
	c-1.437-1.439-1.437-3.766,0-5.208l0.599-0.598C917.154,153.595,919.484,153.595,920.927,155.033z"/>
<g>
	<path fill="#55ACCE" d="M581.556,156.318l24.774,24.774c1.274,1.275,1.274,3.341,0,4.614l-24.774,24.773
		c-1.272,1.277-3.333,1.277-4.608,0l-0.528-0.528c-1.275-1.27-1.275-3.34,0-4.607l21.956-21.939l-21.956-21.957
		c-1.275-1.265-1.275-3.337,0-4.603l0.528-0.528C578.223,155.039,580.283,155.039,581.556,156.318z"/>
	<path fill="#55ACCE" d="M516.425,182.886c0,1.77,1.442,3.218,3.218,3.218h82.045c1.778,0,3.227-1.447,3.227-3.218l0,0
		c0-1.774-1.448-3.215-3.227-3.215h-82.045C517.867,179.671,516.425,181.111,516.425,182.886L516.425,182.886z"/>
</g>
</svg>
