<?xml version="1.0" encoding="utf-8"?>
<!-- Generator: Adobe Illustrator 16.0.0, SVG Export Plug-In . SVG Version: 6.00 Build 0)  -->
<!DOCTYPE svg PUBLIC "-//W3C//DTD SVG 1.1//EN" "http://www.w3.org/Graphics/SVG/1.1/DTD/svg11.dtd">
<svg version="1.1" id="Layer_1" xmlns="http://www.w3.org/2000/svg" xmlns:xlink="http://www.w3.org/1999/xlink" x="0px" y="0px"
	 width="1000px" height="743.682px" viewBox="0 0 1000 743.682" enable-background="new 0 0 1000 743.682" xml:space="preserve">
<path fill="#545E66" d="M44.633,743.682c-24.488,0-44.315-19.844-44.315-44.312V44.311c0-24.484,19.827-44.312,44.315-44.312
	h371.576c24.483,0,44.334,19.827,44.334,44.312v655.061c0,24.468-19.852,44.312-44.334,44.312L44.633,743.682L44.633,743.682z"/>
<path fill="#697177" d="M230.447,730.753c-11.159,0-20.198-9.029-20.198-20.188c0-11.164,9.039-20.212,20.198-20.212
	c11.129,0,20.167,9.048,20.167,20.212C250.613,721.723,241.576,730.753,230.447,730.753z"/>
<rect x="34.201" y="32.358" fill="#3F92BC" width="392.465" height="644.889"/>
<polygon opacity="0.6" fill="#55ACCE" enable-background="new    " points="34.201,48.423 34.201,32.358 426.666,32.358 
	426.666,677.251 347.09,677.267 "/>
<g>
	<path opacity="0.5" fill="#DD5252" enable-background="new    " d="M1000.546,400.41c0-136.757-110.862-247.636-247.631-247.636
		c-38.278,0-74.521,8.695-106.876,24.21l0.013-0.015l-0.02,0.015c-23.707,11.367-45.279,26.43-64.076,44.374l-0.238,0.141
		L219.724,537.062c-6.14,4.015-11.668,8.866-16.481,14.367l-0.289,0.257l0.113-0.063c-12.199,14.039-19.636,32.328-19.636,52.381
		c0,44.17,35.803,79.982,79.974,79.982c3.44,0,6.812-0.297,10.14-0.72l501.362-35.218l-2.32-0.852
		C900.146,637.158,1000.546,530.546,1000.546,400.41z M323.865,551.684c0.012,0.009,0.058,0.118,0.082,0.165
		c-0.086-0.102-0.185-0.195-0.271-0.297C323.779,551.615,323.849,551.661,323.865,551.684z M190.986,604.004
		c0-39.99,32.421-72.41,72.42-72.41c39.999,0,72.419,32.42,72.419,72.41c0,39.998-32.421,72.419-72.419,72.419
		C223.407,676.425,190.986,644.003,190.986,604.004z M752.915,624.651c-123.851,0-224.239-100.395-224.239-224.241
		c0-123.835,100.389-224.23,224.239-224.23c123.854,0,224.24,100.396,224.24,224.23C977.155,524.259,876.77,624.651,752.915,624.651
		z"/>
	<path fill="#DD5252" d="M263.407,524.03c-44.171,0-79.974,35.812-79.974,79.975c0,44.17,35.803,79.981,79.974,79.981
		c44.17,0,79.973-35.812,79.973-79.981C343.379,559.841,307.576,524.03,263.407,524.03z M263.407,676.425
		c-39.999,0-72.42-32.422-72.42-72.42c0-39.99,32.421-72.41,72.42-72.41s72.419,32.42,72.419,72.41
		C335.826,644.003,303.404,676.425,263.407,676.425z"/>
	<path fill="#DD5252" d="M894.515,197.312l0.046-0.022l-0.106-0.022c-40.123-28.015-88.894-44.491-141.537-44.491
		c-136.771,0-247.629,110.879-247.629,247.636c0,136.761,110.858,247.638,247.629,247.638
		c136.769,0,247.631-110.877,247.631-247.638C1000.546,316.322,958.595,242.068,894.515,197.312z M752.915,624.651
		c-123.851,0-224.239-100.395-224.239-224.241c0-1.069,0.066-2.117,0.083-3.188l342.549-187.224
		c63.537,39.583,105.849,110.042,105.849,190.411C977.155,524.259,876.77,624.651,752.915,624.651z"/>
	<g>
		<g>
			<path fill="#FFFFFF" d="M651.553,282.833l-38-23.154l19.707,33.818l-3.438,2l-23.854-40.935l3.437-2.01l37.589,22.75
				l-19.421-33.336l3.437-2l23.855,40.937L651.553,282.833z"/>
			<path fill="#FFFFFF" d="M653.758,261.654c-5.01-8.593-4.753-18.04,2.427-22.218c7.733-4.509,15.444,0.539,20.383,9.007
				l0.57,0.984l-19.457,11.335c4.055,6.68,10.376,9.904,16.021,6.616c2.828-1.639,4.644-4.593,5.008-8.343l2.913,0.767
				c-0.577,4.366-2.572,7.999-6.502,10.288C667.383,274.599,659.013,270.678,653.758,261.654z M657.66,242.107
				c-5.707,3.328-4.21,11.257-1.414,16.203l16.27-9.477C669.546,243.74,663.554,238.678,657.66,242.107z"/>
			<path fill="#FFFFFF" d="M713.721,246.608l-21.644-21.343l7.956,29.319l-3.07,1.789l-25.257-25l3.315-1.93l21.023,21.546
				l-7.949-29.164l2.944-1.719l21.457,21.296l-8.316-28.953l3.312-1.929l9.297,34.295L713.721,246.608z"/>
		</g>
	</g>
</g>
<path fill="#3F92BC" d="M848.485,382.234c-25.646,0.406-43.141,13.552-51.697,21.897l-21.399-21.897v57.338h56.03l-18.426-18.854
	c5.011-5.53,17.2-16.828,35.491-20.097c48.1-8.591,74.845,38.951,74.845,38.951C906.26,390.557,865.402,381.97,848.485,382.234z
	 M842.005,410.269v48.564c0,0-65.599,1.749-76.106,14.883v-91.04c0,0,13.602-18.386,76.106-19.262v12.038
	c1.797-0.1,3.511-0.319,5.351-0.348c1.966-0.034,4.098,0.008,6.383,0.113V349.41c0,0-55.146,1.75-74.98,9.628
	c-17.968,7.143-24.401,20.614-25.466,23.117c-1.069-2.503-7.506-15.976-25.47-23.117c-19.833-7.877-74.981-9.628-74.981-9.628
	v127.806h11.734v12.254c0,0,73.177-15.021,76.677,12.622h24.077c3.499-27.645,76.677-12.622,76.677-12.622v-12.254h11.733V408.17
	c-2.104,0.266-4.227,0.537-6.381,0.922C845.516,409.422,843.773,409.86,842.005,410.269z M740.681,473.716
	c-10.507-13.133-76.106-14.882-76.106-14.882v-95.419c62.505,0.876,76.106,19.263,76.106,19.263V473.716z"/>
<path fill="#FFFFFF" d="M289.464,594.918c-7.715,0.126-12.976,4.079-15.55,6.589l-6.437-6.589v17.245h16.851l-5.539-5.668
	c1.508-1.667,5.176-5.062,10.675-6.046c14.461-2.583,22.507,11.714,22.507,11.714C306.838,597.422,294.549,594.839,289.464,594.918z
	 M287.511,603.352v14.604c0,0-19.726,0.527-22.887,4.474v-27.378c0,0,4.09-5.527,22.887-5.788v3.614
	c0.539-0.028,1.059-0.093,1.609-0.1c0.593-0.012,1.234,0,1.921,0.034v-7.768c0,0-16.585,0.526-22.55,2.896
	c-5.402,2.146-7.339,6.201-7.66,6.955c-0.32-0.753-2.254-4.809-7.655-6.955c-5.969-2.37-22.555-2.896-22.555-2.896v38.438h3.53
	v3.685c0,0,22.008-4.519,23.059,3.798h7.238c1.058-8.315,23.062-3.798,23.062-3.798v-3.685h3.531v-20.766
	c-0.633,0.08-1.27,0.163-1.921,0.276C288.569,603.098,288.041,603.23,287.511,603.352z M257.042,622.43
	c-3.164-3.945-22.89-4.474-22.89-4.474v-28.693c18.797,0.262,22.89,5.789,22.89,5.789V622.43z"/>
</svg>
