<?xml version="1.0" encoding="utf-8"?>
<!-- Generator: Adobe Illustrator 16.0.0, SVG Export Plug-In . SVG Version: 6.00 Build 0)  -->
<!DOCTYPE svg PUBLIC "-//W3C//DTD SVG 1.1//EN" "http://www.w3.org/Graphics/SVG/1.1/DTD/svg11.dtd">
<svg version="1.1" id="Layer_1" xmlns="http://www.w3.org/2000/svg" xmlns:xlink="http://www.w3.org/1999/xlink" x="0px" y="0px"
	 width="1000px" height="715.223px" viewBox="0 0 1000 715.223" enable-background="new 0 0 1000 715.223" xml:space="preserve">
<g>
	<g>
		<path fill="#3B4F61" d="M2.376,506.629c0-44.938,22.469-75.26,56.501-75.26c21.378,0,34.685,11.998,43.192,27.488l-13.961,7.197
			C82,454.713,72.184,446.86,58.876,446.86c-23.342,0-38.612,24.215-38.612,59.771c0,35.343,15.271,59.773,38.612,59.773
			c12.215,0,22.032-5.889,27.268-12.217v-34.033H51.459v-15.271h51.265v55.849c-10.69,13.309-25.523,21.379-43.848,21.379
			C24.845,582.11,2.376,551.571,2.376,506.629z"/>
		<path fill="#3B4F61" d="M123.883,526.483c0-29.668,14.834-55.191,42.757-55.191c28.359,0,42.975,25.523,42.975,55.191
			s-14.616,55.41-42.975,55.41C138.716,581.892,123.883,556.151,123.883,526.483z M193.254,526.483
			c0-21.16-8.071-41.229-26.614-41.229c-18.106,0-26.396,20.068-26.396,41.229c0,21.379,8.291,41.447,26.396,41.447
			C185.183,567.931,193.254,547.862,193.254,526.483z"/>
		<path fill="#3B4F61" d="M227.935,526.483c0-29.668,14.834-55.191,42.757-55.191c28.359,0,42.975,25.523,42.975,55.191
			s-14.616,55.41-42.975,55.41C242.77,581.892,227.935,556.151,227.935,526.483z M297.307,526.483
			c0-21.16-8.072-41.229-26.614-41.229c-18.106,0-26.396,20.068-26.396,41.229c0,21.379,8.291,41.447,26.396,41.447
			C289.235,567.931,297.307,547.862,297.307,526.483z"/>
		<path fill="#3B4F61" d="M397.432,579.274v-15.053c-6.105,10.688-16.578,17.67-27.703,17.67c-23.561,0-37.739-22.033-37.739-55.191
			c0-32.721,13.962-55.408,37.739-55.408c10.688,0,21.38,6.105,27.703,17.888v-55.41h15.708v145.506L397.432,579.274
			L397.432,579.274z M397.432,550.914v-48.43c-3.926-9.162-13.741-17.232-23.776-17.232c-17.233,0-25.308,18.543-25.308,41.447
			c0,22.688,8.072,41.229,25.308,41.229C383.689,567.931,393.506,560.076,397.432,550.914z"/>
		<path fill="#3B4F61" d="M509.123,579.274L481.2,521.03h-20.942v58.244h-17.451V433.771h44.501
			c23.344,0,39.923,16.797,39.923,43.41c0,25.959-14.616,38.612-29.017,41.229l30.541,60.865H509.123z M509.341,477.399
			c0-16.578-8.944-28.357-23.996-28.357h-25.087v56.717h25.087C500.396,505.758,509.341,493.979,509.341,477.399z"/>
		<path fill="#3B4F61" d="M542.278,526.483c0-30.541,16.143-55.191,42.758-55.191c27.703,0,41.666,24.869,41.666,55.629v4.8h-68.281
			c0.655,21.159,11.562,37.084,30.323,37.084c9.161,0,18.543-4.58,25.086-12.869l8.29,9.162
			c-8.508,10.473-20.506,16.799-34.687,16.799C559.294,581.892,542.278,558.769,542.278,526.483z M584.817,484.379
			c-18.542,0-25.958,20.287-26.396,35.775h52.791C610.995,504.013,604.015,484.379,584.817,484.379z"/>
		<path fill="#3B4F61" d="M703.705,579.274v-11.344c-6.765,9.6-17.018,13.963-27.706,13.963c-17.015,0-31.85-13.091-31.85-35.121
			c0-22.035,14.614-34.687,31.85-34.687c10.689,0,21.16,4.146,27.706,13.523v-18.324c0-14.397-7.854-22.471-21.598-22.471
			c-9.816,0-18.324,3.709-26.396,12.871l-6.979-11.125c10.033-10.474,22.47-15.271,35.775-15.271
			c20.94,0,34.903,10.252,34.903,34.25v73.732h-15.706V579.274z M703.705,557.24v-20.068c-4.8-8.944-13.527-13.524-22.688-13.524
			c-13.089,0-20.941,10.254-20.941,23.342s7.854,23.562,20.941,23.562C690.179,570.549,698.905,565.967,703.705,557.24z"/>
		<path fill="#3B4F61" d="M808.193,579.274v-15.053c-6.107,10.688-16.579,17.67-27.705,17.67c-23.562,0-37.739-22.033-37.739-55.191
			c0-32.721,13.963-55.408,37.74-55.408c10.688,0,21.378,6.105,27.704,17.888v-55.41h15.708v145.506L808.193,579.274
			L808.193,579.274z M808.193,550.914v-48.43c-3.929-9.162-13.744-17.232-23.778-17.232c-17.234,0-25.305,18.543-25.305,41.447
			c0,22.688,8.068,41.229,25.305,41.229C794.449,567.931,804.267,560.076,808.193,550.914z"/>
		<path fill="#3B4F61" d="M847.459,526.483c0-30.541,16.143-55.191,42.756-55.191c27.705,0,41.666,24.869,41.666,55.629v4.8h-68.28
			c0.656,21.159,11.562,37.084,30.322,37.084c9.164,0,18.544-4.58,25.088-12.869l8.29,9.162
			c-8.509,10.473-20.506,16.799-34.685,16.799C864.474,581.892,847.459,558.769,847.459,526.483z M889.997,484.379
			c-18.543,0-25.96,20.287-26.396,35.775h52.791C916.174,504.013,909.194,484.379,889.997,484.379z"/>
		<path fill="#3B4F61" d="M954.782,579.274V473.908h15.487v16.799c6.764-11.125,17.017-18.979,29.887-18.979v16.143
			c-1.745-0.436-3.49-0.652-5.235-0.652c-9.599,0-20.289,8.509-24.649,17.232v74.824H954.782L954.782,579.274z"/>
	</g>
</g>
<g>
	<g>
		<path fill="#3B4F61" d="M203.609,713.481v-60.76h-9.259v-9.115h9.259v-8.533c0-12.152,6.654-19.531,17.504-19.531
			c4.63,0,8.97,1.304,12.441,4.629l-4.051,7.377c-1.881-2.022-4.051-3.184-6.799-3.184c-5.787,0-8.68,3.906-8.68,10.707v8.535
			h11.863v9.114h-11.863v60.761H203.609L203.609,713.481z"/>
		<path fill="#3B4F61" d="M234.421,678.472c0-19.675,9.838-36.601,28.355-36.601c18.806,0,28.5,16.926,28.5,36.601
			c0,19.676-9.693,36.745-28.5,36.745C244.259,715.217,234.421,698.147,234.421,678.472z M280.427,678.472
			c0-14.031-5.354-27.343-17.65-27.343c-12.008,0-17.505,13.312-17.505,27.343c0,14.178,5.497,27.487,17.505,27.487
			C275.073,705.959,280.427,692.649,280.427,678.472z"/>
		<path fill="#3B4F61" d="M306.897,713.481v-69.875h10.271v11.141c4.485-7.379,11.284-12.586,19.82-12.586v10.705
			c-1.157-0.289-2.315-0.434-3.474-0.434c-6.364,0-13.452,5.641-16.348,11.428v49.621H306.897L306.897,713.481z"/>
		<path fill="#3B4F61" d="M374.741,703.067l6.364-8.826c4.92,5.932,13.021,10.707,22.425,10.707
			c12.151,0,17.647-7.523,17.647-15.771c0-23.438-43.544-17.36-43.544-48.463c0-14.758,11.573-25.317,27.632-25.317
			c10.705,0,19.389,3.617,25.75,10.129l-6.076,8.68c-5.207-5.787-12.297-8.535-19.965-8.535c-8.823,0-15.625,5.787-15.625,14.468
			c0,20.396,43.547,15.914,43.547,48.319c0,14.179-9.403,26.765-29.367,26.765C390.944,715.217,381.252,710.444,374.741,703.067z"/>
		<path fill="#3B4F61" d="M448.662,713.481v-96.494h49.622v10.127h-38.048v31.973h37.035v10.127h-37.035v33.998h38.048v10.271
			L448.662,713.481L448.662,713.481z"/>
		<path fill="#3B4F61" d="M512.025,665.308c0-28.935,14.468-49.91,37.471-49.91c14.61,0,23.003,8.824,28.21,18.809l-9.547,4.482
			c-3.906-7.812-10.271-13.021-18.662-13.021c-15.626,0-25.607,16.781-25.607,39.642c0,22.856,9.981,39.641,25.607,39.641
			c8.823,0,15.189-6.076,18.807-14.322l9.692,4.482c-5.354,10.707-13.599,20.108-28.499,20.108
			C526.492,715.217,512.025,694.097,512.025,665.308z"/>
		<path fill="#3B4F61" d="M608.805,713.481v-86.367H585.95v-10.127h57.288v10.127h-23.002v86.367H608.805z"/>
		<path fill="#3B4F61" d="M650.903,665.308c0-27.92,13.021-49.91,36.455-49.91c23.438,0,36.603,21.99,36.603,49.91
			c0,27.922-13.165,49.909-36.603,49.909C663.924,715.217,650.903,693.229,650.903,665.308z M712.099,665.308
			c0-22.279-8.682-39.64-24.738-39.64c-15.913,0-24.595,17.357-24.595,39.64c0,21.989,8.682,39.641,24.595,39.641
			C703.417,704.946,712.099,687.297,712.099,665.308z"/>
		<path fill="#3B4F61" d="M784.863,713.481l-18.52-38.627h-13.887v38.627h-11.574v-96.494h29.514
			c15.479,0,26.476,11.143,26.476,28.791c0,17.215-9.692,25.604-19.241,27.342l20.255,40.361H784.863L784.863,713.481z
			 M785.008,645.92c0-10.992-5.931-18.807-15.914-18.807h-16.637v37.613h16.637C779.077,664.729,785.008,656.916,785.008,645.92z"/>
	</g>
</g>
<g>
	<path fill="#51AADE" d="M703.673,307.521c0,14.635-11.868,26.502-26.5,26.502h-358.36c-14.633,0-26.5-11.867-26.5-26.502V79.271
		c0-14.639,11.865-26.501,26.5-26.501h358.36c14.633,0,26.501,11.863,26.501,26.501L703.673,307.521L703.673,307.521z"/>
	<path fill="#FFFFFF" d="M497.991,96.361c-80.953,1.229-164.917,70.678-164.917,96.521c0,26.051,85.304,97.399,164.917,97.545
		c79.614-0.146,164.918-71.496,164.918-97.545C662.909,167.039,578.943,97.591,497.991,96.361z"/>
	<path fill="#51AADE" d="M678.411,43.786c-3.894-9.794-13.438-16.727-24.617-16.727H522.663c0,0-5.647,0-9.673,0
		c-4.023,0-6.435-1.689-6.435-6.622c0-3.636,0-9.909,0-9.909c0-5.814-4.718-10.53-10.532-10.53H372.188
		c-5.818,0-10.529,4.715-10.529,10.53c0,0,0,5.527,0,9.812c0,4.285-1.762,6.718-6.532,6.718s-12.934,0-12.934,0
		c-11.184,0-20.726,6.933-24.618,16.727L678.411,43.786L678.411,43.786z"/>
	<path fill="#51AADE" d="M497.991,128.682c-35.737,0-64.711,28.978-64.711,64.713c0,35.74,28.973,64.714,64.711,64.714
		c35.737,0,64.71-28.973,64.71-64.714C562.701,157.66,533.729,128.682,497.991,128.682z M497.991,219.47
		c-14.404,0-26.075-11.667-26.075-26.076c0-14.4,11.672-26.075,26.075-26.075s26.076,11.675,26.076,26.075
		C524.066,207.802,512.395,219.47,497.991,219.47z"/>
	<g>
		<path fill="#FFFFFF" d="M699.258,307.521v-71.226h-32.584c-34.151,0-61.84,27.685-61.84,61.837v31.475h72.339
			C689.35,329.606,699.258,319.696,699.258,307.521z"/>
	</g>
	<path fill="#51AADE" d="M672.338,277.301h-2.713v-9.931c0-4.487-1.818-8.437-4.521-11.239c-1.353-1.402-2.929-2.529-4.646-3.318
		c-1.718-0.789-3.576-1.235-5.475-1.235c-1.896,0-3.758,0.446-5.47,1.235c-2.581,1.184-4.849,3.131-6.499,5.629
		c-1.646,2.498-2.674,5.566-2.674,8.93v9.93h-2.59c-1.446,0-2.622,1.182-2.622,2.623v29.857c0,1.449,1.176,2.617,2.622,2.617h34.588
		c1.448,0,2.623-1.17,2.623-2.617v-29.857C674.961,278.481,673.785,277.301,672.338,277.301z M656.862,295.021v4.078
		c0,1-0.819,1.811-1.824,1.811c-1.001,0-1.812-0.811-1.812-1.811v-4.078c-1.527-0.689-2.592-2.23-2.592-4.012
		c0-2.438,1.976-4.408,4.403-4.408c2.435,0,4.416,1.971,4.416,4.408C659.454,292.789,658.384,294.33,656.862,295.021z
		 M645.583,277.301v-9.931c0-3.058,1.225-5.696,3.051-7.599c0.912-0.947,1.97-1.693,3.058-2.195
		c1.096-0.508,2.226-0.758,3.291-0.758c1.067,0,2.188,0.25,3.285,0.758c1.646,0.748,3.195,2.059,4.312,3.752
		c1.118,1.691,1.808,3.74,1.808,6.042v9.931H645.583L645.583,277.301z"/>
</g>
</svg>
