<?xml version="1.0" encoding="utf-8"?>
<!-- Generator: Adobe Illustrator 16.0.0, SVG Export Plug-In . SVG Version: 6.00 Build 0)  -->
<!DOCTYPE svg PUBLIC "-//W3C//DTD SVG 1.1//EN" "http://www.w3.org/Graphics/SVG/1.1/DTD/svg11.dtd">
<svg version="1.1" id="Layer_1" xmlns="http://www.w3.org/2000/svg" xmlns:xlink="http://www.w3.org/1999/xlink" x="0px" y="0px"
	 width="1000px" height="721.865px" viewBox="0 0 1000 721.865" enable-background="new 0 0 1000 721.865" xml:space="preserve">
<g>
	<path fill="#D8262E" d="M2.277,513.309c0-44.898,22.45-75.196,56.452-75.196c21.36,0,34.655,11.988,43.155,27.462l-13.95,7.193
		c-6.104-11.332-15.911-19.181-29.207-19.181c-23.322,0-38.58,24.194-38.58,59.722c0,35.311,15.257,59.722,38.58,59.722
		c12.206,0,22.014-5.885,27.245-12.207v-34.001H51.319v-15.258h51.221v55.798c-10.681,13.296-25.502,21.359-43.81,21.359
		C24.727,588.723,2.277,558.209,2.277,513.309z"/>
	<path fill="#D8262E" d="M123.683,533.144c0-29.644,14.822-55.146,42.72-55.146c28.335,0,42.938,25.502,42.938,55.146
		s-14.604,55.361-42.938,55.361C138.504,588.504,123.683,562.787,123.683,533.144z M192.993,533.144
		c0-21.144-8.064-41.194-26.59-41.194c-18.091,0-26.374,20.052-26.374,41.194c0,21.359,8.283,41.411,26.374,41.411
		C184.93,574.556,192.993,554.504,192.993,533.144z"/>
	<path fill="#D8262E" d="M227.649,533.144c0-29.644,14.822-55.146,42.72-55.146c28.335,0,42.938,25.502,42.938,55.146
		s-14.603,55.361-42.938,55.361C242.471,588.504,227.649,562.787,227.649,533.144z M296.961,533.144
		c0-21.144-8.065-41.194-26.591-41.194c-18.09,0-26.374,20.052-26.374,41.194c0,21.359,8.283,41.411,26.374,41.411
		C288.896,574.556,296.961,554.504,296.961,533.144z"/>
	<path fill="#D8262E" d="M397.005,585.891v-15.04c-6.103,10.68-16.564,17.652-27.681,17.652c-23.54,0-37.707-22.014-37.707-55.144
		c0-32.693,13.951-55.362,37.707-55.362c10.68,0,21.359,6.104,27.681,17.873v-55.362h15.692v145.381h-15.692V585.891z
		 M397.005,557.555v-48.388c-3.924-9.153-13.731-17.22-23.758-17.22c-17.219,0-25.284,18.528-25.284,41.412
		c0,22.669,8.065,41.193,25.284,41.193C383.273,574.556,393.082,566.71,397.005,557.555z"/>
	<path fill="#D8262E" d="M508.602,585.891l-27.899-58.196h-20.924v58.196h-17.437V440.51h44.465
		c23.321,0,39.887,16.784,39.887,43.375c0,25.938-14.604,38.578-28.989,41.192l30.515,60.812L508.602,585.891L508.602,585.891z
		 M508.819,484.102c0-16.563-8.938-28.334-23.977-28.334h-25.064v56.67h25.064C499.883,512.438,508.819,500.667,508.819,484.102z"/>
	<path fill="#D8262E" d="M541.732,533.144c0-30.516,16.13-55.146,42.721-55.146c27.68,0,41.629,24.85,41.629,55.581v4.795h-68.22
		c0.652,21.143,11.55,37.054,30.295,37.054c9.153,0,18.526-4.576,25.064-12.858l8.283,9.151c-8.5,10.465-20.49,16.783-34.656,16.783
		C558.734,588.504,541.732,565.402,541.732,533.144z M584.234,491.077c-18.526,0-25.937,20.271-26.371,35.745h52.745
		C610.391,510.693,603.416,491.077,584.234,491.077z"/>
	<path fill="#D8262E" d="M703.021,585.891v-11.335c-6.758,9.59-17.002,13.949-27.682,13.949c-17.001,0-31.822-13.077-31.822-35.093
		c0-22.013,14.604-34.654,31.822-34.654c10.682,0,21.144,4.142,27.682,13.514v-18.309c0-14.385-7.846-22.449-21.577-22.449
		c-9.811,0-18.31,3.705-26.373,12.859l-6.977-11.116c10.026-10.462,22.45-15.258,35.745-15.258c20.925,0,34.874,10.244,34.874,34.22
		v73.673L703.021,585.891L703.021,585.891z M703.021,563.876v-20.053c-4.795-8.937-13.514-13.515-22.668-13.515
		c-13.076,0-20.924,10.244-20.924,23.321c0,13.078,7.848,23.54,20.924,23.54C689.509,577.171,698.229,572.594,703.021,563.876z"/>
	<path fill="#D8262E" d="M807.424,585.891v-15.04c-6.104,10.68-16.563,17.652-27.681,17.652c-23.54,0-37.707-22.014-37.707-55.144
		c0-32.693,13.95-55.362,37.707-55.362c10.681,0,21.36,6.104,27.681,17.873v-55.362h15.693v145.381h-15.693V585.891L807.424,585.891
		z M807.424,557.555v-48.388c-3.923-9.153-13.729-17.22-23.758-17.22c-17.22,0-25.283,18.528-25.283,41.412
		c0,22.669,8.063,41.193,25.283,41.193C793.693,574.556,803.501,566.71,807.424,557.555z"/>
	<path fill="#D8262E" d="M846.657,533.144c0-30.516,16.129-55.146,42.72-55.146c27.681,0,41.63,24.85,41.63,55.581v4.795h-68.221
		c0.655,21.143,11.552,37.054,30.296,37.054c9.154,0,18.528-4.576,25.066-12.858l8.281,9.151
		c-8.499,10.465-20.488,16.783-34.654,16.783C863.659,588.504,846.657,565.402,846.657,533.144z M889.16,491.077
		c-18.527,0-25.937,20.271-26.373,35.745h52.746C915.316,510.693,908.341,491.077,889.16,491.077z"/>
	<path fill="#D8262E" d="M953.895,585.891V480.616h15.475v16.782c6.759-11.115,17.003-18.963,29.861-18.963v16.129
		c-1.743-0.437-3.487-0.655-5.231-0.655c-9.589,0-20.271,8.502-24.63,17.221v74.762L953.895,585.891L953.895,585.891z"/>
</g>
<g>
	<path fill="#D8262E" d="M275.831,719.986v-60.708h-9.25v-9.106h9.25v-8.526c0-12.142,6.648-19.514,17.489-19.514
		c4.625,0,8.962,1.302,12.431,4.624l-4.047,7.372c-1.879-2.022-4.047-3.179-6.793-3.179c-5.781,0-8.672,3.902-8.672,10.694v8.526
		h11.852v9.106h-11.852v60.707h-10.407L275.831,719.986L275.831,719.986z"/>
	<path fill="#D8262E" d="M306.619,685.007c0-19.655,9.828-36.567,28.33-36.567c18.79,0,28.475,16.912,28.475,36.567
		c0,19.657-9.685,36.715-28.475,36.715C316.446,721.719,306.619,704.664,306.619,685.007z M352.582,685.007
		c0-14.021-5.348-27.316-17.634-27.316c-11.997,0-17.489,13.297-17.489,27.316c0,14.166,5.493,27.464,17.489,27.464
		C347.233,712.469,352.582,699.172,352.582,685.007z"/>
	<path fill="#D8262E" d="M379.034,719.986v-69.813h10.261v11.13c4.482-7.37,11.274-12.573,19.802-12.573v10.693
		c-1.155-0.288-2.312-0.433-3.469-0.433c-6.361,0-13.443,5.637-16.333,11.419v49.577H379.034L379.034,719.986z"/>
	<path fill="#D8262E" d="M449.424,671.854c0-29.776,14.889-49.866,37.437-49.866c14.165,0,22.979,7.949,28.618,18.212l-9.25,4.771
		c-4.048-7.517-10.552-12.722-19.368-12.722c-15.466,0-25.583,16.044-25.583,39.605c0,23.415,10.117,39.604,25.583,39.604
		c8.095,0,14.599-3.901,18.065-8.096v-22.546h-22.98v-10.119h33.967V707.7c-7.083,8.815-16.911,14.165-29.053,14.165
		C464.312,721.864,449.424,701.629,449.424,671.854z"/>
	<path fill="#D8262E" d="M529.936,685.007c0-19.655,9.83-36.567,28.329-36.567c18.79,0,28.476,16.912,28.476,36.567
		c0,19.657-9.686,36.715-28.476,36.715C539.766,721.719,529.936,704.664,529.936,685.007z M575.899,685.007
		c0-14.021-5.35-27.316-17.636-27.316c-11.996,0-17.488,13.297-17.488,27.316c0,14.166,5.493,27.464,17.488,27.464
		C570.551,712.469,575.899,699.172,575.899,685.007z"/>
	<path fill="#D8262E" d="M598.881,685.007c0-19.655,9.83-36.567,28.33-36.567c18.791,0,28.475,16.912,28.475,36.567
		c0,19.657-9.684,36.715-28.475,36.715C608.71,721.719,598.881,704.664,598.881,685.007z M644.844,685.007
		c0-14.021-5.346-27.316-17.633-27.316c-11.997,0-17.49,13.297-17.49,27.316c0,14.166,5.494,27.464,17.49,27.464
		C639.498,712.469,644.844,699.172,644.844,685.007z"/>
	<path fill="#D8262E" d="M711.189,719.986v-9.975c-4.048,7.081-10.984,11.707-18.356,11.707c-15.609,0-25.006-14.599-25.006-36.567
		c0-21.683,9.251-36.715,25.006-36.715c7.081,0,14.166,4.049,18.356,11.854v-36.714h10.406v96.407h-10.406V719.986z
		 M711.189,701.195v-32.088c-2.603-6.071-9.106-11.419-15.755-11.419c-11.418,0-16.766,12.286-16.766,27.462
		c0,15.032,5.348,27.317,16.766,27.317C702.083,712.469,708.588,707.266,711.189,701.195z"/>
</g>
<g>
	<g>
		<path fill="#51AADE" d="M318.453,331.579c-13.404,0-24.312-10.907-24.312-24.312V79.206c0-13.405,10.907-24.312,24.312-24.312
			h358.064c13.406,0,24.312,10.906,24.312,24.312v228.06c0,13.405-10.905,24.312-24.312,24.312L318.453,331.579L318.453,331.579z"/>
		<path fill="#D8262E" d="M676.519,57.062c12.212,0,22.146,9.935,22.146,22.145v228.06c0,12.211-9.935,22.146-22.146,22.146H318.453
			c-12.21,0-22.145-9.935-22.145-22.146V79.206c0-12.21,9.935-22.145,22.145-22.145L676.519,57.062 M676.519,52.729H318.453
			c-14.623,0-26.479,11.853-26.479,26.479v228.06c0,14.627,11.856,26.479,26.479,26.479h358.064
			c14.621,0,26.479-11.853,26.479-26.479V79.206C702.998,64.58,691.14,52.729,676.519,52.729L676.519,52.729z"/>
	</g>
	<path fill="#FFFFFF" d="M497.484,96.285c-80.887,1.228-164.781,70.619-164.781,96.44c0,26.03,85.232,97.318,164.781,97.463
		c79.546-0.146,164.777-71.434,164.777-97.463C662.262,166.904,578.367,97.512,497.484,96.285z"/>
	<path fill="#D8262E" d="M677.752,43.751c-3.885-9.786-13.422-16.713-24.594-16.713H522.137c0,0-5.645,0-9.665,0
		c-4.02,0-6.428-1.684-6.428-6.616c0-3.631,0-9.901,0-9.901C506.044,4.713,501.331,0,495.52,0H371.783
		c-5.815,0-10.521,4.713-10.521,10.521c0,0,0,5.521,0,9.804c0,4.281-1.757,6.713-6.525,6.713c-4.768,0-12.924,0-12.924,0
		c-11.171,0-20.707,6.927-24.597,16.713H677.752z"/>
	<path fill="#51AADE" d="M497.484,128.576c-35.709,0-64.658,28.955-64.658,64.66c0,35.712,28.947,64.66,64.658,64.66
		c35.708,0,64.657-28.948,64.657-64.66C562.142,157.532,533.191,128.576,497.484,128.576z M497.484,219.289
		c-14.394,0-26.056-11.658-26.056-26.053c0-14.389,11.661-26.053,26.056-26.053c14.393,0,26.053,11.664,26.053,26.053
		C523.537,207.632,511.876,219.289,497.484,219.289z"/>
	<path fill="#D8262E" d="M328.943,236.1c34.125,0,61.787,27.665,61.787,61.791v35.855h-72.277c-14.62,0-26.479-11.853-26.479-26.479
		V236.1H328.943z"/>
	<path fill="#FFFFFF" d="M346.146,269.981v-5.784c0,0-0.867-4.92-6.475-4.92c-5.613,0-6.825,4.75-6.825,4.75v29.352
		c0,0,0.868,5.095,6.648,5.095c5.783,0,6.648-4.661,6.648-4.661v-9.065h-5.524v-7.857h20.632v35.571h-44.374v-35.655h7.164v-11.396
		c0,0-0.17-14.244,15.63-14.244c13.465,0,14.157,12.258,14.157,12.258v6.647L346.146,269.981z"/>
</g>
</svg>
