<?xml version="1.0" encoding="utf-8"?>
<!-- Generator: Adobe Illustrator 16.0.0, SVG Export Plug-In . SVG Version: 6.00 Build 0)  -->
<!DOCTYPE svg PUBLIC "-//W3C//DTD SVG 1.1//EN" "http://www.w3.org/Graphics/SVG/1.1/DTD/svg11.dtd">
<svg version="1.1" id="Layer_1" xmlns="http://www.w3.org/2000/svg" xmlns:xlink="http://www.w3.org/1999/xlink" x="0px" y="0px"
	 width="1000px" height="620.521px" viewBox="0 0 1000 620.521" enable-background="new 0 0 1000 620.521" xml:space="preserve">
<g>
	<g>
		<path fill="#3B4F61" d="M0.765,563.854c0-33.737,16.869-56.502,42.418-56.502c16.05,0,26.039,9.007,32.427,20.636l-10.482,5.404
			c-4.585-8.517-11.955-14.412-21.945-14.412c-17.524,0-28.988,18.178-28.988,44.874c0,26.53,11.464,44.873,28.988,44.873
			c9.17,0,16.541-4.421,20.471-9.171v-25.551h-26.04v-11.463H76.1v41.927c-8.024,9.99-19.161,16.05-32.917,16.05
			C17.634,620.519,0.765,597.59,0.765,563.854z"/>
		<path fill="#3B4F61" d="M91.983,578.755c0-22.271,11.137-41.435,32.099-41.435c21.29,0,32.263,19.161,32.263,41.435
			c0,22.274-10.973,41.6-32.263,41.6C103.119,620.354,91.983,601.03,91.983,578.755z M144.062,578.755
			c0-15.885-6.06-30.953-19.98-30.953c-13.593,0-19.816,15.068-19.816,30.953c0,16.051,6.224,31.118,19.816,31.118
			C138.003,609.873,144.062,594.806,144.062,578.755z"/>
		<path fill="#3B4F61" d="M170.098,578.755c0-22.271,11.137-41.435,32.099-41.435c21.291,0,32.264,19.161,32.264,41.435
			c0,22.274-10.973,41.6-32.264,41.6C181.234,620.354,170.098,601.03,170.098,578.755z M222.178,578.755
			c0-15.885-6.06-30.953-19.981-30.953c-13.592,0-19.815,15.068-19.815,30.953c0,16.051,6.223,31.118,19.815,31.118
			C216.118,609.873,222.178,594.806,222.178,578.755z"/>
		<path fill="#3B4F61" d="M297.344,618.39v-11.302c-4.585,8.025-12.446,13.267-20.799,13.267c-17.688,0-28.333-16.541-28.333-41.436
			c0-24.564,10.482-41.599,28.333-41.599c8.024,0,16.049,4.587,20.799,13.431v-41.599h11.792v109.236L297.344,618.39L297.344,618.39
			z M297.344,597.1v-36.357c-2.948-6.879-10.317-12.939-17.851-12.939c-12.938,0-18.998,13.922-18.998,31.117
			c0,17.033,6.06,30.954,18.998,30.954C287.026,609.873,294.397,603.977,297.344,597.1z"/>
		<path fill="#3B4F61" d="M381.192,618.39l-20.962-43.729h-15.723v43.729h-13.101V509.153h33.409
			c17.523,0,29.97,12.609,29.97,32.591c0,19.488-10.973,28.988-21.781,30.953l22.928,45.692H381.192z M381.357,541.908
			c0-12.446-6.715-21.29-18.017-21.29h-18.834v42.579h18.834C374.642,563.197,381.357,554.354,381.357,541.908z"/>
		<path fill="#3B4F61" d="M406.082,578.755c0-22.928,12.119-41.435,32.099-41.435c20.8,0,31.281,18.671,31.281,41.763v3.604h-51.26
			c0.492,15.886,8.679,27.842,22.764,27.842c6.879,0,13.921-3.439,18.834-9.662l6.224,6.879
			c-6.389,7.859-15.395,12.609-26.04,12.609C418.857,620.354,406.082,602.994,406.082,578.755z M438.017,547.148
			c-13.921,0-19.488,15.23-19.815,26.856h39.633C457.67,561.886,452.431,547.148,438.017,547.148z"/>
		<path fill="#3B4F61" d="M527.271,618.39v-8.517c-5.078,7.207-12.775,10.48-20.801,10.48c-12.774,0-23.91-9.824-23.91-26.366
			c0-16.543,10.973-26.041,23.91-26.041c8.024,0,15.887,3.113,20.801,10.154v-13.757c0-10.81-5.896-16.869-16.215-16.869
			c-7.37,0-13.757,2.784-19.815,9.661l-5.241-8.352c7.534-7.861,16.869-11.465,26.859-11.465c15.723,0,26.203,7.699,26.203,25.713
			v55.354h-11.791V618.39z M527.271,601.848v-15.065c-3.604-6.716-10.154-10.154-17.033-10.154c-9.827,0-15.723,7.698-15.723,17.523
			s5.895,17.688,15.723,17.688C517.116,611.838,523.666,608.399,527.271,601.848z"/>
		<path fill="#3B4F61" d="M605.711,618.39v-11.302c-4.587,8.025-12.447,13.267-20.8,13.267c-17.688,0-28.332-16.541-28.332-41.436
			c0-24.564,10.48-41.599,28.332-41.599c8.025,0,16.052,4.587,20.8,13.431v-41.599h11.791v109.236L605.711,618.39L605.711,618.39z
			 M605.711,597.1v-36.357c-2.949-6.879-10.317-12.939-17.852-12.939c-12.938,0-18.997,13.922-18.997,31.117
			c0,17.033,6.061,30.954,18.997,30.954C595.394,609.873,602.765,603.977,605.711,597.1z"/>
		<path fill="#3B4F61" d="M635.188,578.755c0-22.928,12.119-41.435,32.099-41.435c20.799,0,31.28,18.671,31.28,41.763v3.604h-51.26
			c0.488,15.886,8.681,27.842,22.765,27.842c6.879,0,13.92-3.439,18.832-9.662l6.224,6.879c-6.388,7.859-15.395,12.609-26.04,12.609
			C647.961,620.354,635.188,602.994,635.188,578.755z M667.122,547.148c-13.92,0-19.488,15.23-19.814,26.856h39.632
			C686.775,561.886,681.535,547.148,667.122,547.148z"/>
		<path fill="#3B4F61" d="M715.758,618.39v-79.104h11.628v12.612c5.075-8.354,12.773-14.247,22.437-14.247v12.117
			c-1.31-0.328-2.62-0.491-3.932-0.491c-7.204,0-15.23,6.388-18.507,12.938v56.173h-11.626V618.39z"/>
		<path fill="#3B4F61" d="M764.068,583.013v-73.859h13.1v74.025c0,16.867,8.024,25.548,21.944,25.548
			c14.084,0,22.109-8.681,22.109-25.548v-74.025h12.938v73.859c0,24.075-12.938,37.342-35.048,37.342
			C777.167,620.354,764.068,607.088,764.068,583.013z"/>
		<path fill="#3B4F61" d="M850.533,606.598l7.207-9.99c5.567,6.715,14.737,12.119,25.384,12.119c13.758,0,19.98-8.516,19.98-17.85
			c0-26.531-49.297-19.654-49.297-54.864c0-16.705,13.104-28.659,31.28-28.659c12.119,0,21.946,4.096,29.152,11.463l-6.879,9.825
			c-5.896-6.549-13.918-9.662-22.602-9.662c-9.987,0-17.688,6.553-17.688,16.377c0,23.092,49.298,18.017,49.298,54.701
			c0,16.049-10.646,30.297-33.246,30.297C868.875,620.354,857.904,614.949,850.533,606.598z"/>
		<path fill="#3B4F61" d="M934.216,618.39V509.153h36.193c17.196,0,27.023,11.301,27.023,27.842
			c0,13.757-7.209,22.438-16.705,25.056c10.646,1.64,18.507,13.759,18.507,26.859c0,17.688-9.5,29.479-27.841,29.479H934.216
			L934.216,618.39z M984.001,538.795c0-10.151-4.911-18.178-16.047-18.178h-20.637v36.192h20.637
			C979.09,556.811,984.001,548.949,984.001,538.795z M985.806,587.6c0-10.317-5.404-19.324-17.033-19.324h-21.454v38.485h21.454
			C980.074,606.761,985.806,599.556,985.806,587.6z"/>
	</g>
</g>
<g>
	
		<rect x="387.903" y="16.629" transform="matrix(-0.8684 0.4958 -0.4958 -0.8684 831.2145 -115.621)" fill="#51AADE" width="86.091" height="71.697"/>
	<g>
		<path fill="#51AADE" d="M662.677,414c0,11.467-9.302,20.756-20.767,20.756H361.144c-11.47,0-20.761-9.289-20.761-20.756V235.167
			c0-11.47,9.292-20.764,20.761-20.764h280.768c11.465,0,20.767,9.293,20.767,20.764L662.677,414L662.677,414z"/>
		<path fill="#FFFFFF" d="M501.527,248.557c-63.423,0.964-129.208,55.374-129.208,75.623c0,20.412,66.833,76.315,129.208,76.422
			c62.377-0.105,129.211-56.01,129.211-76.422C630.738,303.93,564.952,249.521,501.527,248.557z"/>
		<path fill="#51AADE" d="M642.878,207.366c-3.047-7.672-10.523-13.104-19.282-13.104H520.858c0,0-4.428,0-7.576,0
			c-3.153,0-5.043-1.325-5.043-5.189c0-2.849,0-7.765,0-7.765c0-4.556-3.698-8.25-8.252-8.25h-97.021
			c-4.562,0-8.251,3.694-8.251,8.25c0,0,0,4.331,0,7.69c0,3.356-1.379,5.264-5.116,5.264c-3.741,0-10.136,0-10.136,0
			c-8.761,0-16.241,5.432-19.288,13.104H642.878z"/>
		<path fill="#51AADE" d="M501.527,273.88c-27.999,0-50.699,22.703-50.699,50.7c0,28.006,22.7,50.702,50.699,50.702
			c28.001,0,50.698-22.696,50.698-50.702C552.226,296.583,529.528,273.88,501.527,273.88z M501.527,345.012
			c-11.285,0-20.429-9.141-20.429-20.432c0-11.288,9.144-20.428,20.429-20.428c11.288,0,20.433,9.142,20.433,20.428
			C521.957,335.871,512.815,345.012,501.527,345.012z"/>
	</g>
	<path fill="#51AADE" d="M403.103,122.303l50.923-29.077l-46.43-81.318l-50.923,29.075c-22.462,12.824-30.266,41.42-17.444,63.875
		C352.048,127.313,380.642,135.127,403.103,122.303z"/>
	
		<rect x="296.809" y="89.39" transform="matrix(-0.8684 0.4959 -0.4959 -0.8684 666.2207 47.041)" fill="#51AADE" width="60.118" height="45.086"/>
	<g>
		<path fill="#FFFFFF" d="M449.283,66.616c-1.188-2.079-0.466-4.735,1.616-5.921l16.23-9.267c2.078-1.189,4.735-0.462,5.924,1.618
			l0,0c1.189,2.083,0.464,4.739-1.617,5.929l-16.229,9.264C453.125,69.426,450.47,68.699,449.283,66.616L449.283,66.616z"/>
		<path fill="#FFFFFF" d="M442.224,54.251c-1.19-2.083-0.467-4.738,1.615-5.924l16.229-9.267c2.084-1.189,4.734-0.462,5.927,1.622
			l0,0c1.188,2.084,0.464,4.735-1.619,5.924l-16.229,9.267C446.066,57.058,443.411,56.334,442.224,54.251L442.224,54.251z"/>
		<path fill="#FFFFFF" d="M435.161,41.884c-1.186-2.081-0.462-4.733,1.618-5.919l16.229-9.267c2.083-1.191,4.735-0.465,5.925,1.617
			l0,0c1.189,2.083,0.467,4.739-1.615,5.925l-16.23,9.269C439.006,44.694,436.352,43.967,435.161,41.884L435.161,41.884z"/>
		<path fill="#FFFFFF" d="M428.101,29.52c-1.19-2.081-0.463-4.737,1.614-5.922l16.231-9.267c2.08-1.19,4.734-0.464,5.924,1.618l0,0
			c1.19,2.083,0.466,4.739-1.615,5.925l-16.23,9.267C431.947,32.329,429.291,31.603,428.101,29.52L428.101,29.52z"/>
	</g>
	<path fill="none" stroke="#51AADE" stroke-width="11.3386" stroke-miterlimit="10" d="M339.229,110.931
		c-123.333,50.759-132.243,115.556-118.36,154.03c25.897,71.778,130.871,53.658,130.871,53.658"/>
	<rect x="320.041" y="290.948" fill="#51AADE" width="31.698" height="57.371"/>
</g>
</svg>
